<svg width="14" height="18" viewBox="0 0 14 18" fill="none" xmlns="http://www.w3.org/2000/svg">
<path d="M6.99333 17.9959C5.70933 17.9959 4.42122 17.9918 3.13722 17.9999C2.80904 18.004 2.62033 17.7874 2.62033 17.4808C2.62443 15.4409 2.62443 13.4011 2.62033 11.3613C2.62033 11.2018 2.62033 11.2059 2.46445 11.165C2.15678 11.0833 1.84911 11.0056 1.54554 10.9157C1.36504 10.8625 1.24608 10.6949 1.25428 10.4946C1.27069 10.0736 1.2912 9.65254 1.31171 9.22741C1.31992 9.03119 1.32812 8.83088 1.34453 8.63467C1.35274 8.52429 1.31992 8.44254 1.25018 8.35669C0.872772 7.89885 0.503569 7.43692 0.130264 6.975C-0.0461326 6.75425 -0.0420301 6.55804 0.134367 6.33729C0.515876 5.86719 0.893283 5.393 1.2789 4.92289C1.32812 4.86158 1.35274 4.80026 1.34863 4.7185C1.31582 4.12167 1.2871 3.52893 1.25838 2.93211C1.24197 2.58873 1.34453 2.45792 1.67271 2.36798C2.26344 2.20856 2.85826 2.04913 3.44899 1.88153C3.49001 1.86927 3.53513 1.82839 3.55975 1.78751C3.89613 1.28061 4.22842 0.769632 4.5648 0.25865C4.73709 -0.00297252 4.91349 -0.0561146 5.20065 0.0542575C5.77496 0.275002 6.35338 0.491658 6.9318 0.708314C6.97282 0.724666 7.02615 0.720578 7.06717 0.708314C7.662 0.48757 8.25273 0.262738 8.84755 0.0460819C9.09779 -0.043851 9.27419 0.0215546 9.42187 0.242299C9.6639 0.610206 9.90593 0.982201 10.1521 1.3542C10.2095 1.44004 10.2751 1.51771 10.3162 1.61173C10.4187 1.84474 10.6115 1.91832 10.8412 1.97555C11.3786 2.10636 11.9078 2.25761 12.4411 2.40886C12.6544 2.47018 12.757 2.62552 12.7488 2.84626C12.7324 3.25914 12.7119 3.66792 12.6914 4.0808C12.6791 4.30154 12.6668 4.52228 12.6626 4.74303C12.6626 4.80026 12.6832 4.86566 12.716 4.90654C13.0975 5.38482 13.4831 5.8631 13.8687 6.34138C14.041 6.55804 14.0451 6.75425 13.8728 6.97091C13.4913 7.4451 13.1139 7.9152 12.7283 8.38531C12.675 8.45071 12.6503 8.51203 12.6544 8.59788C12.6873 9.20697 12.716 9.81606 12.7447 10.4251C12.757 10.7113 12.6585 10.8503 12.3796 10.932C12.0924 11.0138 11.8012 11.0915 11.5099 11.165C11.4156 11.1896 11.3786 11.2305 11.3786 11.3327C11.3827 13.3807 11.3827 15.4287 11.3827 17.4726C11.3827 17.7383 11.2884 17.8977 11.071 17.9672C11.0094 17.9877 10.9438 17.9877 10.8782 17.9877C9.58596 17.9959 8.28965 17.9959 6.99333 17.9959ZM11.8053 4.12167C11.8176 3.82735 11.8299 3.53711 11.8463 3.24279C11.8504 3.16512 11.8176 3.1365 11.7478 3.11606C11.2228 2.97707 10.7018 2.834 10.1767 2.69501C10.0044 2.65005 9.88542 2.55603 9.78697 2.40477C9.49981 1.95511 9.20445 1.50953 8.91319 1.05987C8.87627 1.00264 8.83935 0.969937 8.76551 0.998552C8.25683 1.19477 7.74815 1.3869 7.23947 1.58312C7.1082 1.63217 6.98513 1.66487 6.84155 1.61173C6.31236 1.40734 5.78317 1.21112 5.25398 1.00673C5.16783 0.974025 5.12681 0.990377 5.07758 1.06396C4.78632 1.51362 4.49096 1.95511 4.2038 2.40886C4.09714 2.57646 3.95767 2.6664 3.77307 2.70319C3.74845 2.70728 3.72794 2.71545 3.70333 2.71954C3.22336 2.85035 2.7434 2.98116 2.26344 3.10789C2.17729 3.13241 2.14857 3.16512 2.15268 3.25505C2.18139 3.77829 2.2019 4.30154 2.23882 4.82479C2.25113 5.021 2.2019 5.18043 2.07883 5.33168C1.74245 5.73638 1.41427 6.15334 1.07378 6.55804C1.01225 6.63162 1.01225 6.68067 1.07378 6.75834C1.41837 7.1753 1.75476 7.60044 2.09935 8.02149C2.1896 8.13186 2.24703 8.25041 2.23882 8.39348C2.21011 8.94943 2.18549 9.50129 2.15268 10.0572C2.14857 10.1431 2.16908 10.1881 2.25523 10.2126C2.73109 10.3393 3.20285 10.4742 3.67871 10.5927C3.93305 10.6541 4.12586 10.7644 4.26534 11.0015C4.52378 11.4348 4.81093 11.8477 5.08579 12.2688C5.12681 12.3342 5.15963 12.3505 5.24167 12.3219C5.73804 12.1298 6.23442 11.9417 6.73079 11.7537C6.88667 11.6924 7.03436 11.6638 7.19845 11.7292C7.71123 11.9295 8.22401 12.1175 8.73679 12.3178C8.83525 12.3546 8.88037 12.3383 8.9337 12.2524C9.22906 11.7905 9.53263 11.3367 9.83209 10.8748C9.91004 10.7522 10.0167 10.6786 10.1562 10.6459C10.6854 10.5069 11.2105 10.3638 11.7355 10.2248C11.8258 10.2003 11.8586 10.1594 11.8545 10.0613C11.8217 9.51356 11.7971 8.96578 11.7684 8.41801C11.7602 8.27494 11.8053 8.1523 11.8955 8.04193C12.2442 7.6127 12.5888 7.18348 12.9375 6.75425C12.9908 6.68885 12.9908 6.64797 12.9375 6.58256C12.5929 6.1656 12.2565 5.74046 11.9119 5.31942C11.8053 5.19269 11.7519 5.05371 11.7643 4.8861C11.7807 4.63266 11.793 4.37512 11.8053 4.12167ZM10.4926 11.5125C10.4844 11.5125 10.4761 11.5084 10.4638 11.5084C10.4433 11.537 10.4228 11.5616 10.4064 11.5902C10.0823 12.0807 9.75825 12.5754 9.43828 13.0659C9.27419 13.3153 9.09779 13.3725 8.81884 13.2662C8.24452 13.0496 7.67431 12.8288 7.09999 12.6162C7.04666 12.5958 6.97282 12.5958 6.9236 12.6162C6.34108 12.8329 5.76266 13.0536 5.18424 13.2744C4.934 13.3684 4.73299 13.3112 4.58941 13.0904C4.33097 12.6939 4.07253 12.2974 3.80999 11.905C3.72384 11.7741 3.63769 11.6392 3.54744 11.5084C3.53924 11.5125 3.53103 11.5125 3.52283 11.5166C3.51873 11.5493 3.51462 11.5861 3.51462 11.6188C3.51462 13.4175 3.51462 15.2161 3.51462 17.0148C3.51462 17.1047 3.53924 17.1415 3.63769 17.1415C4.573 17.1374 5.51242 17.1374 6.44773 17.1415C6.55029 17.1415 6.5749 17.1047 6.5749 17.0107C6.5708 16.5324 6.5749 16.05 6.5749 15.5718C6.5749 15.0853 6.5749 14.5988 6.5749 14.1124C6.5749 13.9284 6.65285 13.7813 6.82514 13.6995C6.96872 13.6259 7.1164 13.6382 7.25588 13.724C7.40766 13.8222 7.46099 13.9693 7.46099 14.1451C7.46099 15.1017 7.46099 16.0582 7.46099 17.0148C7.46099 17.1129 7.48971 17.1456 7.58816 17.1456C8.51937 17.1415 9.45469 17.1415 10.3859 17.1456C10.4844 17.1456 10.5172 17.117 10.5172 17.0189C10.5131 15.2243 10.5172 13.4297 10.5131 11.6352C10.4967 11.5861 10.4926 11.5493 10.4926 11.5125Z" fill="black"/>
<path d="M7 4L7.67354 6.07295H9.85317L8.08981 7.3541L8.76336 9.42705L7 8.1459L5.23664 9.42705L5.91019 7.3541L4.14683 6.07295H6.32646L7 4Z" stroke="black" stroke-width="0.5"/>
</svg>
