<svg width="20" height="14" viewBox="0 0 20 14" fill="none" xmlns="http://www.w3.org/2000/svg">
<path d="M5.70077 10.9115C5.6669 10.9544 5.64504 10.9745 5.62789 10.9998C5.21743 11.6247 4.59047 12.0757 3.86755 12.2663C2.6191 12.6062 1.53186 12.3138 0.639256 11.3659C0.382074 11.0869 0.18015 10.7616 0.0441865 10.4073C-0.0355562 10.2062 0.101636 9.95929 0.315141 9.95672C0.9235 9.949 1.2802 9.58887 1.55287 9.10527C1.78738 8.68984 1.93872 8.24011 2.06734 7.78266C2.20238 7.29134 2.32457 6.79659 2.44375 6.30099C2.56637 5.79895 2.67612 5.29349 2.80303 4.79274C3.04997 3.81696 3.33079 2.85233 3.82639 1.96616C4.14022 1.40539 4.52736 0.907637 5.06669 0.542792C5.48946 0.259569 5.97708 0.0880338 6.48405 0.0441857C7.31278 -0.0381293 8.10334 0.132932 8.87548 0.411174C9.18673 0.523499 9.48727 0.665407 9.79466 0.78888C9.84215 0.808215 9.8951 0.809437 9.94343 0.79231C10.4678 0.541226 11.0147 0.340261 11.5769 0.192096C12.2525 0.0206064 12.9355 -0.0445606 13.624 0.0973471C14.3473 0.246114 14.9303 0.631968 15.3989 1.19745C15.8388 1.72864 16.1415 2.33657 16.3876 2.97537C16.6359 3.63993 16.8393 4.32042 16.9964 5.01224C17.1529 5.67119 17.3021 6.33185 17.468 6.98866C17.642 7.68362 17.8157 8.37987 18.1484 9.02167C18.2993 9.31278 18.4845 9.57901 18.7636 9.76379C18.9308 9.87527 19.1253 9.93887 19.3261 9.94771C19.6888 9.96572 19.8187 10.214 19.6515 10.5372C19.4731 10.8802 19.2733 11.209 18.9972 11.4843C18.3503 12.1273 17.5661 12.4403 16.656 12.3957C15.5842 12.3434 14.7314 11.8735 14.1162 10.9861C14.1003 10.9634 14.0806 10.9432 14.0489 10.9055C13.6973 11.5511 13.2343 12.0896 12.6658 12.5775C10.1844 14.4073 9.41267 14.3807 7.07355 12.5737C6.51964 12.0913 6.05061 11.5593 5.70077 10.9115ZM18.8626 10.5749C18.7065 10.4952 18.5646 10.4356 18.4339 10.355C18.027 10.1008 17.7634 9.72135 17.5464 9.30549C17.2056 8.65254 17.0062 7.949 16.8262 7.24075C16.6444 6.52564 16.4832 5.80581 16.3117 5.0877C16.1402 4.36959 15.9409 3.65962 15.6609 2.97537C15.438 2.43046 15.1627 1.91642 14.7524 1.48599C14.331 1.04397 13.8191 0.770016 13.2129 0.695847C12.7181 0.635397 12.229 0.695847 11.7492 0.827466C11.1789 0.986718 10.6262 1.20333 10.0995 1.47398C10.0301 1.51327 9.95173 1.53414 9.87195 1.53459C9.79218 1.53504 9.71362 1.51506 9.64375 1.47655C8.93207 1.12457 8.20109 0.824465 7.4071 0.712568C7.02639 0.658977 6.64397 0.654261 6.26755 0.743864C5.6922 0.881056 5.22361 1.19231 4.84719 1.64418C4.35244 2.24011 4.05104 2.93722 3.83068 3.66691C3.60817 4.40302 3.42639 5.15201 3.23261 5.89627C3.03883 6.64054 2.86519 7.38394 2.66198 8.12221C2.52188 8.65432 2.30048 9.16161 2.0056 9.62617C1.74837 10.0253 1.42811 10.3606 0.958656 10.5153C0.928087 10.5315 0.899341 10.5509 0.872911 10.5732C0.973661 10.707 1.06283 10.8399 1.16616 10.9591C1.52141 11.3821 2.02589 11.6522 2.57495 11.7132C2.95199 11.7571 3.33401 11.7246 3.6982 11.6176C4.14879 11.4915 4.55565 11.2832 4.87334 10.9291C5.14386 10.629 5.31149 10.2808 5.29006 9.86197C5.28577 9.77623 5.25576 9.7192 5.17173 9.69048C4.95616 9.61957 4.76867 9.48206 4.63625 9.29777C4.20967 8.72285 4.1265 8.09263 4.36959 7.42424C4.51964 7.01267 4.77473 6.68941 5.20731 6.53721C5.22698 6.52759 5.24443 6.51396 5.25853 6.4972C5.27263 6.48044 5.28308 6.46092 5.2892 6.43989C5.4071 5.98459 5.52028 5.528 5.63218 5.07141C5.66476 4.94279 5.72264 4.82703 5.85897 4.78202C5.92045 4.76471 5.98419 4.75676 6.04804 4.75844C6.74557 4.74901 7.44011 4.71256 8.11192 4.5012C8.60367 4.34601 9.01224 4.08019 9.27976 3.62103C9.37192 3.46446 9.47704 3.31588 9.59402 3.17687C9.76251 2.97494 10.0065 2.98266 10.1698 3.18974C10.2633 3.31104 10.3493 3.43804 10.427 3.57001C10.6015 3.85854 10.8129 4.10763 11.113 4.27741C11.5038 4.49464 11.9355 4.62837 12.3807 4.67012C12.8412 4.71985 13.3059 4.73486 13.7689 4.76101C13.9803 4.77301 14.0768 4.91707 14.1119 5.06112C14.2262 5.51328 14.3369 5.96658 14.4437 6.42103C14.4483 6.45243 14.4619 6.48181 14.483 6.50557C14.504 6.52933 14.5315 6.54644 14.5621 6.55479C14.7951 6.63003 14.9964 6.78091 15.134 6.98352C15.5627 7.59445 15.6206 8.24868 15.3303 8.93207C15.1846 9.27505 14.9561 9.549 14.5972 9.68534C14.4918 9.72564 14.4536 9.78394 14.4549 9.89155C14.46 10.391 14.6851 10.7837 15.0521 11.0993C15.4941 11.4795 16.0197 11.6639 16.5955 11.7192C17.4787 11.8049 18.1904 11.5006 18.7203 10.7846C18.7687 10.7194 18.8116 10.6504 18.8613 10.5749H18.8626ZM14.8365 8.10163C14.831 7.98925 14.8188 7.8773 14.8 7.76637C14.734 7.46626 14.6131 7.17601 14.1668 7.16187C14.0154 7.15715 13.9023 7.04611 13.8628 6.88962C13.7518 6.44718 13.6356 6.00602 13.5314 5.56058C13.5083 5.46154 13.4645 5.43796 13.3728 5.43196C12.7194 5.39981 12.0699 5.34022 11.441 5.14257C10.8279 4.95008 10.3031 4.63368 9.94043 4.08877C9.88341 4.00303 9.85468 4.02703 9.80195 4.09349C9.69621 4.23683 9.58045 4.3725 9.45554 4.49949C8.93464 4.99724 8.27741 5.19702 7.59059 5.30806C7.18287 5.37409 6.76744 5.39381 6.35544 5.43111C6.27698 5.43797 6.23925 5.45855 6.2191 5.54386C6.11235 5.99488 5.99617 6.44418 5.88384 6.89305C5.86805 6.96695 5.82807 7.03347 5.77022 7.08208C5.71236 7.13069 5.63995 7.15862 5.56444 7.16144C5.25019 7.18073 5.06841 7.32907 4.98052 7.63303C4.90287 7.91667 4.8923 8.21449 4.94965 8.50291C5.01481 8.86519 5.22017 9.06283 5.53657 9.08341C5.74236 9.0967 5.8504 9.19359 5.89113 9.40152C5.96693 9.81578 6.1036 10.2165 6.2967 10.5908C6.53661 11.0401 6.84709 11.448 7.21631 11.7989C7.49027 12.0626 8.85618 13.2352 9.81009 13.2352C10.5741 13.2352 11.5327 12.7996 12.5471 11.7831C13.2193 11.1349 13.672 10.361 13.8534 9.4371C13.9066 9.16658 13.9782 9.10784 14.2491 9.08169C14.3368 9.07592 14.4217 9.04876 14.4964 9.00257C14.5712 8.95638 14.6335 8.89257 14.6778 8.81674C14.809 8.60324 14.818 8.36144 14.8352 8.10163H14.8365Z" fill="black"/>
<path d="M9.82983 13.9585C9.02854 13.9585 8.24098 13.5023 7.05941 12.59C6.46434 12.0721 6.01847 11.534 5.69693 10.9497L5.68535 10.963C5.67124 10.9786 5.65807 10.9951 5.64591 11.0123C5.23269 11.6415 4.60145 12.0957 3.87356 12.2877C2.60754 12.6307 1.51558 12.3267 0.624264 11.3792C0.365098 11.0981 0.161446 10.7706 0.0240498 10.4138C0.00311088 10.3586 -0.00431392 10.2992 0.002399 10.2406C0.00911191 10.182 0.0297658 10.1258 0.0626334 10.0768C0.0897092 10.0341 0.126868 9.99879 0.170832 9.97389C0.214797 9.94899 0.264215 9.9353 0.314723 9.93402C0.83348 9.92759 1.2099 9.66821 1.53402 9.09372C1.73552 8.73702 1.89329 8.33059 2.04548 7.77582C2.1741 7.31237 2.289 6.83734 2.40132 6.37818L2.4219 6.29243C2.47507 6.07421 2.52694 5.85171 2.5771 5.63692C2.64227 5.35696 2.70958 5.06757 2.78117 4.78418C3.00454 3.90187 3.28664 2.88236 3.80668 1.9546C4.16724 1.31152 4.56338 0.855782 5.05341 0.52395C5.47966 0.239591 5.97063 0.0670892 6.48106 0.022342C7.21847 -0.0509698 7.9816 0.0652156 8.88192 0.390617C9.0727 0.459213 9.26263 0.540669 9.44569 0.619125C9.56188 0.668857 9.68235 0.720735 9.80153 0.768323C9.84349 0.785531 9.89026 0.786901 9.93315 0.77218C10.5394 0.490508 11.0598 0.300584 11.5704 0.171966C12.3331 -0.0196734 13.0058 -0.0509686 13.6283 0.07722C14.3241 0.220414 14.9256 0.591687 15.4152 1.18461C15.8041 1.65621 16.1192 2.22084 16.4073 2.96854C16.6294 3.54474 16.8228 4.19297 17.0165 5.00798C17.0686 5.22663 17.12 5.44542 17.1709 5.66435C17.2721 6.09737 17.3767 6.54538 17.4868 6.98397L17.489 6.99297C17.6605 7.67293 17.835 8.3756 18.1655 9.01226C18.3464 9.36081 18.5338 9.58718 18.7734 9.74624C18.9379 9.85519 19.129 9.91715 19.3261 9.92544C19.5048 9.93445 19.6382 10 19.7016 10.1107C19.7651 10.2213 19.7557 10.3795 19.6695 10.5462C19.5216 10.8313 19.3136 11.1975 19.0114 11.4984C18.3559 12.1518 17.5627 12.4613 16.6534 12.4163C15.5734 12.364 14.7134 11.8864 14.0973 10.9977C14.0861 10.9827 14.0741 10.9684 14.0613 10.9548L14.0515 10.9437C13.7201 11.5439 13.2708 12.0841 12.6796 12.5947C11.4444 13.5031 10.6303 13.9585 9.82983 13.9585ZM5.70465 10.8716L5.71965 10.8995C6.03991 11.4916 6.48707 12.0331 7.08642 12.5548C8.19768 13.4123 9.0011 13.9113 9.81568 13.9152H9.82554C10.6496 13.9152 11.4868 13.417 12.6521 12.5574C13.248 12.0429 13.6986 11.4989 14.0288 10.8922L14.0438 10.8648L14.0639 10.8888L14.0935 10.9231C14.1074 10.9382 14.1204 10.9541 14.1325 10.9707C14.7404 11.8483 15.5902 12.3194 16.6555 12.3713C17.5516 12.4142 18.334 12.1102 18.9805 11.4658C19.2785 11.1692 19.4843 10.8069 19.6309 10.5227C19.7102 10.3692 19.7222 10.229 19.6643 10.1282C19.6065 10.0275 19.4898 9.9726 19.3239 9.96446C19.1192 9.9557 18.9207 9.89122 18.7499 9.77796C18.5038 9.61462 18.3117 9.38354 18.1274 9.02812C17.7947 8.38504 17.618 7.6815 17.4474 6.9994L17.4453 6.9904C17.3355 6.55138 17.2309 6.10337 17.1293 5.66993C17.0781 5.45099 17.0267 5.2322 16.9749 5.01355C16.7816 4.19897 16.5891 3.55589 16.367 2.97968C16.0811 2.2367 15.7668 1.67336 15.3809 1.20777C14.8973 0.623843 14.3044 0.255998 13.618 0.114948C13.0032 -0.0136694 12.337 0.0193403 11.5803 0.209265C11.0723 0.337882 10.5544 0.527378 9.95116 0.809479C9.89742 0.829221 9.83823 0.828153 9.78524 0.80648C9.66563 0.758463 9.54473 0.707014 9.42811 0.656853C9.24548 0.578397 9.05641 0.497368 8.86649 0.429201C7.97217 0.1068 7.21547 -0.00938264 6.48449 0.0635005C5.98127 0.106305 5.49729 0.276733 5.07828 0.558676C4.59382 0.88665 4.20197 1.33638 3.84484 1.97347C3.32694 2.89865 3.04613 3.91473 2.82319 4.7949C2.75159 5.07786 2.68428 5.36725 2.61955 5.64678C2.56938 5.86114 2.51794 6.0845 2.46435 6.30272L2.44377 6.38847C2.33144 6.84806 2.21526 7.32309 2.08793 7.7874C1.93444 8.34474 1.77539 8.75503 1.57346 9.11644C1.24077 9.70594 0.853201 9.97389 0.317296 9.9786C0.273744 9.97986 0.23117 9.99182 0.193336 10.0134C0.155502 10.035 0.123571 10.0656 0.100361 10.1025C0.0712668 10.1457 0.052969 10.1953 0.0470011 10.2471C0.0410332 10.2989 0.0475698 10.3513 0.0660639 10.4C0.201223 10.7517 0.401672 11.0746 0.656845 11.3518C1.5353 12.2869 2.6144 12.5887 3.8637 12.2483C4.58157 12.059 5.20412 11.611 5.61161 10.9904C5.62483 10.9718 5.63914 10.9541 5.65448 10.9372L5.68578 10.9004L5.70465 10.8716ZM9.80839 13.2596C8.90207 13.2596 7.58846 12.1917 7.19961 11.8174C6.8283 11.4654 6.51631 11.0557 6.2757 10.6041C6.08133 10.2281 5.94393 9.82526 5.86799 9.40883C5.8294 9.21076 5.72908 9.12073 5.53316 9.10873C5.20304 9.08729 4.99296 8.88064 4.92651 8.51065C4.86803 8.21899 4.87875 7.91768 4.95781 7.63091C5.04784 7.31751 5.23948 7.16232 5.56102 7.14259C5.63199 7.14004 5.70006 7.11384 5.75443 7.06817C5.80881 7.02249 5.84636 6.95996 5.86113 6.8905C5.89371 6.7596 5.92658 6.6287 5.95973 6.49779C6.03862 6.18483 6.12051 5.86114 6.19596 5.54131C6.21954 5.44227 6.26885 5.41955 6.35159 5.41269C6.45877 5.40326 6.56595 5.39468 6.67313 5.38654C6.97324 5.36296 7.28406 5.33895 7.58503 5.29008C8.15309 5.19833 8.87677 5.02384 9.4384 4.48708C9.55002 4.37486 9.65346 4.25479 9.74794 4.12781L9.7831 4.08493C9.81354 4.04635 9.83926 4.01676 9.87313 4.01676H9.87527C9.90228 4.01676 9.92715 4.03777 9.9563 4.0815C10.2843 4.57282 10.7709 4.91451 11.447 5.12673C12.0879 5.32823 12.7516 5.38397 13.3732 5.41527C13.4684 5.41998 13.525 5.44442 13.5516 5.55889C13.6245 5.86971 13.7046 6.18483 13.7822 6.48922C13.816 6.62155 13.8495 6.75389 13.883 6.88622C13.9216 7.0397 14.03 7.13788 14.1668 7.14345C14.6238 7.15803 14.7507 7.45085 14.8202 7.7651C14.8359 7.84487 14.8456 7.92569 14.8493 8.0069C14.8515 8.04034 14.854 8.0725 14.857 8.10294L14.854 8.14581C14.8382 8.39104 14.8228 8.62212 14.695 8.83177C14.6489 8.9106 14.5841 8.97689 14.5063 9.02481C14.4286 9.07273 14.3403 9.10081 14.2491 9.10658C13.9829 9.1323 13.9229 9.18589 13.8723 9.44484C13.6973 10.3379 13.2558 11.131 12.5599 11.8028C11.6223 12.7417 10.6448 13.2596 9.80839 13.2596ZM9.87313 4.05749C9.85855 4.05749 9.83626 4.08408 9.81697 4.10894L9.78181 4.15181C9.68617 4.28033 9.58143 4.40183 9.46841 4.51537C8.89821 5.06071 8.16595 5.23691 7.59232 5.32995C7.28964 5.38054 6.97881 5.40326 6.67871 5.42856C6.57152 5.43713 6.46434 5.44528 6.35759 5.45471C6.28599 5.46114 6.2577 5.47657 6.24012 5.55117C6.16424 5.871 6.08278 6.19426 6.00347 6.50808C5.9706 6.6387 5.93773 6.76946 5.90486 6.90036C5.88809 6.97876 5.84561 7.04931 5.78418 7.1008C5.72274 7.1523 5.64585 7.1818 5.56574 7.18461C5.26049 7.20347 5.08642 7.34452 5.00111 7.64163C4.92383 7.92212 4.9134 8.21683 4.97067 8.50208C5.03326 8.8502 5.2279 9.04484 5.53787 9.06499C5.75223 9.07914 5.86927 9.18246 5.91215 9.40026C5.98729 9.81248 6.12325 10.2113 6.31558 10.5835C6.55425 11.0303 6.86348 11.4357 7.23133 11.784C7.61718 12.1552 8.91793 13.2142 9.81054 13.2142C10.6354 13.2142 11.6022 12.6997 12.5321 11.7685C13.2219 11.1031 13.6592 10.3177 13.8324 9.4337C13.8864 9.15803 13.964 9.08857 14.247 9.06114C14.3314 9.05565 14.4132 9.02957 14.4853 8.98518C14.5573 8.94079 14.6174 8.87943 14.6603 8.80647C14.7825 8.60626 14.7975 8.37775 14.8129 8.14024L14.8155 8.09951C14.8125 8.06907 14.8103 8.03691 14.8077 8.0039C14.8041 7.92486 14.7946 7.84619 14.7795 7.76853C14.7139 7.47143 14.5942 7.19447 14.1668 7.18075C14.0103 7.17561 13.8864 7.06542 13.8427 6.89222C13.8095 6.75989 13.7761 6.62755 13.7424 6.49522C13.6648 6.1904 13.5846 5.87529 13.5117 5.56403C13.4907 5.47486 13.4573 5.45771 13.3728 5.45342C12.7482 5.42255 12.0811 5.36768 11.4354 5.16275C10.7494 4.94838 10.256 4.59983 9.92201 4.10037C9.89714 4.0635 9.88299 4.05535 9.87527 4.05492L9.87313 4.05749ZM2.89822 11.757C2.78929 11.757 2.68047 11.7503 2.57238 11.7368C2.01866 11.6744 1.50982 11.4024 1.15031 10.9767C1.07914 10.8939 1.01612 10.8073 0.949664 10.7156C0.919224 10.6727 0.888357 10.6298 0.856202 10.587L0.842483 10.569L0.861347 10.5565C0.875923 10.5467 0.887927 10.5377 0.898216 10.5299C0.914805 10.5157 0.933635 10.5042 0.95395 10.4961C1.35695 10.3632 1.68578 10.0836 1.98975 9.61548C2.28394 9.15308 2.50437 8.64771 2.64312 8.11751C2.76745 7.6665 2.88278 7.20476 2.99425 6.75803C3.06542 6.47378 3.13873 6.18011 3.21376 5.89158C3.25777 5.72266 3.30064 5.5536 3.34237 5.3844C3.48771 4.81719 3.63777 4.2307 3.81011 3.66092C4.06949 2.80348 4.39403 2.15653 4.83048 1.63092C5.22019 1.16189 5.70207 0.855782 6.26241 0.72202C6.60539 0.640134 6.98096 0.629845 7.41011 0.690295C8.26756 0.811195 9.02426 1.14517 9.65319 1.45643C9.72009 1.4936 9.79544 1.51289 9.87197 1.51244C9.94849 1.51199 10.0236 1.49181 10.0901 1.45385C10.6179 1.18237 11.1719 0.965318 11.7437 0.806051C12.2783 0.661571 12.7597 0.618269 13.2155 0.674003C13.8114 0.746886 14.3336 1.01698 14.7683 1.47057C15.1276 1.84742 15.4178 2.32288 15.6811 2.96682C15.9259 3.56703 16.1329 4.23799 16.3327 5.08258C16.3796 5.28265 16.4262 5.48143 16.4725 5.67893C16.5917 6.18997 16.7151 6.71859 16.8463 7.2352C17.0105 7.87828 17.2146 8.62427 17.5649 9.29522C17.7419 9.63477 18.0022 10.0601 18.4446 10.3366C18.5347 10.3904 18.6276 10.4393 18.7229 10.4832C18.7704 10.5064 18.8193 10.5299 18.8699 10.5557L18.8913 10.5668L18.8781 10.587L18.8313 10.6577C18.7996 10.7066 18.7692 10.7525 18.7361 10.797C18.2088 11.5092 17.4877 11.826 16.5925 11.7402C15.9649 11.6798 15.4564 11.4753 15.0375 11.1152C14.641 10.7722 14.4373 10.3623 14.433 9.89115C14.433 9.77325 14.4759 9.70765 14.5891 9.66478C14.9149 9.54045 15.1507 9.29779 15.3098 8.92309C15.5987 8.24227 15.5336 7.59404 15.1156 6.99383C14.9811 6.79438 14.7836 6.64572 14.5548 6.57153C14.5208 6.5619 14.4902 6.54274 14.4668 6.5163C14.4433 6.48986 14.4279 6.45726 14.4223 6.42234C14.3087 5.93917 14.2002 5.49415 14.0905 5.06285C14.0592 4.94067 13.9777 4.7919 13.7659 4.78032C13.6533 4.77403 13.5406 4.76818 13.4277 4.76275C13.0826 4.7456 12.7254 4.72759 12.3765 4.68943C11.8899 4.6367 11.4723 4.50766 11.0993 4.29458C10.8292 4.14024 10.6092 3.91302 10.4077 3.57947C10.3298 3.44827 10.2439 3.32198 10.1505 3.20133C10.1193 3.15717 10.0785 3.1206 10.0313 3.09433C9.98398 3.06806 9.93141 3.05276 9.87742 3.04956C9.82486 3.0506 9.77325 3.06371 9.72657 3.08787C9.67988 3.11203 9.63938 3.14659 9.60818 3.1889C9.4929 3.32804 9.3895 3.47662 9.29907 3.63306C9.05084 4.06178 8.66499 4.35074 8.11879 4.52266C7.41354 4.74517 6.68042 4.77261 6.04848 4.7799C5.98681 4.77832 5.92525 4.78598 5.86584 4.80262C5.75695 4.83863 5.69135 4.92309 5.65148 5.077L5.60689 5.27464C5.51086 5.66049 5.41183 6.05664 5.31065 6.44678C5.3036 6.47121 5.29142 6.49386 5.27494 6.51323C5.25845 6.5326 5.23803 6.54823 5.21504 6.5591C4.82447 6.69672 4.55438 6.98268 4.3906 7.43327C4.14795 8.10036 4.23627 8.72373 4.65427 9.28707C4.78382 9.46811 4.9676 9.60324 5.17903 9.67292C5.26477 9.70079 5.30765 9.76081 5.31236 9.86199C5.33251 10.2508 5.19446 10.605 4.8905 10.9445C4.59854 11.2704 4.21097 11.4976 3.7055 11.6395C3.44309 11.7156 3.17143 11.7551 2.89822 11.757ZM0.90379 10.5792C0.931228 10.6161 0.95781 10.6526 0.98439 10.689C1.05041 10.7799 1.11301 10.8661 1.18289 10.9462C1.53537 11.3643 2.03457 11.6316 2.57796 11.6931C2.95213 11.737 3.33133 11.7046 3.69264 11.5979C4.18996 11.4586 4.5711 11.2356 4.85749 10.9158C5.15373 10.5848 5.28621 10.241 5.26863 9.86414C5.26434 9.78054 5.23348 9.73552 5.16488 9.71366C4.94509 9.64144 4.75397 9.5012 4.61912 9.31322C4.19039 8.73787 4.10164 8.10079 4.34988 7.41955C4.51879 6.9561 4.79704 6.66157 5.20047 6.51923C5.21677 6.51079 5.23121 6.49915 5.24292 6.48501C5.25463 6.47086 5.26338 6.45451 5.26863 6.43691C5.36981 6.04677 5.46885 5.64935 5.56445 5.26521L5.61333 5.06886C5.63948 4.96382 5.69307 4.81762 5.85427 4.76446C5.91782 4.74641 5.98372 4.73802 6.04977 4.7396C6.67871 4.73102 7.40797 4.70358 8.10764 4.48236C8.64312 4.31344 9.02126 4.02877 9.2652 3.61205C9.35673 3.4535 9.46142 3.30291 9.57817 3.16189C9.61372 3.11497 9.6594 3.07669 9.71181 3.04989C9.76422 3.02309 9.822 3.00847 9.88085 3.00712C9.9413 3.01026 10.0003 3.027 10.0533 3.0561C10.1064 3.0852 10.1522 3.1259 10.1874 3.17518C10.2809 3.29741 10.3668 3.42527 10.4446 3.55803C10.6427 3.88515 10.8575 4.10765 11.1207 4.25814C11.4886 4.46821 11.9006 4.59554 12.3812 4.64785C12.7293 4.68558 13.0856 4.70358 13.4298 4.72073C13.5426 4.72631 13.6553 4.73188 13.7685 4.73831C14.0189 4.75246 14.1038 4.94152 14.1321 5.05342C14.2418 5.48515 14.3503 5.93016 14.4639 6.41376C14.4676 6.4416 14.4794 6.46771 14.498 6.48878C14.5165 6.50985 14.5409 6.52493 14.5681 6.53209C14.806 6.60901 15.0113 6.76342 15.1512 6.97068C15.5799 7.58204 15.645 8.24442 15.3497 8.93981C15.188 9.32051 14.9372 9.57818 14.6045 9.70508C14.5085 9.74152 14.4759 9.79083 14.4759 9.89115C14.4806 10.3559 14.6736 10.7456 15.0658 11.083C15.4778 11.4371 15.9786 11.6403 16.5972 11.6978C17.4766 11.7835 18.1835 11.471 18.7027 10.7717C18.7349 10.7289 18.7649 10.6826 18.7962 10.6346L18.8296 10.5835C18.7867 10.5621 18.7439 10.5407 18.7048 10.5227C18.6082 10.4782 18.514 10.4285 18.4228 10.3739C17.9713 10.0922 17.7072 9.66049 17.5276 9.3158C17.1756 8.64056 16.9702 7.89372 16.8056 7.24635C16.674 6.72888 16.5505 6.20026 16.4313 5.68922C16.385 5.48915 16.3384 5.29036 16.2916 5.09286C16.0926 4.25085 15.886 3.58032 15.642 2.98354C15.3818 2.34474 15.0941 1.87357 14.7387 1.50187C14.31 1.05342 13.7955 0.789757 13.212 0.718161C12.7619 0.663284 12.286 0.70573 11.7569 0.848924C11.1881 1.00692 10.6367 1.22239 10.1115 1.49201C10.039 1.53268 9.95742 1.55425 9.87432 1.5547C9.79122 1.55515 9.70938 1.53447 9.63647 1.49458C9.01054 1.18504 8.25641 0.851495 7.40711 0.732738C6.9831 0.673146 6.61311 0.683008 6.2757 0.763608C5.72436 0.895226 5.25062 1.19619 4.86692 1.65793C4.43391 2.17925 4.11236 2.81977 3.85427 3.67293C3.68278 4.24185 3.5323 4.82791 3.38696 5.39468C3.34352 5.56389 3.30064 5.73295 3.25834 5.90187C3.18332 6.18997 3.11 6.48365 3.03884 6.76789C2.92737 7.21462 2.81161 7.67678 2.68771 8.12823C2.54773 8.66269 2.32542 9.17211 2.02876 9.6382C1.71922 10.1149 1.3831 10.4 0.970671 10.5359C0.955095 10.5429 0.940645 10.5522 0.927799 10.5634L0.90379 10.5792Z" fill="black"/>
<path d="M8.22823 6.46625C8.40444 6.4894 8.67111 6.49926 8.92363 6.56442C9.24302 6.64717 9.43381 7.07889 9.31848 7.38243C9.2606 7.53506 9.12555 7.6118 8.95063 7.59122C8.87919 7.58268 8.81283 7.54989 8.76265 7.49831C8.71248 7.44673 8.68153 7.37949 8.67497 7.30783C8.66853 7.20966 8.6188 7.17107 8.53434 7.17021C8.27368 7.16678 8.01301 7.16764 7.75278 7.17021C7.66703 7.17021 7.61945 7.21309 7.60573 7.30526C7.57657 7.50162 7.44067 7.60537 7.24774 7.59422C7.06939 7.5835 6.94763 7.45231 6.94035 7.25982C6.92148 6.83109 7.13756 6.567 7.56414 6.51341C7.75492 6.48897 7.94785 6.48511 8.22823 6.46625Z" fill="black"/>
<path d="M7.27903 7.61673H7.24859C7.05867 7.60516 6.93005 7.46582 6.92105 7.26175C6.90176 6.82059 7.13027 6.54792 7.56414 6.49348C7.69275 6.47761 7.82137 6.47033 7.97357 6.46218C8.05117 6.45789 8.13563 6.45318 8.2308 6.44717H8.23509C8.28439 6.4536 8.34184 6.45918 8.40229 6.46518C8.5809 6.47817 8.75822 6.50512 8.93262 6.54578C9.0113 6.56957 9.08414 6.60955 9.14646 6.66315C9.20877 6.71675 9.25919 6.78279 9.29447 6.85703C9.33887 6.93811 9.36606 7.02748 9.37432 7.11955C9.38258 7.21162 9.37175 7.3044 9.34248 7.39208C9.28161 7.55286 9.13584 7.63603 8.95192 7.61459C8.87536 7.60569 8.80424 7.57061 8.75057 7.5153C8.6969 7.45999 8.66398 7.38784 8.65738 7.31105C8.65224 7.2296 8.61451 7.19444 8.53777 7.19358C8.31226 7.19058 8.06403 7.19058 7.75663 7.19358C7.68032 7.19358 7.64259 7.22917 7.63059 7.31063C7.59886 7.50398 7.46896 7.61673 7.27903 7.61673ZM8.13648 7.14514C8.28053 7.14514 8.41172 7.14514 8.53605 7.14728C8.6368 7.14728 8.69082 7.20173 8.69768 7.30505C8.70359 7.37192 8.73241 7.4347 8.77929 7.48275C8.82617 7.5308 8.88822 7.56117 8.95492 7.56872C9.11998 7.58801 9.24602 7.51684 9.30004 7.37365C9.32718 7.29165 9.33711 7.20493 9.32922 7.11892C9.32132 7.03291 9.29578 6.94945 9.25417 6.87376C9.22166 6.80489 9.17512 6.74357 9.11754 6.69373C9.05995 6.6439 8.99259 6.60665 8.91976 6.58437C8.74671 6.5448 8.57082 6.51886 8.39372 6.50677C8.33327 6.50119 8.27668 6.49562 8.22694 6.48919C8.13348 6.49562 8.04988 6.49991 7.97271 6.5042C7.82223 6.51234 7.69233 6.51963 7.56628 6.53549C7.1517 6.58737 6.94249 6.83774 6.96092 7.25961C6.96864 7.4401 7.08139 7.56357 7.24817 7.57343C7.43295 7.58458 7.55642 7.48769 7.58386 7.30248C7.59929 7.20001 7.65417 7.14985 7.75192 7.149C7.89211 7.14771 8.01858 7.14728 8.13648 7.14728V7.14514Z" fill="black"/>
<path d="M12.8025 7.22665C12.8064 7.42686 12.6919 7.57391 12.5174 7.59278C12.3095 7.6155 12.1745 7.51346 12.1354 7.29653C12.1213 7.21421 12.0793 7.17305 12.0021 7.1722C11.7346 7.16962 11.4666 7.1692 11.1991 7.1722C11.1258 7.1722 11.0774 7.2065 11.0705 7.2961C11.0542 7.48259 10.9067 7.60178 10.7189 7.59621C10.6337 7.5953 10.5522 7.5608 10.4923 7.5002C10.4323 7.43959 10.3987 7.35777 10.3987 7.27252C10.3987 6.88667 10.5397 6.57327 11.0139 6.51582C11.4253 6.46486 11.8416 6.46716 12.2525 6.52268C12.5916 6.5677 12.7948 6.83179 12.8025 7.22665Z" fill="black"/>
<path d="M12.4626 7.61721C12.2731 7.61721 12.1505 7.50617 12.1145 7.29996C12.1016 7.22664 12.0669 7.19406 12.0017 7.1932C11.693 7.1902 11.4379 7.19063 11.1991 7.1932C11.1297 7.1932 11.0971 7.22536 11.0907 7.29781C11.0739 7.49288 10.9192 7.62321 10.7168 7.61593C10.6264 7.6148 10.54 7.57824 10.4763 7.5141C10.4126 7.44996 10.3765 7.36337 10.376 7.27295C10.376 6.80135 10.5822 6.54669 11.0101 6.49481C11.4231 6.44383 11.8409 6.44613 12.2534 6.50167C12.6019 6.54926 12.815 6.82064 12.8231 7.2275C12.8274 7.43929 12.7052 7.59535 12.5192 7.61335C12.5004 7.61562 12.4815 7.61691 12.4626 7.61721ZM11.6008 7.14819C11.7256 7.14819 11.8581 7.14819 12.0021 7.14819C12.0879 7.14819 12.1402 7.19706 12.1565 7.29053C12.1921 7.4946 12.3164 7.59063 12.5153 7.5692C12.6782 7.55162 12.785 7.41314 12.7811 7.22622C12.7734 6.84037 12.5745 6.58656 12.2486 6.54026C11.8396 6.48523 11.4252 6.48292 11.0156 6.5334C10.6135 6.58227 10.4184 6.82322 10.4193 7.26909C10.4221 7.34872 10.455 7.42431 10.5113 7.48069C10.5676 7.53708 10.6432 7.57007 10.7228 7.57306C10.8024 7.57604 10.8802 7.5488 10.9406 7.49679C11.0009 7.44478 11.0394 7.37186 11.0482 7.29267C11.0564 7.19878 11.107 7.15033 11.1987 7.14904C11.326 7.14947 11.4585 7.14862 11.6008 7.14862V7.14819Z" fill="black"/>
</svg>
