<svg width="15" height="15" viewBox="0 0 15 15" fill="none" xmlns="http://www.w3.org/2000/svg">
<path d="M11.2984 9.3067C11.2984 9.34744 11.2947 9.37336 11.2984 9.39929C11.3321 9.69556 11.3657 9.98813 11.3993 10.2844C11.433 10.5807 11.4704 10.8732 11.504 11.1695C11.5488 11.551 11.5899 11.9324 11.6348 12.3139C11.6796 12.7064 11.7245 13.0953 11.7693 13.4879C11.7843 13.6212 11.803 13.7508 11.8179 13.8841C11.8478 14.1212 11.8067 14.21 11.5974 14.3285C11.3844 14.4508 11.1527 14.5248 10.9173 14.5841C10.5211 14.6841 10.1138 14.7433 9.70644 14.7767C9.32152 14.81 8.93286 14.8359 8.5442 14.8433C7.84537 14.8544 7.15027 14.8544 6.45143 14.8433C5.83481 14.8359 5.21819 14.7915 4.60905 14.6952C4.24655 14.6396 3.88779 14.5619 3.54771 14.41C3.46923 14.373 3.39075 14.3322 3.31601 14.2878C3.2039 14.2211 3.14784 14.1212 3.15905 13.9915C3.18148 13.7767 3.20764 13.5656 3.23006 13.3508C3.26369 13.0435 3.30106 12.7361 3.3347 12.4287C3.36833 12.1472 3.40196 11.8621 3.43186 11.5806C3.46549 11.2843 3.50287 10.9844 3.5365 10.6881C3.58134 10.2992 3.62619 9.91036 3.67103 9.5215C3.67851 9.45854 3.68225 9.39188 3.68972 9.32892C3.68225 9.32892 3.67477 9.32522 3.6673 9.32522C3.64488 9.38447 3.61872 9.44743 3.60003 9.50669C3.40944 10.0437 3.21511 10.5807 3.02452 11.114C2.86756 11.5584 2.70686 11.9991 2.54991 12.4435C2.48264 12.6361 2.35184 12.7064 2.13509 12.6694C1.63806 12.5805 1.14102 12.4953 0.647725 12.4102C0.509453 12.3842 0.374917 12.362 0.240382 12.3324C0.0535273 12.2917 -0.0399001 12.1028 0.0161564 11.9213C0.0871611 11.6991 0.143218 11.4695 0.203011 11.2436C0.296438 10.9066 0.386129 10.5696 0.479556 10.2326C0.561772 9.92888 0.647725 9.62149 0.729941 9.31781C0.812157 9.01783 0.894374 8.71786 0.97659 8.41788C1.05881 8.1142 1.14476 7.80681 1.22697 7.50313C1.30919 7.19945 1.39514 6.89577 1.4811 6.58839C1.57452 6.25508 1.66421 5.91807 1.75391 5.58476C1.83612 5.28108 1.92207 4.9811 2.00429 4.67742C2.08651 4.37745 2.16872 4.07747 2.25094 3.77749C2.33315 3.47751 2.41537 3.17754 2.49759 2.87756C2.5798 2.57388 2.66576 2.2702 2.74797 1.96281C2.78161 1.8369 2.84887 1.74802 2.97967 1.70728C3.65609 1.48878 4.32876 1.26657 5.00144 1.04066C5.05376 1.02214 5.10608 0.988814 5.14345 0.948076C5.39757 0.69254 5.64422 0.4333 5.89834 0.181467C6.01046 0.0703645 6.15246 0.00370331 6.3169 0.00370331C7.09421 -1.12854e-07 7.87153 -0.00370331 8.64884 0.00740696C8.82449 0.00740696 8.98145 0.0740688 9.11224 0.214799C9.35515 0.477742 9.60554 0.729575 9.8634 0.974C9.93441 1.04066 10.0465 1.06659 10.1437 1.09992C10.7678 1.30731 11.3919 1.511 12.0122 1.71468C12.1243 1.75172 12.1916 1.82949 12.2215 1.94059C12.3523 2.41833 12.4794 2.89608 12.6102 3.37011C12.7223 3.77749 12.8381 4.18487 12.9465 4.59224C13.0586 5.00332 13.167 5.4107 13.2791 5.82178C13.38 6.19583 13.4846 6.56617 13.5893 6.93651C13.6902 7.31056 13.7911 7.6846 13.8957 8.06235C13.9966 8.43269 14.1013 8.80674 14.2059 9.17708C14.318 9.58816 14.4301 9.99554 14.5422 10.4066C14.6431 10.7807 14.7478 11.1547 14.8524 11.5288C14.8935 11.6695 14.9346 11.8102 14.972 11.9546C15.0169 12.1176 14.9122 12.2991 14.7403 12.3324C14.4787 12.3842 14.2171 12.4287 13.9555 12.4731C13.7051 12.5176 13.4585 12.562 13.2081 12.6027C13.0773 12.625 12.9465 12.6509 12.812 12.6731C12.599 12.7101 12.4719 12.5916 12.4196 12.4361C12.214 11.8398 11.9973 11.2436 11.7843 10.651C11.6273 10.214 11.4704 9.78074 11.3134 9.34373C11.3209 9.33262 11.3171 9.32892 11.2984 9.3067ZM4.66136 1.80727C4.54178 1.8443 4.44088 1.87764 4.33624 1.91097C4.01858 2.01466 3.70467 2.11836 3.38702 2.22576C3.35338 2.23687 3.31601 2.2776 3.3048 2.31094C3.26743 2.42204 3.24127 2.53684 3.20763 2.65165C3.11421 2.99607 3.01704 3.34049 2.92362 3.68491C2.83019 4.02192 2.73676 4.35893 2.64333 4.69594C2.56112 4.99962 2.4789 5.2996 2.39669 5.60328C2.30326 5.94029 2.20983 6.2773 2.12014 6.61431C2.03792 6.91429 1.95571 7.21427 1.87349 7.51424C1.78006 7.85125 1.69037 8.18827 1.59695 8.52528C1.50352 8.86229 1.41009 9.1993 1.3204 9.53631C1.22697 9.87333 1.13728 10.2103 1.04386 10.5473C0.939219 10.9288 0.83458 11.3103 0.729941 11.6917C0.707519 11.7806 0.711256 11.7806 0.800946 11.7954C1.05507 11.8398 1.30919 11.8843 1.56331 11.9287C1.69411 11.9509 1.82865 11.9732 1.95945 11.9991C2.02671 12.0139 2.06035 11.988 2.0753 11.925C2.09024 11.8769 2.10893 11.8287 2.12388 11.7806C2.28457 11.3325 2.44527 10.8844 2.60596 10.4399C2.76666 9.99183 2.92735 9.54002 3.08805 9.0919C3.26743 8.58453 3.45055 8.08087 3.63366 7.5735C3.77194 7.18834 3.90647 6.80689 4.04474 6.42173C4.08959 6.29582 4.21291 6.21434 4.34371 6.22175C4.48572 6.22545 4.60531 6.31063 4.63147 6.44395C4.65015 6.53654 4.63521 6.63283 4.62773 6.72912C4.5941 7.04021 4.55673 7.34759 4.52309 7.65868C4.48198 8.02532 4.43714 8.39195 4.39603 8.75859C4.35119 9.13634 4.31008 9.51039 4.26897 9.88814C4.22412 10.277 4.17928 10.6659 4.13443 11.0547C4.1008 11.3584 4.06343 11.6584 4.0298 11.9621C3.99616 12.2472 3.96253 12.5324 3.93263 12.8175C3.899 13.1064 3.8691 13.399 3.83173 13.6878C3.80931 13.8804 3.78315 13.8471 3.97748 13.9175C4.3325 14.0471 4.70995 14.1026 5.08366 14.1434C5.74512 14.2137 6.41032 14.2323 7.07553 14.2248C7.18017 14.2248 7.18017 14.2211 7.18017 14.1174C7.18017 13.2249 7.18017 12.3287 7.18017 11.4362C7.18017 9.49187 7.18017 7.55128 7.18017 5.60698C7.18017 5.55143 7.16148 5.5218 7.10916 5.49958C6.59344 5.27738 6.11883 4.99221 5.71523 4.60335C4.94165 3.85897 4.5941 2.95533 4.66884 1.89245C4.6651 1.87023 4.66136 1.84801 4.66136 1.80727ZM10.3343 1.80727C10.3268 1.82579 10.3231 1.83319 10.3231 1.8369C10.3231 1.85541 10.3268 1.87393 10.3268 1.89615C10.353 2.30723 10.3268 2.71831 10.2072 3.11458C10.0428 3.67009 9.74381 4.14783 9.33273 4.55521C8.91791 4.96629 8.42836 5.26997 7.89021 5.49958C7.82668 5.52921 7.81174 5.56254 7.81174 5.6255C7.81174 8.45862 7.81174 11.2954 7.81174 14.1286C7.81174 14.1989 7.83042 14.2248 7.90516 14.2248C8.81328 14.2248 9.71765 14.2137 10.6108 14.0286C10.7827 13.9915 10.9509 13.9286 11.1191 13.8767C11.1676 13.8619 11.1826 13.8323 11.1751 13.7804C11.1639 13.7101 11.1564 13.6434 11.149 13.573C11.1153 13.2842 11.0817 12.999 11.0481 12.7101C11.0144 12.4102 10.9771 12.1102 10.9434 11.8102C10.9098 11.5251 10.8799 11.2399 10.8463 10.9547C10.8014 10.5622 10.7566 10.1733 10.708 9.78074C10.6743 9.49187 10.6407 9.20671 10.6071 8.91784C10.5734 8.61416 10.5361 8.31418 10.5024 8.0105C10.4688 7.71423 10.4314 7.41425 10.3978 7.11798C10.3754 6.9291 10.3492 6.74393 10.3343 6.55506C10.3193 6.41062 10.4202 6.26619 10.551 6.22916C10.7042 6.18842 10.85 6.24397 10.921 6.3847C10.9584 6.45877 10.9808 6.54024 11.0107 6.62172C11.2013 7.15131 11.3919 7.6846 11.5825 8.21419C11.803 8.82896 12.0197 9.44003 12.2365 10.0548C12.4569 10.6696 12.6774 11.2806 12.8979 11.8954C12.939 12.0139 12.939 12.0139 13.0624 11.9917C13.4398 11.925 13.821 11.8584 14.1984 11.7917C14.2545 11.7806 14.2732 11.7658 14.2545 11.7065C14.105 11.1732 13.9593 10.6436 13.8135 10.1103C13.6715 9.59187 13.5332 9.07338 13.3912 8.5549C13.2417 8.0031 13.0848 7.45499 12.9353 6.90318C12.8045 6.42173 12.6737 5.94029 12.5429 5.45884C12.4121 4.9811 12.2776 4.49966 12.1468 4.02192C11.9898 3.45159 11.8328 2.88126 11.6759 2.31464C11.6647 2.28131 11.631 2.24057 11.5974 2.22576C11.2835 2.11836 10.9658 2.01466 10.6519 1.91097C10.5473 1.87764 10.4426 1.8443 10.3343 1.80727ZM7.41934 0.614768C7.13532 0.614768 6.85504 0.614768 6.57102 0.614768C6.51123 0.614768 6.45517 0.611065 6.39538 0.618472C6.29821 0.625879 6.2571 0.699947 6.29074 0.788829C6.32437 0.870305 6.35053 0.951779 6.37669 1.03325C6.48507 1.38878 6.58223 1.74802 6.70555 2.09614C6.86251 2.53684 7.09795 2.93681 7.43055 3.27382C7.4754 3.31827 7.50903 3.32567 7.5464 3.27382C7.66225 3.11828 7.79679 2.97755 7.89395 2.8109C8.27887 2.1665 8.42836 1.45174 8.48441 0.711057C8.49189 0.618472 8.48815 0.618472 8.39472 0.618472C8.07333 0.614768 7.7482 0.614768 7.41934 0.614768ZM7.82295 4.84778C7.85284 4.83667 7.87527 4.82926 7.89021 4.81815C8.12191 4.68113 8.36856 4.56262 8.58158 4.39967C9.50464 3.69602 9.84845 2.76646 9.6616 1.63321C9.65786 1.60729 9.63544 1.58507 9.61301 1.56655C9.56817 1.52951 9.51959 1.49989 9.47848 1.45915C9.34021 1.32212 9.20567 1.1851 9.0674 1.04437C9.04871 1.02585 9.02629 1.01103 8.99639 0.98511C8.99266 1.01103 8.98892 1.02214 8.98892 1.03325C8.95902 1.53322 8.86559 2.01837 8.69743 2.4924C8.51805 2.99237 8.26392 3.45159 7.87153 3.82564C7.84537 3.85156 7.81921 3.8997 7.81921 3.93674C7.81547 4.2182 7.81547 4.50336 7.81547 4.78482C7.81547 4.79964 7.81921 4.81815 7.82295 4.84778ZM5.89834 1.0814C5.86471 1.11103 5.83855 1.13325 5.81613 1.15547C5.66291 1.2962 5.50969 1.43693 5.3602 1.57766C5.34899 1.58877 5.33778 1.60358 5.33404 1.6184C5.32283 1.67395 5.31162 1.72579 5.30414 1.78135C5.25556 2.13317 5.27425 2.485 5.35646 2.82941C5.44615 3.20716 5.60685 3.55158 5.84976 3.85897C6.16741 4.25894 6.57476 4.5478 7.02695 4.77741C7.07179 4.79963 7.11664 4.81815 7.16522 4.84037C7.16895 4.81445 7.17269 4.80334 7.17269 4.79223C7.17269 4.49966 7.17269 4.20709 7.16895 3.91452C7.16895 3.88119 7.1428 3.84045 7.11664 3.81823C6.78403 3.51084 6.54112 3.1405 6.35427 2.73313C6.14499 2.27761 6.01046 1.80357 5.93571 1.30731C5.92824 1.24435 5.91329 1.17028 5.89834 1.0814Z" fill="black"/>
</svg>
