<svg width="17" height="18" viewBox="0 0 17 18" fill="none" xmlns="http://www.w3.org/2000/svg">
<path d="M15.6261 13.3398C15.6427 13.9085 15.2064 14.4606 14.6787 14.5685C14.4502 14.6183 14.2133 14.6515 13.9807 14.6598C13.5402 14.6847 13.0998 14.6889 12.6593 14.6972C12.5928 14.6972 12.5554 14.7179 12.5305 14.7843C12.3934 15.1787 12.2563 15.5771 12.1067 15.9673C12.0111 16.2164 11.9072 16.4654 11.7618 16.6896C11.4294 17.2001 10.7937 17.3703 10.2327 17.1337C9.8546 16.976 9.5305 16.7311 9.19394 16.5028C8.99034 16.3617 8.78258 16.2205 8.58313 16.0752C8.51665 16.0254 8.46679 16.0296 8.40031 16.0794C7.99726 16.3575 7.59421 16.6315 7.18701 16.9013C6.99171 17.0299 6.78811 17.1379 6.55958 17.196C6.09005 17.3205 5.57066 17.142 5.27149 16.756C5.08866 16.5194 4.98063 16.2454 4.8809 15.9673C4.73547 15.5688 4.5942 15.1662 4.45293 14.7677C4.43215 14.7138 4.40306 14.6972 4.34905 14.6972C3.99586 14.6889 3.64267 14.6806 3.28533 14.6681C2.96954 14.6556 2.65791 14.6432 2.34627 14.5726C1.83103 14.4606 1.41136 13.9749 1.38643 13.4477C1.36981 13.1655 1.42799 12.8915 1.50693 12.6217C1.62743 12.1942 1.75624 11.7708 1.88505 11.3432C1.90998 11.2644 1.89336 11.2104 1.82688 11.1565C1.4363 10.8576 1.04987 10.5629 0.667596 10.2557C0.455684 10.0855 0.260393 9.89459 0.135739 9.64969C-0.101104 9.18479 -0.0221577 8.64933 0.326874 8.25499C0.572027 7.97688 0.871197 7.76104 1.16206 7.53689C1.38643 7.36256 1.61081 7.18822 1.83934 7.01803C1.90167 6.97237 1.91414 6.92671 1.89336 6.85615C1.79779 6.53653 1.70223 6.21692 1.61081 5.8973C1.50693 5.54032 1.39474 5.18749 1.39474 4.81391C1.39474 4.29506 1.7604 3.80525 2.25901 3.64752C2.56649 3.55205 2.88644 3.5396 3.20223 3.52714C3.57204 3.51054 3.94184 3.50639 4.31581 3.50224C4.41137 3.50224 4.45708 3.46488 4.48617 3.37356C4.65653 2.89206 4.83104 2.40641 5.01387 1.92906C5.10528 1.69246 5.22163 1.46831 5.41276 1.29812C5.79919 0.953601 6.24379 0.870584 6.72994 1.04907C7.09559 1.1819 7.40723 1.4185 7.72717 1.63849C7.95986 1.79623 8.19255 1.95812 8.42108 2.12C8.48341 2.16566 8.53743 2.16151 8.59975 2.12C8.99449 1.85019 9.38923 1.58038 9.78812 1.31473C10.0042 1.16945 10.2327 1.04492 10.4903 0.990958C11.0056 0.878884 11.5333 1.10718 11.8117 1.55548C11.9862 1.83774 12.0942 2.1532 12.2064 2.46452C12.3228 2.78829 12.4349 3.10791 12.5471 3.43168C12.5679 3.49394 12.6178 3.51054 12.6759 3.51054C12.9793 3.51885 13.2867 3.51885 13.5901 3.5313C13.8726 3.54375 14.1593 3.5562 14.4419 3.58526C14.9696 3.64752 15.3518 3.92148 15.5471 4.42374C15.6427 4.67279 15.6427 4.93845 15.5804 5.19165C15.4682 5.63994 15.3352 6.08408 15.2106 6.53238C15.1773 6.65275 15.1441 6.77313 15.1067 6.88935C15.0859 6.95162 15.115 6.98483 15.1607 7.02218C15.5513 7.32105 15.9419 7.62406 16.3242 7.92707C16.5319 8.09311 16.723 8.2799 16.8519 8.5165C17.0929 8.96064 17.0471 9.56252 16.6607 9.9527C16.4239 10.1893 16.1579 10.401 15.8962 10.6127C15.6552 10.8078 15.4059 10.9904 15.1566 11.1772C15.0942 11.2229 15.0859 11.2727 15.1067 11.3432C15.2438 11.8123 15.3851 12.2772 15.5139 12.7504C15.5721 12.9455 15.5928 13.1447 15.6261 13.3398ZM14.928 4.86373C14.9197 4.86373 14.9156 4.85958 14.9073 4.85958C14.928 4.58977 14.7327 4.35317 14.4543 4.31581C14.205 4.2826 13.9557 4.26185 13.7023 4.2494C13.2909 4.22864 12.8795 4.22449 12.4682 4.19959C12.2313 4.18714 12.0444 4.05846 11.9529 3.83431C11.7867 3.40677 11.6413 2.97508 11.4751 2.54754C11.392 2.32754 11.2964 2.10755 11.1801 1.9C11.0679 1.69661 10.8435 1.62189 10.6192 1.68831C10.5028 1.72151 10.3865 1.77547 10.2826 1.84189C9.79643 2.15735 9.31444 2.48527 8.82829 2.79659C8.61637 2.93357 8.392 2.93357 8.18008 2.80074C7.91416 2.63055 7.65238 2.44377 7.38645 2.26943C7.11221 2.09094 6.83798 1.90415 6.55543 1.74227C6.29365 1.59283 6.03188 1.6385 5.86983 1.83359C5.79919 1.91661 5.74102 2.01622 5.69947 2.11584C5.49587 2.64716 5.29226 3.17847 5.09697 3.70978C4.98894 4.00865 4.79365 4.17883 4.46539 4.19128C3.97924 4.20789 3.49309 4.22449 3.00694 4.24525C2.83658 4.25355 2.66622 4.27845 2.49586 4.30751C2.28394 4.34902 2.11774 4.51505 2.10527 4.7226C2.09281 4.88448 2.11358 5.05467 2.15098 5.2124C2.2881 5.73956 2.43768 6.25842 2.59142 6.78143C2.66206 7.03464 2.59142 7.29614 2.38367 7.45803C1.98893 7.76934 1.59419 8.07236 1.20361 8.38782C1.05818 8.5082 0.912749 8.63688 0.79225 8.78216C0.64682 8.95649 0.65513 9.2014 0.79225 9.38403C0.875352 9.49196 0.975076 9.59158 1.08311 9.67875C1.51109 10.0274 1.95153 10.3636 2.38367 10.7123C2.58311 10.87 2.65375 11.0859 2.59973 11.3266C2.53325 11.6172 2.43768 11.9036 2.35874 12.1942C2.26732 12.5345 2.17175 12.8749 2.09281 13.2194C2.02217 13.5308 2.19669 13.8006 2.50832 13.867C2.65791 13.9002 2.8158 13.9209 2.96954 13.9251C3.48893 13.95 4.00833 13.9666 4.52772 13.9915C4.76456 14.004 4.94739 14.1285 5.03465 14.3485C5.18839 14.7304 5.31719 15.1205 5.46678 15.5024C5.55819 15.7432 5.65376 15.9881 5.76595 16.2205C5.88229 16.4571 6.10252 16.5692 6.33105 16.5111C6.46817 16.4779 6.60944 16.4115 6.72994 16.3326C7.21194 16.0213 7.68147 15.7017 8.16346 15.3904C8.37538 15.2534 8.59975 15.2534 8.81167 15.3904C9.0859 15.5688 9.35183 15.7556 9.62192 15.9341C9.87954 16.1043 10.133 16.2828 10.4031 16.4322C10.7646 16.6315 11.0637 16.5277 11.2466 16.1583C11.3338 15.9798 11.4045 15.7888 11.4751 15.602C11.633 15.187 11.7784 14.7677 11.9405 14.3526C12.0236 14.1409 12.2023 14.0206 12.4266 14.004C12.7424 13.9791 13.0582 13.9791 13.374 13.9666C13.7147 13.95 14.0596 13.9334 14.4003 13.9002C14.712 13.8711 14.9114 13.6345 14.8906 13.3232C14.8823 13.1862 14.8532 13.0493 14.8158 12.9164C14.6746 12.4059 14.5374 11.8953 14.3837 11.3889C14.3131 11.1606 14.4253 10.8576 14.5873 10.7331C14.9904 10.4259 15.3892 10.1104 15.7881 9.79082C15.9253 9.67874 16.0582 9.55837 16.1704 9.42554C16.3283 9.23875 16.3283 9.00215 16.1829 8.80706C16.1164 8.71989 16.0416 8.63687 15.9543 8.56631C15.5139 8.20933 15.0693 7.86066 14.6247 7.50783C14.3962 7.32935 14.3089 7.10105 14.3879 6.81879C14.5167 6.36634 14.6455 5.91805 14.7701 5.46561C14.8408 5.27051 14.8823 5.06712 14.928 4.86373Z" fill="black"/>
<path d="M10.9641 9.27196C10.9932 9.20139 11.0223 9.13498 11.0472 9.06442C11.1719 8.71989 11.3007 8.37537 11.4253 8.03085C11.4835 7.86896 11.6248 7.76934 11.7743 7.77349C11.9322 7.78179 12.0611 7.89802 12.1151 8.05575C12.2273 8.37122 12.3478 8.68254 12.4641 8.99385C12.489 9.06442 12.5181 9.13913 12.5472 9.2097C12.5555 9.23045 12.5721 9.25121 12.5929 9.28856C12.6511 9.13498 12.7009 9.0063 12.7466 8.87763C12.8547 8.58706 12.9586 8.29235 13.0707 8.00179C13.1455 7.8067 13.3408 7.72783 13.532 7.80255C13.7065 7.87311 13.7854 8.07235 13.7189 8.25914C13.4489 8.98555 13.1829 9.71195 12.9129 10.4384C12.8588 10.5878 12.7217 10.6791 12.5763 10.675C12.435 10.6708 12.3021 10.5753 12.248 10.4342C12.1026 10.0399 11.9572 9.64969 11.8076 9.25535C11.7993 9.2263 11.7827 9.20139 11.7577 9.15158C11.7162 9.25951 11.6788 9.34668 11.6497 9.42969C11.525 9.76176 11.4045 10.098 11.2799 10.4301C11.2217 10.5836 11.0971 10.675 10.9475 10.675C10.7979 10.675 10.6691 10.5795 10.6109 10.4259C10.3408 9.70365 10.0707 8.9814 9.79651 8.25499C9.73002 8.07236 9.81728 7.86481 9.98764 7.7984C10.1746 7.72368 10.3741 7.80255 10.4447 7.99349C10.6026 8.40443 10.7522 8.81536 10.9101 9.2263C10.9142 9.23875 10.9225 9.25121 10.9267 9.26366C10.9433 9.26781 10.9516 9.26781 10.9641 9.27196Z" fill="black"/>
<path d="M7.53609 9.56666C7.59426 9.74099 7.71061 9.84477 7.85604 9.91948C8.21753 10.1021 8.49593 10.0523 8.77017 9.7493C8.90729 9.59986 9.1192 9.57911 9.26879 9.70779C9.41837 9.83231 9.43499 10.0482 9.30618 10.2059C9.1192 10.43 8.87405 10.5712 8.59981 10.6417C8.24662 10.7331 7.89759 10.7331 7.56933 10.5546C7.18706 10.3429 6.94606 10.0191 6.83803 9.59572C6.80479 9.46704 6.77155 9.33006 6.77986 9.19723C6.79232 8.96893 6.83387 8.74064 6.94606 8.53724C7.15797 8.14706 7.46545 7.8814 7.89343 7.74858C8.22584 7.6448 8.5167 7.75273 8.79094 7.91876C9.14829 8.13876 9.38513 8.45838 9.4807 8.86516C9.51394 9.00214 9.51809 9.15157 9.50147 9.28855C9.47654 9.46289 9.33527 9.56251 9.1566 9.56251C8.65382 9.56251 8.15521 9.56251 7.65244 9.56251C7.61504 9.55836 7.5818 9.56251 7.53609 9.56666ZM8.1469 8.86101C8.32557 8.86101 8.50424 8.86101 8.68707 8.86101C8.76601 8.86101 8.77432 8.84441 8.74108 8.77384C8.73277 8.75724 8.72446 8.74064 8.712 8.72403C8.57072 8.51649 8.37959 8.42102 8.13028 8.42932C7.88097 8.43762 7.7023 8.5497 7.57764 8.76139C7.53194 8.84026 7.5444 8.86101 7.63582 8.86101C7.80202 8.86101 7.97238 8.86101 8.1469 8.86101Z" fill="black"/>
<path d="M3.68018 9.22219C3.68018 8.86521 3.68018 8.50824 3.68018 8.15126C3.68018 7.98107 3.76744 7.84825 3.90456 7.79844C4.07076 7.74032 4.19957 7.77768 4.31592 7.92296C4.35331 7.96862 4.37824 7.96032 4.42811 7.94372C4.57769 7.8856 4.73143 7.81919 4.88933 7.79014C5.39625 7.69467 5.96551 8.03919 6.13587 8.52899C6.20235 8.71993 6.21897 8.91502 6.21482 9.11427C6.20651 9.50445 6.21482 9.89463 6.21482 10.2848C6.21482 10.4799 6.13171 10.6086 5.97382 10.6584C5.74529 10.7331 5.5126 10.5671 5.5126 10.3263C5.50844 9.87387 5.49598 9.42558 5.51675 8.97314C5.52922 8.69503 5.27575 8.42522 4.95581 8.47918C4.70235 8.52069 4.51121 8.63276 4.42395 8.87766C4.39486 8.96068 4.3824 9.05615 4.3824 9.14747C4.37824 9.53765 4.3824 9.92784 4.37824 10.318C4.37824 10.4799 4.29099 10.6044 4.15387 10.6542C3.91287 10.7373 3.68018 10.5754 3.67603 10.318C3.68018 9.95274 3.68018 9.58747 3.68018 9.22219Z" fill="black"/>
</svg>
