<svg width="16" height="19" viewBox="0 0 16 19" fill="none" xmlns="http://www.w3.org/2000/svg">
<path d="M7.61717 18.3244C7.02862 18.3041 6.28448 18.2906 5.54711 18.2432C4.9315 18.2094 4.32265 18.135 3.71381 18.0741C3.42968 18.047 3.15232 18.02 2.87496 17.9523C2.44201 17.8508 2.10376 17.6005 1.9414 17.1676C1.74522 16.6332 1.94817 16.0514 2.42848 15.7402C2.50965 15.6861 2.57054 15.6319 2.56377 15.5237C2.56377 15.4628 2.54348 15.4425 2.48259 15.4425C2.29994 15.429 2.11053 15.429 1.92787 15.4019C1.46109 15.3343 0.994313 15.2531 0.581653 15.0096C0.317821 14.854 0.114875 14.6443 0.0336964 14.3331C-0.0948371 13.846 0.155464 13.3386 0.595184 13.1222C0.689893 13.0748 0.723716 13.0139 0.737245 12.9192C0.791365 12.6013 0.845486 12.2765 0.899605 11.9586C0.953725 11.6406 1.00784 11.3227 1.06196 11.0047C1.11608 10.6936 1.1702 10.3891 1.22432 10.0779C1.27844 9.76676 1.33256 9.45558 1.38668 9.14439C1.4408 8.83321 1.49492 8.52878 1.54904 8.21759C1.60316 7.91317 1.65728 7.60875 1.7114 7.30433C1.76551 7.0202 1.8061 6.73608 1.86699 6.45195C1.92787 6.134 1.99552 5.81605 2.0767 5.4981C2.27288 4.75396 2.68554 4.15188 3.30115 3.69186C3.70028 3.3942 4.14 3.15067 4.57972 2.9139C4.63384 2.88684 4.67443 2.85302 4.66767 2.78537C4.65414 2.31859 4.87061 1.96681 5.20886 1.66916C5.56064 1.36474 5.98006 1.17531 6.42654 1.05354C6.93391 0.911479 7.44805 0.85736 7.96895 0.884419C8.57102 0.911479 9.1528 1.01972 9.70076 1.27679C10.0999 1.46621 10.4584 1.71651 10.6884 2.10888C10.8034 2.31182 10.8711 2.5283 10.8576 2.75831C10.8508 2.83272 10.8846 2.87331 10.9455 2.90713C11.3852 3.13714 11.8182 3.38744 12.2241 3.6851C12.8059 4.11805 13.2185 4.67278 13.4147 5.36956C13.5229 5.7484 13.5974 6.14076 13.6785 6.53313C13.7529 6.89843 13.8206 7.27051 13.8815 7.63581C13.9491 8.00788 14.01 8.37995 14.0777 8.74526C14.1318 9.05645 14.1859 9.36086 14.2468 9.67205C14.3009 9.98324 14.355 10.2944 14.4091 10.6056C14.4633 10.9168 14.5242 11.2348 14.5783 11.5459C14.6324 11.8571 14.6865 12.1751 14.7406 12.4863C14.7677 12.6418 14.788 12.8042 14.8286 12.9598C14.8421 13.0072 14.8827 13.0613 14.93 13.0883C15.3562 13.3048 15.5862 13.7039 15.5389 14.1775C15.5051 14.509 15.3156 14.7457 15.0518 14.9352C14.8353 15.0908 14.5918 15.1652 14.3415 15.2328C13.9288 15.3478 13.5026 15.4155 13.0765 15.4222C13.0494 15.4222 12.9885 15.4493 12.9885 15.4628C12.9953 15.5305 13.0088 15.5981 13.0359 15.659C13.0494 15.6861 13.0968 15.6996 13.1238 15.7199C13.5297 16.0108 13.7259 16.4031 13.6718 16.897C13.6109 17.4179 13.2997 17.7494 12.8126 17.8982C12.542 17.9794 12.2579 18.0064 11.9805 18.0403C11.5611 18.0876 11.1417 18.1282 10.7155 18.162C10.2217 18.2026 9.72783 18.2364 9.23399 18.2567C8.74015 18.3041 8.25307 18.3109 7.61717 18.3244ZM8.06365 10.6327C8.06365 12.3239 8.06365 14.0084 8.06365 15.6996C8.06365 15.8417 8.07042 15.8552 8.21248 15.8484C8.84838 15.8281 9.49105 15.8011 10.127 15.774C10.4381 15.7605 10.7426 15.7267 11.0537 15.6996C11.4529 15.659 11.8588 15.6116 12.2579 15.5643C12.3729 15.5508 12.3797 15.5372 12.3594 15.429C12.312 15.1449 12.2714 14.8675 12.2241 14.5834C12.1835 14.3195 12.1429 14.0557 12.1023 13.7919C12.0617 13.5213 12.0144 13.2439 11.9738 12.9733C11.9332 12.7027 11.8926 12.4254 11.852 12.1548C11.8114 11.8707 11.7641 11.5933 11.7167 11.3092C11.6761 11.0453 11.6355 10.7815 11.5949 10.5177C11.5544 10.2471 11.507 9.96971 11.4664 9.69911C11.4123 9.34734 11.3582 8.99556 11.304 8.64379C11.2499 8.29201 11.189 7.94024 11.1349 7.58846C11.074 7.21639 11.0199 6.84432 10.959 6.47225C10.9387 6.32342 10.9117 6.17459 10.9049 6.01899C10.8982 5.8634 11.0064 5.7484 11.1552 5.73487C11.3108 5.72134 11.4529 5.80928 11.4799 5.95134C11.507 6.10694 11.5341 6.26253 11.5544 6.41813C11.5949 6.69549 11.6423 6.97962 11.6829 7.25698C11.7235 7.52081 11.7641 7.7914 11.8114 8.05523C11.852 8.33259 11.8994 8.61672 11.94 8.89408C11.9805 9.16468 12.0211 9.43528 12.0685 9.70588C12.1091 9.97647 12.1497 10.2538 12.197 10.5244C12.2376 10.795 12.285 11.0656 12.3256 11.3362C12.3661 11.6068 12.4067 11.8842 12.4473 12.1548C12.5014 12.5066 12.5623 12.8651 12.6097 13.2169C12.6232 13.3048 12.6503 13.3386 12.7382 13.3386C13.2185 13.3251 13.6785 13.2372 14.1318 13.0748C14.1994 13.0545 14.2197 13.0139 14.2062 12.9463C14.1656 12.7163 14.125 12.493 14.0912 12.263C14.0371 11.9451 13.983 11.6271 13.9288 11.3092C13.8747 10.998 13.8206 10.6936 13.7665 10.3824C13.7124 10.0577 13.6515 9.73294 13.5974 9.41499C13.5432 9.11733 13.4891 8.81967 13.435 8.51525C13.3809 8.21083 13.3268 7.91317 13.2726 7.60875C13.2185 7.31109 13.1644 7.01344 13.1035 6.71578C13.0223 6.31665 12.9479 5.91753 12.8397 5.52516C12.7044 5.04485 12.4338 4.63895 12.0482 4.31424C11.6423 3.97599 11.1823 3.72569 10.7223 3.47539C10.6681 3.44833 10.6343 3.46186 10.6005 3.50921C10.3096 3.88805 9.91724 4.13158 9.48428 4.3007C8.87544 4.53748 8.24631 4.61866 7.59687 4.59836C7.09627 4.58483 6.6092 4.50365 6.14242 4.33453C5.66887 4.15864 5.23592 3.91511 4.92473 3.50245C4.88414 3.45509 4.85032 3.44833 4.7962 3.48215C4.47825 3.67157 4.14676 3.84746 3.83558 4.0504C3.3485 4.36159 2.96967 4.76748 2.75319 5.31544C2.5773 5.75516 2.50289 6.22195 2.42171 6.68196C2.36759 6.97962 2.31347 7.27727 2.25935 7.58169C2.20523 7.88611 2.14435 8.18377 2.09023 8.48819C2.03611 8.79938 1.98199 9.1038 1.92787 9.41499C1.86022 9.79382 1.79258 10.1659 1.72493 10.5447C1.65728 10.9303 1.59639 11.3092 1.52874 11.6948C1.45433 12.1142 1.38668 12.5268 1.31226 12.9395C1.29873 13.0275 1.32579 13.068 1.40021 13.0883C1.60315 13.1425 1.8061 13.2169 2.01582 13.2575C2.27288 13.3048 2.53672 13.3183 2.79378 13.3454C2.8479 13.3522 2.88849 13.3386 2.90202 13.271C2.91555 13.1898 2.92908 13.1086 2.94261 13.0274C2.99673 12.6757 3.05085 12.3239 3.10497 11.9721C3.15909 11.6271 3.21997 11.2753 3.27409 10.9303C3.32821 10.5785 3.37557 10.2268 3.43645 9.875C3.5041 9.44881 3.57175 9.01585 3.6394 8.58966C3.70705 8.16347 3.76793 7.73052 3.83558 7.29757C3.90323 6.86461 3.97764 6.43166 4.04529 5.9987C4.07235 5.81605 4.19412 5.71458 4.37677 5.73487C4.53913 5.7484 4.6406 5.87693 4.62707 6.05282C4.62031 6.16106 4.60002 6.26254 4.58649 6.37077C4.5459 6.64137 4.50531 6.91873 4.45795 7.18933C4.41736 7.46669 4.37001 7.75082 4.32942 8.02818C4.28883 8.29878 4.24824 8.5626 4.20765 8.8332C4.16706 9.11732 4.1197 9.39469 4.07235 9.67881C4.03176 9.94265 3.99117 10.2132 3.95058 10.4838C3.90999 10.7612 3.86264 11.0453 3.82205 11.3227C3.78146 11.5933 3.74087 11.8639 3.69352 12.1345C3.65293 12.4118 3.60557 12.6892 3.56498 12.9598C3.52439 13.2304 3.4838 13.501 3.43645 13.7716C3.39586 14.0422 3.3485 14.3128 3.30791 14.5834C3.26056 14.8675 3.21997 15.1516 3.17262 15.4358C3.15232 15.544 3.16585 15.5643 3.28086 15.5711C3.53116 15.5981 3.78146 15.6319 4.03176 15.6522C4.5459 15.6996 5.06003 15.7469 5.57416 15.7875C6.01388 15.8146 6.44684 15.8281 6.88656 15.8484C7.04892 15.8552 7.21127 15.8552 7.36687 15.862C7.44128 15.862 7.4751 15.8349 7.46834 15.7605C7.46834 15.7334 7.46834 15.7131 7.46834 15.6861C7.46834 12.4051 7.46834 9.12409 7.46834 5.84311C7.46834 5.74163 7.46834 5.6334 7.46834 5.53192C7.4751 5.40339 7.58334 5.28838 7.70511 5.27485C7.8607 5.25456 8.00277 5.33574 8.03659 5.47104C8.05012 5.52516 8.05013 5.58604 8.05013 5.64016C8.06365 7.29757 8.06365 8.9685 8.06365 10.6327ZM7.48187 3.51597C7.48187 3.39421 7.47511 3.27244 7.48187 3.15067C7.48864 3.05596 7.44805 3.03567 7.3601 3.02214C7.06245 2.98832 6.76479 2.95449 6.46713 2.90037C6.27771 2.86654 6.10183 2.79213 5.98682 2.62977C5.87859 2.48094 5.89888 2.30505 6.03418 2.19682C6.15594 2.09534 6.33183 2.11564 6.4536 2.24417C6.4739 2.26447 6.50772 2.29152 6.53478 2.29829C6.87303 2.393 7.21804 2.44036 7.56981 2.44712C7.96218 2.45389 8.34778 2.45388 8.73338 2.3727C8.88221 2.33888 9.0378 2.33888 9.15281 2.20358C9.24075 2.10887 9.40311 2.11564 9.50458 2.19005C9.61282 2.27123 9.66017 2.41329 9.61282 2.54182C9.53841 2.73124 9.37605 2.81242 9.20016 2.87331C8.87545 2.98155 8.5372 3.01537 8.19219 3.0289C8.07718 3.0289 8.06365 3.0492 8.06365 3.15744C8.06365 3.40098 8.06365 3.63774 8.06365 3.88128C8.06365 3.96923 8.09071 3.99628 8.17866 3.98952C8.61838 3.95569 9.04457 3.85422 9.4437 3.67157C9.71429 3.5498 9.95783 3.38744 10.1337 3.1439C10.3164 2.8936 10.3231 2.62977 10.154 2.3727C9.99166 2.13593 9.76165 1.98034 9.50458 1.85181C9.11898 1.66239 8.70632 1.55415 8.28013 1.51356C7.52922 1.43915 6.79861 1.5068 6.10183 1.81798C5.81093 1.94651 5.5471 2.1224 5.37121 2.39976C5.24945 2.58918 5.21562 2.7989 5.32386 2.99508C5.39827 3.13714 5.50651 3.27244 5.62828 3.37391C6.14241 3.78657 6.75126 3.9354 7.38716 3.98952C7.45481 3.99628 7.4751 3.96246 7.46834 3.90158C7.48187 3.77305 7.48187 3.64451 7.48187 3.51597ZM8.90927 17.7155C8.90927 17.7088 8.90927 17.7088 8.90927 17.702C9.2881 17.6817 9.66694 17.6614 10.0458 17.6411C10.2758 17.6276 10.5058 17.6141 10.7358 17.5938C11.1687 17.5532 11.6017 17.5058 12.0347 17.4585C12.2444 17.4314 12.4541 17.4111 12.6503 17.3502C13.0156 17.2352 13.1306 16.9579 13.0629 16.6196C12.9953 16.3017 12.6773 16.0987 12.3526 16.1393C11.852 16.2002 11.3446 16.2678 10.8373 16.3084C10.3028 16.3558 9.76841 16.3828 9.23399 16.4099C8.88221 16.4302 8.53043 16.4302 8.17866 16.4302C8.10424 16.4302 8.05689 16.4505 8.05689 16.5384C8.05689 16.897 8.05689 17.2555 8.05689 17.6141C8.05689 17.6817 8.08395 17.7155 8.1516 17.7155C8.40867 17.7155 8.65896 17.7155 8.90927 17.7155ZM6.63626 17.702C6.63626 17.7088 6.63626 17.7088 6.63626 17.7155C6.87979 17.7155 7.11657 17.7155 7.3601 17.7155C7.46834 17.7155 7.48187 17.7088 7.48187 17.5938C7.48187 17.2623 7.48187 16.9376 7.48187 16.6061C7.48187 16.4302 7.48187 16.437 7.31275 16.4302C6.68361 16.4099 6.04771 16.3896 5.41857 16.3558C4.95856 16.3287 4.50531 16.2814 4.04529 16.2408C3.76793 16.2137 3.49733 16.1731 3.21997 16.1461C3.11173 16.1393 2.98996 16.1393 2.88849 16.1731C2.66525 16.2408 2.52318 16.4099 2.47583 16.6332C2.42848 16.8699 2.49613 17.0729 2.69231 17.2217C2.84114 17.3367 3.01702 17.3976 3.20644 17.4179C3.57851 17.4585 3.95058 17.5058 4.32265 17.5397C4.72178 17.5802 5.11415 17.6141 5.51328 17.6411C5.88535 17.6682 6.26418 17.6885 6.63626 17.702ZM2.50965 14.8607C2.65848 14.8675 2.65848 14.8607 2.68554 14.7187C2.69231 14.6916 2.69231 14.6646 2.69907 14.6375C2.72613 14.4481 2.75319 14.2519 2.78701 14.0625C2.80731 13.9407 2.80731 13.9272 2.68554 13.9272C2.16464 13.9001 1.66404 13.7987 1.17697 13.6228C0.994312 13.5551 0.777837 13.6498 0.662833 13.8257C0.547829 14.0084 0.56136 14.2181 0.710188 14.3601C0.811662 14.4481 0.926666 14.536 1.04843 14.5834C1.52198 14.7593 2.00905 14.8337 2.50965 14.8607ZM13.0223 14.8607C13.4553 14.8472 13.9221 14.766 14.3212 14.6443C14.4971 14.5901 14.673 14.5225 14.8083 14.3872C14.9706 14.2316 14.9977 14.0219 14.8827 13.8325C14.7609 13.6363 14.5377 13.5551 14.328 13.6295C14.01 13.7445 13.6853 13.8325 13.3471 13.8731C13.1712 13.8934 12.9885 13.9069 12.8126 13.9272C12.7585 13.934 12.7247 13.9475 12.7314 14.0084C12.772 14.2451 12.8059 14.4887 12.8464 14.7254C12.8735 14.8607 12.887 14.8607 13.0223 14.8607Z" fill="black"/>
<path d="M5.20212 12.1074C5.17507 12.3171 5.148 12.5201 5.12095 12.7298C5.08036 13.0613 5.033 13.386 4.99241 13.7107C4.97888 13.8122 4.97212 13.9137 4.95182 14.0151C4.92476 14.164 4.76917 14.279 4.62034 14.2587C4.45122 14.2316 4.34298 14.0828 4.36328 13.9204C4.43093 13.3928 4.49857 12.8651 4.57299 12.3374C4.58652 12.2495 4.59328 12.1615 4.60681 12.0736C4.63387 11.8977 4.76917 11.7895 4.93153 11.7962C5.08036 11.8098 5.20212 11.9518 5.20212 12.1074Z" fill="black"/>
<path d="M10.6343 11.803C10.7899 11.803 10.9184 11.918 10.9387 12.0872C11.0131 12.6284 11.0875 13.1628 11.1552 13.704C11.1687 13.819 11.1823 13.934 11.1687 14.049C11.1484 14.1911 11.0064 14.279 10.8778 14.2722C10.7425 14.2655 10.614 14.1505 10.6005 14.0152C10.5396 13.5281 10.4719 13.0478 10.4111 12.5607C10.3908 12.4254 10.3705 12.2969 10.3502 12.1616C10.3163 11.9654 10.4516 11.803 10.6343 11.803Z" fill="black"/>
</svg>
