<svg width="19" height="13" viewBox="0 0 19 13" fill="none" xmlns="http://www.w3.org/2000/svg">
<path d="M5.876 0.689349C7.449 0.689349 9.02199 0.702365 10.5885 0.682838C11.1605 0.676329 11.6155 1.11894 11.713 1.52901C11.7325 1.60712 11.739 1.68523 11.739 1.76333C11.7455 2.01068 11.7455 2.25151 11.739 2.49885C11.739 2.59649 11.7715 2.62252 11.8625 2.62252C12.8635 2.62252 13.8645 2.62252 14.859 2.62252C15.2425 2.62252 15.561 2.76572 15.808 3.05862C16.458 3.8397 17.108 4.61428 17.758 5.39536C17.94 5.61016 18.031 5.864 18.031 6.1504C18.031 7.40664 18.031 8.66288 18.0245 9.91912C18.0245 10.4789 17.511 10.9931 16.952 10.9996C16.8675 10.9996 16.7635 10.9736 16.705 11.0126C16.6595 11.0452 16.6725 11.1623 16.6595 11.2404C16.5295 11.976 16.1135 12.4837 15.431 12.7505C14.8655 12.9718 14.3195 12.8807 13.819 12.5357C13.4095 12.2493 13.143 11.8588 13.026 11.3706C13.0065 11.2795 12.9935 11.1884 12.9935 11.0972C12.9935 11.0126 12.961 10.9931 12.883 10.9931C12.2525 10.9931 11.6285 10.9931 10.998 10.9931C9.25599 10.9931 7.5075 10.9931 5.7655 10.9931C5.694 10.9931 5.668 11.0061 5.655 11.0907C5.5835 11.8718 5.174 12.4251 4.459 12.731C3.4905 13.1411 2.4895 12.5618 2.1125 11.7091C2.0215 11.5073 1.976 11.299 1.9695 11.0777C1.9695 11.0126 1.9435 10.9996 1.885 10.9996C1.638 10.9996 1.391 10.9931 1.1375 10.9996C0.572 11.0256 -1.98558e-07 10.4854 0.0129998 9.87356C0.0259998 9.37236 0.0129998 8.86465 0.0129998 8.36346C0.0064998 6.18295 0.0065 4.00894 0 1.82842C0 1.34025 0.233999 1.00829 0.643499 0.780473C0.799499 0.695856 0.9685 0.676331 1.144 0.676331C2.717 0.689349 4.2965 0.689349 5.876 0.689349ZM5.863 7.4522C7.5595 7.4522 9.25599 7.4522 10.9525 7.4522C11.089 7.4522 11.089 7.4522 11.089 7.31551C11.089 5.8575 11.089 4.39297 11.089 2.93495C11.089 2.5379 11.089 2.13435 11.089 1.7373C11.089 1.52901 11.0045 1.40534 10.8355 1.35327C10.7705 1.33374 10.699 1.33374 10.6275 1.33374C7.4425 1.33374 4.2575 1.33374 1.0725 1.33374C0.767 1.33374 0.630499 1.47043 0.630499 1.77635C0.630499 3.62491 0.630499 5.47346 0.630499 7.32202C0.630499 7.45871 0.630499 7.45871 0.760499 7.45871C2.47 7.4522 4.1665 7.4522 5.863 7.4522ZM5.889 8.09659C5.0375 8.09659 4.186 8.09659 3.3345 8.09659C2.4765 8.09659 1.625 8.09659 0.767 8.09659C0.676 8.09659 0.6435 8.12263 0.65 8.21376C0.6565 8.36347 0.65 8.51317 0.65 8.66939C0.65 8.93626 0.610999 8.91022 0.890499 8.91022C1.053 8.91022 1.2155 8.90371 1.3715 8.92975C1.547 8.95579 1.651 9.15106 1.5925 9.32029C1.547 9.47 1.4365 9.5481 1.2675 9.55461C1.092 9.55461 0.922999 9.55461 0.7475 9.55461C0.6825 9.55461 0.65 9.58065 0.65 9.65225C0.65 9.74988 0.65 9.84752 0.65 9.94515C0.6565 10.225 0.7995 10.3682 1.079 10.3682C1.3845 10.3682 1.6965 10.3682 2.002 10.3682C2.067 10.3682 2.106 10.3487 2.132 10.2901C2.236 10.0623 2.379 9.86704 2.561 9.69781C3.0355 9.2617 3.5945 9.07945 4.2315 9.24218C4.7905 9.38538 5.2 9.74337 5.46 10.2641C5.4925 10.3292 5.5185 10.3682 5.603 10.3682C7.397 10.3682 9.18449 10.3682 10.9785 10.3682C11.1085 10.3682 11.1085 10.3682 11.1085 10.2381C11.1085 9.56763 11.1085 8.90371 11.1085 8.23328C11.1085 8.1031 11.1085 8.1031 10.972 8.1031C9.28199 8.09659 7.5855 8.09659 5.889 8.09659ZM14.5795 6.64508C13.6825 6.64508 12.779 6.64508 11.882 6.64508C11.739 6.64508 11.7325 6.6516 11.739 6.78829C11.7455 7.13977 11.7585 7.49776 11.7585 7.84925C11.7585 8.64986 11.7585 9.45697 11.7585 10.2576C11.7585 10.3422 11.791 10.3617 11.869 10.3617C12.2525 10.3552 12.6425 10.3617 13.026 10.3617C13.091 10.3617 13.13 10.3357 13.156 10.2771C13.26 10.0558 13.403 9.86053 13.5785 9.6913C14.1245 9.17058 14.8785 9.02738 15.5545 9.33981C15.9705 9.52857 16.276 9.8345 16.4775 10.2446C16.5165 10.3292 16.562 10.3617 16.6595 10.3552C16.7505 10.3487 16.848 10.3552 16.939 10.3552C17.225 10.3552 17.3745 10.2055 17.381 9.91912C17.381 9.34632 17.381 8.77353 17.3875 8.20074C17.3875 8.10961 17.355 8.09009 17.2705 8.09009C16.939 8.0966 16.6075 8.0966 16.2825 8.09009C16.211 8.09009 16.1265 8.06405 16.0615 8.025C15.9445 7.9534 15.9055 7.80369 15.951 7.667C15.99 7.54333 16.1135 7.4522 16.25 7.4522C16.5945 7.4522 16.939 7.4522 17.29 7.4522C17.368 7.4522 17.3875 7.43267 17.3875 7.35457C17.381 7.1593 17.3875 6.96403 17.3875 6.76876C17.3875 6.63858 17.3875 6.63858 17.2575 6.63858C16.3605 6.64508 15.47 6.64508 14.5795 6.64508ZM14.5535 6.0007C14.8785 6.0007 15.2035 6.0007 15.522 6.0007C16.094 6.0007 16.6725 6.0007 17.2445 6.0007C17.277 6.0007 17.3095 5.98768 17.342 5.98117C17.329 5.94862 17.329 5.90957 17.3095 5.87703C17.264 5.80543 17.2055 5.74034 17.1535 5.67525C16.536 4.93322 15.9185 4.19119 15.301 3.44916C15.1905 3.31898 15.054 3.25389 14.885 3.25389C13.8775 3.25389 12.87 3.25389 11.8625 3.25389C11.7715 3.25389 11.739 3.27342 11.739 3.37106C11.7455 4.20421 11.739 5.03085 11.739 5.864C11.739 5.98767 11.7455 5.99418 11.869 5.99418C12.7595 6.00069 13.6565 6.0007 14.5535 6.0007ZM3.809 12.2233C4.5305 12.2168 5.018 11.7221 5.0115 10.9996C5.005 10.3031 4.5045 9.82148 3.7895 9.82799C3.0875 9.8345 2.6 10.3292 2.6065 11.0387C2.6065 11.7351 3.107 12.2298 3.809 12.2233ZM14.8265 12.2233C15.5285 12.2233 16.029 11.7351 16.029 11.0387C16.0355 10.3227 15.548 9.82799 14.8395 9.82148C14.1245 9.81497 13.6305 10.3031 13.624 11.0126C13.624 11.7286 14.1115 12.2233 14.8265 12.2233Z" fill="black"/>
<path d="M13.0391 7.77112C13.0391 7.64745 13.0391 7.51727 13.0391 7.39359C13.0391 7.3285 13.0586 7.29596 13.1301 7.29596C13.2861 7.30247 13.4356 7.30247 13.5916 7.29596C13.6631 7.29596 13.6826 7.322 13.6826 7.38709C13.6826 7.64745 13.6826 7.9013 13.6826 8.16166C13.6826 8.22675 13.6566 8.2593 13.5916 8.2593C13.4356 8.2593 13.2861 8.2593 13.1301 8.2593C13.0586 8.2593 13.0391 8.22675 13.0391 8.16166C13.0391 8.03799 13.0391 7.9013 13.0391 7.77112Z" fill="black"/>
</svg>
