<svg width="13" height="15" viewBox="0 0 13 15" fill="none" xmlns="http://www.w3.org/2000/svg">
<path d="M3.37436 13.4784C3.3392 13.4402 3.31305 13.4089 3.2839 13.3815C2.78529 12.9099 2.37243 12.3783 2.09633 11.7472C1.94442 11.416 1.84851 11.0619 1.81251 10.6994C1.8048 10.6063 1.76707 10.5583 1.67747 10.5197C1.32677 10.368 1.10812 10.0854 0.965783 9.74246C0.781937 9.31109 0.759116 8.82804 0.901475 8.38126C0.924171 8.28757 0.927092 8.19018 0.910049 8.0953C0.849599 7.64642 0.781432 7.19841 0.716266 6.74953C0.666534 6.40355 0.615944 6.05714 0.572214 5.7103C0.537059 5.43121 0.480896 5.14996 0.486469 4.87086C0.517337 3.4222 1.12098 2.27279 2.32784 1.4565C2.8466 1.10581 3.41894 0.871722 4.02344 0.712237C4.54366 0.569976 5.0776 0.483741 5.61615 0.455003C6.06889 0.434853 6.52334 0.403126 6.97478 0.427564C8.03159 0.484155 9.0661 0.660361 10.0252 1.14353C10.9589 1.61513 11.677 2.2968 12.083 3.27601C12.3321 3.87622 12.4513 4.5073 12.3969 5.15896C12.3686 5.49637 12.303 5.83035 12.255 6.16561C12.2038 6.52231 12.1529 6.87958 12.1023 7.23742C12.0697 7.46722 12.0483 7.69873 12.0029 7.92595C11.96 8.14589 11.9853 8.3521 12.0312 8.56904C12.1598 9.17182 12.0342 9.72402 11.6367 10.2042C11.5134 10.3487 11.3581 10.4624 11.1831 10.5365C11.159 10.5484 11.1378 10.5654 11.121 10.5864C11.1041 10.6073 11.0919 10.6317 11.0854 10.6578C10.9872 11.5628 10.5709 12.3174 9.98271 12.9888C9.85795 13.1307 9.72033 13.2614 9.587 13.3956C9.56234 13.4158 9.53561 13.4334 9.50726 13.4479C7.4198 15.4762 5.40479 15.4869 3.37436 13.4784ZM11.4069 8.95232C11.3971 8.85371 11.4031 8.73067 11.3688 8.62048C11.3178 8.45628 11.2779 8.28179 11.1441 8.15532C11.0335 8.05071 10.8938 8.0267 10.7497 8.01341C10.5714 7.99626 10.4642 7.89423 10.4316 7.71973C10.414 7.62499 10.3951 7.53067 10.3763 7.43635C10.2798 6.95403 10.1812 6.47172 10.0886 5.98898C10.0702 5.89208 10.0316 5.85478 9.92826 5.85007C9.27832 5.82177 8.63309 5.75789 8.00758 5.56154C7.3945 5.36904 6.87103 5.0505 6.50704 4.50602C6.45474 4.42756 6.42944 4.446 6.37585 4.50602C6.21765 4.68865 6.06803 4.88415 5.88411 5.03807C5.39322 5.44921 4.79601 5.62628 4.17821 5.72402C3.76321 5.78962 3.34134 5.8132 2.92205 5.85007C2.89193 5.84925 2.8627 5.8603 2.84065 5.88083C2.8186 5.90135 2.80549 5.92972 2.80415 5.95982C2.69154 6.52631 2.57836 7.09265 2.4646 7.65885C2.41058 7.92681 2.34628 7.98554 2.07875 8.01598C1.8914 8.03742 1.72934 8.1073 1.64145 8.28265C1.44595 8.67193 1.43824 9.07836 1.55571 9.48994C1.63502 9.76646 1.8288 9.91866 2.09419 9.93324C2.32527 9.94481 2.4526 10.0743 2.4556 10.3084C2.46375 10.8859 2.62709 11.4175 2.91476 11.9152C3.30404 12.5926 3.86267 13.1045 4.50319 13.5349C4.8373 13.7541 5.19442 13.9359 5.56814 14.0773C5.8476 14.1923 6.14705 14.2509 6.44925 14.2496C6.75145 14.2484 7.05041 14.1873 7.32891 14.07C7.78615 13.8893 8.21838 13.6509 8.61508 13.3605C8.92492 13.138 9.21071 12.8838 9.46781 12.602C10.0599 11.9337 10.4166 11.1675 10.429 10.2599C10.4316 10.0726 10.5744 9.9401 10.772 9.93495C10.8725 9.9366 10.9715 9.91029 11.058 9.85897C11.1444 9.80765 11.2149 9.73332 11.2616 9.64428C11.3816 9.43506 11.3902 9.20269 11.4069 8.95189V8.95232ZM1.51326 7.5058C1.58459 7.47024 1.65788 7.43875 1.73277 7.41148C1.76796 7.40394 1.79967 7.38497 1.82293 7.35751C1.8462 7.33005 1.85972 7.29566 1.86139 7.25971C1.87554 7.15725 1.89869 7.0565 1.91927 6.95489C2.01273 6.49015 2.11091 6.02585 2.19879 5.56025C2.25324 5.27172 2.35571 5.17869 2.65196 5.17697C3.29247 5.17354 3.9287 5.1341 4.55035 4.96261C5.09826 4.81298 5.56342 4.54803 5.85967 4.03785C5.95028 3.8802 6.05442 3.73073 6.17092 3.59112C6.33598 3.39519 6.57993 3.40291 6.7407 3.60355C6.83442 3.72473 6.92034 3.85174 6.99793 3.98383C7.1557 4.24107 7.33877 4.47601 7.59815 4.64192C8.01358 4.9073 8.47746 5.03506 8.95849 5.08737C9.41551 5.1371 9.87639 5.14996 10.336 5.17697C10.4775 5.18512 10.5846 5.24857 10.6412 5.3759C10.6701 5.4551 10.6903 5.53717 10.7017 5.6207C10.8131 6.1729 10.9225 6.72552 11.0357 7.27729C11.0422 7.31852 11.0641 7.35575 11.097 7.38147C11.1869 7.42577 11.2791 7.46541 11.3731 7.50023C11.3902 7.39733 11.4074 7.3073 11.4207 7.21684C11.4721 6.86386 11.5228 6.51073 11.5729 6.15746C11.6217 5.81834 11.6843 5.48094 11.7165 5.1401C11.7855 4.40184 11.6076 3.71502 11.2269 3.08222C10.6554 2.13517 9.77135 1.63142 8.73298 1.35747C8.27678 1.23981 7.81059 1.16503 7.34048 1.1341C6.21894 1.0535 5.10726 1.0938 4.01744 1.39991C3.38122 1.57869 2.79429 1.85693 2.30255 2.30838C1.60844 2.94675 1.23545 3.73989 1.16343 4.67922C1.13341 5.07965 1.22688 5.46722 1.27575 5.8595C1.31862 6.21706 1.37607 6.5729 1.42795 6.93131C1.45453 7.11566 1.48282 7.30173 1.51326 7.5058Z" fill="black"/>
<path d="M6.40421 14.9983C5.39285 14.9983 4.36863 14.492 3.36027 13.493L3.32726 13.4566C3.30711 13.4343 3.28953 13.4137 3.27067 13.397C2.72747 12.8847 2.33733 12.3479 2.07795 11.7558C1.92491 11.4226 1.82841 11.0661 1.79242 10.7012C1.78556 10.6176 1.75341 10.5756 1.67024 10.5391C1.34569 10.3985 1.10947 10.1404 0.94698 9.75027C0.761867 9.31413 0.738754 8.82618 0.881814 8.37449C0.903197 8.28366 0.905823 8.18942 0.889531 8.09754C0.850517 7.80858 0.807216 7.51533 0.76563 7.23151C0.742193 7.07174 0.718898 6.91197 0.695747 6.7522L0.676883 6.61972C0.634011 6.32262 0.591139 6.01565 0.551696 5.71254C0.542693 5.64266 0.532832 5.57278 0.522543 5.5029C0.485609 5.29393 0.465822 5.08229 0.463379 4.8701C0.494676 3.40258 1.11718 2.24802 2.31418 1.4403C2.80078 1.11104 3.3577 0.866672 4.01665 0.693039C4.53836 0.550287 5.07392 0.464046 5.61407 0.435804L5.84087 0.425086C6.21819 0.400333 6.59653 0.394752 6.97441 0.408365C8.22114 0.474818 9.19306 0.703328 10.0334 1.12691C11.037 1.6328 11.7131 2.33377 12.1002 3.27053C12.3618 3.9029 12.4681 4.53998 12.4158 5.16377C12.3965 5.39443 12.3592 5.62723 12.3232 5.85231C12.306 5.95863 12.2889 6.06667 12.2739 6.1717C12.2227 6.5284 12.1718 6.88567 12.1212 7.24352C12.111 7.31597 12.102 7.38842 12.0925 7.46088C12.0728 7.61651 12.0527 7.77685 12.0214 7.93248C11.9763 8.15841 12.0081 8.37106 12.0497 8.56699C12.1783 9.18649 12.0458 9.74255 11.6509 10.2201C11.5257 10.3673 11.3677 10.4832 11.1896 10.5584C11.1689 10.5688 11.1505 10.5835 11.1358 10.6014C11.121 10.6194 11.1101 10.6402 11.1039 10.6626C11.0139 11.4922 10.6516 12.2583 9.99606 13.0056C9.90089 13.114 9.79671 13.2174 9.69596 13.3168L9.59949 13.4133C9.58201 13.4293 9.56239 13.4429 9.54119 13.4536L9.51761 13.4673C8.47581 14.4795 7.43272 14.9953 6.4175 15L6.40421 14.9983ZM3.38942 13.463C5.41386 15.4656 7.40957 15.4557 9.49103 13.433L9.49446 13.4304C9.50346 13.4249 9.51246 13.4197 9.52189 13.4141C9.5396 13.4052 9.55604 13.394 9.57077 13.3807L9.66766 13.2842C9.76798 13.1848 9.8713 13.0823 9.96562 12.9751C10.6147 12.2352 10.974 11.4746 11.0632 10.6562C11.07 10.6262 11.0834 10.5982 11.1025 10.5742C11.1216 10.5502 11.1458 10.5307 11.1733 10.5173C11.3454 10.4447 11.498 10.333 11.6192 10.191C12.0051 9.72369 12.1367 9.17964 12.0089 8.57385C11.9661 8.3732 11.9339 8.15541 11.9806 7.92219C12.0115 7.76742 12.0316 7.6075 12.0514 7.45273C12.0604 7.37985 12.0698 7.3074 12.0801 7.23451C12.1307 6.87782 12.1816 6.52055 12.2327 6.1627C12.2482 6.05595 12.2653 5.94834 12.282 5.84244C12.318 5.61822 12.3553 5.38628 12.3742 5.15649C12.4261 4.53955 12.321 3.90933 12.0621 3.28339C11.6788 2.35692 11.0096 1.66281 10.0154 1.16163C9.18063 0.741056 8.21471 0.514259 6.97141 0.447807C6.59495 0.434296 6.21805 0.439877 5.84215 0.464528L5.61493 0.475246C5.07858 0.503112 4.54677 0.588489 4.02865 0.729908C3.37442 0.901398 2.82222 1.14492 2.33948 1.47117C1.15491 2.27246 0.538834 3.41544 0.507537 4.86838C0.509208 5.07821 0.527991 5.28755 0.5637 5.49432C0.57399 5.56463 0.583851 5.63451 0.592854 5.70483C0.63101 6.0075 0.675169 6.31447 0.718041 6.61115L0.736905 6.74362C0.75977 6.9034 0.783064 7.06317 0.806787 7.22294C0.849659 7.50675 0.892532 7.80043 0.930688 8.08939C0.947887 8.18731 0.944676 8.28773 0.921256 8.38435C0.781167 8.82643 0.803671 9.30402 0.984708 9.73097C1.14248 10.1104 1.37056 10.3608 1.68524 10.4967C1.78342 10.5395 1.82458 10.5944 1.83315 10.6943C1.86874 11.0547 1.96408 11.4066 2.11525 11.7357C2.37249 12.3222 2.75834 12.8547 3.2981 13.3648C3.31825 13.3837 3.33626 13.4039 3.35684 13.427L3.38942 13.463ZM6.44494 14.2729C6.14244 14.2707 5.84308 14.2113 5.56263 14.098C5.18752 13.9561 4.82911 13.7735 4.49382 13.5535C3.77013 13.0673 3.24837 12.5353 2.89853 11.9269C2.59585 11.3996 2.44451 10.871 2.4368 10.3098C2.4338 10.0894 2.3159 9.96677 2.09382 9.95563C1.81472 9.94148 1.61665 9.77856 1.53648 9.49689C1.40786 9.05359 1.4383 8.64202 1.62222 8.27417C1.70325 8.11254 1.85202 8.02165 2.07624 7.99593C2.33347 7.96677 2.38964 7.91276 2.44151 7.65552C2.55584 7.08932 2.66902 6.52312 2.78106 5.95691C2.78283 5.92189 2.79812 5.88891 2.82371 5.86492C2.84929 5.84094 2.88319 5.82781 2.91825 5.8283C3.01943 5.81929 3.12061 5.81115 3.22179 5.803C3.53476 5.77771 3.85845 5.75199 4.1727 5.70225C4.92468 5.5835 5.44773 5.37342 5.86788 5.02144C6.00797 4.89594 6.13706 4.75868 6.25373 4.61115C6.2876 4.57128 6.32104 4.53098 6.35534 4.49153C6.38963 4.45209 6.41279 4.42851 6.44494 4.43066C6.47023 4.43066 6.49296 4.45038 6.5204 4.49196C6.85008 4.98542 7.33712 5.32755 8.00936 5.53891C8.67388 5.7477 9.3504 5.80129 9.92447 5.82658C10.0351 5.8313 10.084 5.87374 10.105 5.98264C10.1718 6.33205 10.2434 6.68703 10.3125 7.03001C10.3393 7.16349 10.3661 7.29682 10.3926 7.43001C10.4115 7.52433 10.4304 7.61908 10.4479 7.71383C10.4792 7.88146 10.58 7.97406 10.748 7.99036C10.8891 8.00365 11.037 8.02637 11.1553 8.13784C11.2737 8.2493 11.3238 8.40707 11.3697 8.55541L11.3868 8.61201C11.4079 8.69149 11.419 8.77329 11.4199 8.85552C11.4199 8.88767 11.4229 8.91897 11.4259 8.94812L11.4229 8.99614C11.4074 9.22979 11.3933 9.45059 11.2792 9.65166C11.2303 9.74344 11.1571 9.81999 11.0675 9.87293C10.978 9.92586 10.8756 9.95314 10.7716 9.95177C10.5856 9.95691 10.4539 10.0804 10.4514 10.2557C10.4394 11.1205 10.1234 11.8909 9.4846 12.6137C9.22618 12.8968 8.9388 13.152 8.62715 13.3751C8.22891 13.6667 7.79493 13.906 7.33583 14.0872C7.05371 14.2063 6.75113 14.2693 6.44494 14.2729ZM6.44494 4.47524C6.43208 4.47524 6.41064 4.49925 6.39092 4.52155C6.35705 4.56099 6.32361 4.60043 6.28974 4.64073C6.17087 4.79038 6.03934 4.92951 5.8966 5.05659C5.46788 5.41415 4.94055 5.6268 4.1817 5.74684C3.86616 5.79657 3.54162 5.82272 3.22779 5.84802C3.12661 5.85616 3.02543 5.86431 2.92426 5.87331C2.86209 5.87889 2.83851 5.90118 2.82522 5.96592C2.71261 6.53241 2.59943 7.09875 2.48567 7.66495C2.42994 7.94148 2.35705 8.00793 2.0831 8.03923C1.87431 8.06324 1.73669 8.14641 1.66252 8.29432C1.48031 8.65702 1.45287 9.04716 1.57678 9.48575C1.65223 9.74855 1.83658 9.90032 2.09553 9.91447C2.33819 9.9269 2.4741 10.0675 2.47753 10.3106C2.48524 10.8641 2.63444 11.3863 2.93369 11.9072C3.28481 12.5181 3.78728 13.0304 4.51568 13.5196C4.84842 13.7379 5.2041 13.9191 5.57634 14.0598C6.16755 14.2913 6.73819 14.2887 7.32125 14.0525C7.777 13.8726 8.2078 13.635 8.60314 13.3455C8.91183 13.1241 9.19649 12.8709 9.45244 12.5901C10.084 11.8776 10.3956 11.1158 10.4085 10.2622C10.4111 10.0641 10.5598 9.92133 10.7703 9.91575C10.8672 9.91766 10.9627 9.89246 11.046 9.843C11.1294 9.79353 11.1972 9.72177 11.2419 9.6358C11.3513 9.44287 11.3654 9.22722 11.3804 8.99828L11.3834 8.95541C11.3804 8.92626 11.3791 8.89496 11.3774 8.86238C11.3769 8.7838 11.3665 8.70559 11.3465 8.62958L11.3294 8.57256C11.2865 8.42937 11.2437 8.28146 11.1279 8.17385C11.0121 8.06624 10.8797 8.05038 10.7459 8.03794C10.5603 8.02036 10.4437 7.91275 10.4089 7.72669C10.3913 7.63194 10.3725 7.53762 10.3536 7.44373C10.327 7.31026 10.3003 7.17692 10.2734 7.04373C10.2044 6.70075 10.1328 6.34577 10.0659 5.99593C10.0488 5.9059 10.0171 5.87846 9.92575 5.8746C9.34869 5.8493 8.66873 5.79528 7.99949 5.58521C7.31739 5.37085 6.82307 5.02315 6.48781 4.52112C6.46509 4.48682 6.45223 4.47824 6.44494 4.47824V4.47524ZM1.49489 7.53633L1.46188 7.31597C1.44216 7.18435 1.42329 7.05874 1.40486 6.93269C1.39057 6.83437 1.37628 6.73619 1.36199 6.63816C1.32426 6.38392 1.28524 6.12154 1.25309 5.86217C1.24023 5.75799 1.22394 5.65209 1.20807 5.54963C1.1652 5.26667 1.1189 4.97385 1.14076 4.6776C1.21193 3.72926 1.59693 2.92712 2.28589 2.29347C2.73819 1.8776 3.30153 1.57878 4.00807 1.38028C4.98556 1.10547 6.04408 1.02101 7.3384 1.11405C7.81087 1.14481 8.2794 1.22002 8.73776 1.3387C9.90646 1.64695 10.7266 2.21415 11.2449 3.07289C11.6394 3.72626 11.8053 4.42251 11.7375 5.14234C11.7157 5.37642 11.6784 5.61394 11.6428 5.84159C11.6261 5.94791 11.6094 6.05595 11.5939 6.16056L11.5442 6.50868C11.5102 6.74591 11.476 6.98299 11.4417 7.21994C11.4327 7.28167 11.422 7.34298 11.4109 7.40815C11.4053 7.43901 11.4001 7.47117 11.3941 7.50418L11.3898 7.53076L11.365 7.52047C11.335 7.50804 11.3058 7.49646 11.2792 7.48532C11.2138 7.46076 11.1499 7.43212 11.088 7.39957C11.0493 7.37098 11.0235 7.32832 11.016 7.28081C10.9397 6.92069 10.8662 6.55999 10.7956 6.19871C10.7573 6.00722 10.7189 5.81586 10.6803 5.62465C10.6769 5.60665 10.6734 5.58864 10.67 5.57063C10.6609 5.50694 10.6445 5.4445 10.6211 5.38457C10.5701 5.26924 10.4737 5.20665 10.3343 5.1985C10.2057 5.19121 10.0801 5.18478 9.95319 5.17835C9.62564 5.16206 9.28738 5.14491 8.95598 5.1089C8.4145 5.04973 7.96648 4.90311 7.5862 4.66002C7.35812 4.51426 7.17077 4.30933 6.97913 3.99507C6.90143 3.86374 6.81551 3.73744 6.7219 3.61694C6.69061 3.57386 6.65007 3.53833 6.60326 3.51295C6.55644 3.48758 6.50455 3.47301 6.45137 3.47031C6.39979 3.47155 6.34915 3.48433 6.30315 3.5077C6.25716 3.53106 6.21698 3.56444 6.18556 3.60536C6.06984 3.74402 5.96642 3.89249 5.87645 4.04909C5.60807 4.51126 5.18621 4.81136 4.55384 4.98285C3.87645 5.16806 3.18192 5.19464 2.64987 5.19722C2.36777 5.19722 2.27088 5.28082 2.21772 5.56292C2.15727 5.88318 2.0891 6.206 2.02694 6.52155C1.99835 6.66703 1.96877 6.81251 1.93819 6.95799L1.92404 7.02787C1.90818 7.10418 1.89189 7.1835 1.88117 7.26152C1.87951 7.30169 1.86473 7.3402 1.8391 7.37117C1.81348 7.40214 1.77841 7.42386 1.73926 7.43301C1.69263 7.44833 1.6472 7.4671 1.60336 7.48918C1.57849 7.50075 1.55191 7.51318 1.52233 7.52647L1.49489 7.53633ZM6.37977 1.12005C5.50775 1.12005 4.7429 1.21866 4.02179 1.42016C3.32168 1.61694 2.76391 1.91233 2.31675 2.32348C1.63637 2.94941 1.25566 3.74212 1.18535 4.68146C1.16349 4.97299 1.2085 5.26324 1.25223 5.54405C1.26809 5.64652 1.28439 5.75284 1.29768 5.85788C1.32983 6.11511 1.36884 6.37921 1.40614 6.63301C1.42072 6.73133 1.43501 6.82965 1.44902 6.92797C1.46745 7.05402 1.48632 7.17964 1.50604 7.31125L1.5309 7.47631L1.58535 7.45102C1.63112 7.42792 1.67855 7.40829 1.72726 7.39228C1.75809 7.38545 1.78578 7.36856 1.80596 7.34427C1.82614 7.31997 1.83767 7.28966 1.83873 7.25809C1.84987 7.17878 1.86616 7.09904 1.8816 7.02187L1.89575 6.95198C1.92433 6.8065 1.95391 6.66102 1.98449 6.51554C2.0488 6.20172 2.11311 5.8776 2.17527 5.55777C2.23229 5.25766 2.34676 5.15863 2.64944 5.15692C3.17763 5.15434 3.87002 5.12776 4.54226 4.94255C5.16305 4.77106 5.57506 4.4821 5.83829 4.02765C5.92951 3.86893 6.03437 3.71846 6.15169 3.57792C6.18675 3.53271 6.23138 3.49581 6.28237 3.46987C6.33337 3.44393 6.38947 3.42959 6.44665 3.42787H6.45051C6.51007 3.4306 6.56825 3.44666 6.62078 3.47485C6.67332 3.50305 6.71885 3.54267 6.75405 3.59079C6.84775 3.71273 6.93366 3.84045 7.01128 3.97321C7.19949 4.28189 7.38256 4.48253 7.60464 4.62444C7.97892 4.86367 8.41921 5.01029 8.95598 5.06688C9.28609 5.1029 9.62393 5.11962 9.95062 5.13591C10.0792 5.14234 10.2053 5.14877 10.3322 5.15606C10.4014 5.15552 10.4693 5.1754 10.5274 5.21322C10.5854 5.25104 10.631 5.30512 10.6584 5.3687C10.6833 5.43163 10.7007 5.49724 10.7103 5.5642C10.7137 5.58221 10.7167 5.59979 10.7206 5.61779C10.7592 5.80929 10.7976 6.00065 10.8359 6.19186C10.9082 6.55284 10.9811 6.91354 11.0546 7.27396C11.0601 7.30895 11.078 7.34078 11.1052 7.36356C11.1656 7.39486 11.2278 7.42235 11.2917 7.44587L11.353 7.46945L11.365 7.39957C11.3761 7.33483 11.3868 7.27396 11.3958 7.21265C11.4304 6.97571 11.4646 6.73862 11.4983 6.50139L11.548 6.15327C11.5635 6.04652 11.5802 5.93891 11.5969 5.83344C11.6325 5.60536 11.6698 5.36956 11.6917 5.13677C11.7581 4.42637 11.5943 3.7387 11.2051 3.09347C10.6927 2.24459 9.88116 1.68382 8.72404 1.37857C8.26917 1.2609 7.80424 1.18625 7.3354 1.15563C7.00185 1.13248 6.68331 1.12005 6.37977 1.12005Z" fill="black"/>
<path d="M5.92062 8.50739C5.92534 8.71232 5.79201 8.86666 5.6008 8.87952C5.55706 8.88285 5.5131 8.87747 5.47145 8.8637C5.42981 8.84992 5.39131 8.82803 5.35818 8.79929C5.32505 8.77054 5.29794 8.73551 5.27844 8.69623C5.25893 8.65694 5.2474 8.61418 5.24453 8.57041C5.23638 8.49881 5.20165 8.46237 5.13863 8.46152C4.85353 8.45937 4.568 8.45894 4.28118 8.46152C4.18 8.46152 4.18686 8.55026 4.17357 8.61843C4.15872 8.6883 4.12129 8.75135 4.06705 8.79783C4.01281 8.84432 3.94479 8.87167 3.87347 8.87566C3.72813 8.88681 3.57336 8.79721 3.53477 8.6643C3.46875 8.44608 3.52577 8.01093 3.85117 7.87631C3.99202 7.81688 4.14221 7.78264 4.2949 7.77513C4.61574 7.76268 4.937 7.76698 5.25739 7.78799C5.68654 7.82143 5.91076 8.07609 5.92062 8.50739Z" fill="black"/>
<path d="M5.5764 8.90223C5.48678 8.90224 5.4005 8.86826 5.33494 8.80716C5.26938 8.74606 5.22943 8.66237 5.22313 8.57297C5.21627 8.51038 5.19055 8.4838 5.13739 8.48337C4.82099 8.4808 4.54103 8.48337 4.28208 8.48337C4.21863 8.48337 4.21049 8.52153 4.20105 8.58798C4.20105 8.59998 4.19763 8.61199 4.19548 8.62313C4.18007 8.69817 4.14025 8.76599 4.08224 8.81602C4.02422 8.86604 3.95128 8.89545 3.8748 8.89966C3.71445 8.91209 3.55582 8.81392 3.51381 8.67287C3.47686 8.52872 3.48087 8.37713 3.52539 8.23514C3.54673 8.15266 3.58632 8.07601 3.64123 8.01087C3.69614 7.94572 3.76497 7.89373 3.84264 7.85872C3.98574 7.79812 4.13843 7.76328 4.29366 7.75582C4.61521 7.74319 4.93719 7.74748 5.25829 7.76869C5.69473 7.79913 5.93053 8.05379 5.94082 8.50566C5.94553 8.72003 5.80277 8.88637 5.60127 8.89966L5.5764 8.90223ZM4.75068 8.43878C4.87372 8.43878 5.00234 8.43878 5.13653 8.43878C5.21156 8.43878 5.254 8.48165 5.26515 8.5674C5.26798 8.60836 5.27885 8.64837 5.29715 8.68513C5.31544 8.72189 5.3408 8.75468 5.37178 8.78164C5.40276 8.80859 5.43874 8.82918 5.47768 8.84222C5.51661 8.85526 5.55773 8.8605 5.5987 8.85765C5.77962 8.84564 5.90309 8.70159 5.8988 8.50738C5.88894 8.08123 5.66686 7.84071 5.25572 7.81242C4.93605 7.79121 4.61549 7.78691 4.29537 7.79956C4.14565 7.80659 3.99835 7.83997 3.86022 7.89816C3.54382 8.02892 3.49452 8.4555 3.55583 8.66043C3.59184 8.77962 3.73332 8.86751 3.87222 8.85679C3.9394 8.85326 4.00352 8.82758 4.05456 8.78375C4.1056 8.73993 4.14068 8.68043 4.15432 8.61456C4.15432 8.60384 4.15818 8.5927 4.15947 8.58155C4.16804 8.52238 4.17962 8.44178 4.28251 8.44007C4.43128 8.43964 4.58691 8.43878 4.75068 8.43878Z" fill="black"/>
<path d="M9.37412 8.51273C9.3784 8.71294 9.26093 8.85571 9.07401 8.87758C8.88709 8.89944 8.74132 8.78326 8.70745 8.58347C8.69287 8.49773 8.65 8.45485 8.56726 8.45485C8.29973 8.45485 8.03221 8.45485 7.76468 8.45786C7.74872 8.45588 7.73251 8.45744 7.71721 8.46242C7.70191 8.46741 7.68789 8.4757 7.67615 8.4867C7.66441 8.4977 7.65524 8.51115 7.64927 8.5261C7.64331 8.54104 7.6407 8.55712 7.64164 8.57318C7.63591 8.6579 7.59755 8.73709 7.53462 8.7941C7.47169 8.85111 7.38911 8.8815 7.30424 8.87886C7.21712 8.87947 7.13321 8.846 7.07041 8.78561C7.00762 8.72522 6.97091 8.64268 6.96812 8.5556C6.9634 8.1466 7.12803 7.83192 7.60048 7.79419C7.96679 7.76734 8.33452 7.76591 8.70102 7.7899C9.15118 7.81691 9.36468 8.06343 9.37412 8.51273Z" fill="black"/>
<path d="M9.03219 8.90226C8.85813 8.90226 8.71922 8.77836 8.68664 8.588C8.67335 8.50997 8.63905 8.47782 8.56746 8.47782C8.24505 8.47782 7.99768 8.47782 7.76488 8.48082C7.69757 8.48082 7.66928 8.50869 7.66328 8.57643C7.65711 8.66656 7.61622 8.7508 7.54921 8.81141C7.48221 8.87201 7.39431 8.90427 7.304 8.9014C7.21163 8.90169 7.12275 8.86608 7.05612 8.80209C6.98949 8.7381 6.95032 8.65074 6.94688 8.55842C6.9413 8.08039 7.16681 7.80987 7.59897 7.77514C7.96626 7.74801 8.33501 7.74658 8.7025 7.77085C9.15309 7.79786 9.38846 8.04781 9.39618 8.51426C9.40047 8.72562 9.27528 8.87696 9.07635 8.90011C9.06169 8.90169 9.04694 8.9024 9.03219 8.90226ZM8.38096 8.43452H8.56617C8.65834 8.43452 8.71108 8.48253 8.7278 8.58028C8.75909 8.76592 8.89714 8.87696 9.07078 8.85638C9.24441 8.8358 9.35674 8.70376 9.35288 8.5134C9.34345 8.06667 9.12951 7.8373 8.6995 7.81158C8.334 7.7875 7.96727 7.78893 7.60197 7.81587C7.18996 7.84888 6.98375 8.09797 6.98932 8.55585C6.99276 8.63694 7.02753 8.71353 7.0863 8.76951C7.14507 8.82548 7.22327 8.85647 7.30443 8.85596H7.31215C7.39011 8.85605 7.46521 8.8266 7.52233 8.77354C7.57945 8.72048 7.61434 8.64775 7.61997 8.56999C7.61896 8.55123 7.62207 8.53246 7.62908 8.51503C7.6361 8.49759 7.64685 8.4819 7.66059 8.46907C7.67432 8.45624 7.6907 8.44657 7.70857 8.44075C7.72644 8.43493 7.74537 8.43309 7.76403 8.43538C7.95052 8.43581 8.14559 8.43495 8.38096 8.43495V8.43452Z" fill="black"/>
</svg>
