<svg width="18" height="12" viewBox="0 0 18 12" fill="none" xmlns="http://www.w3.org/2000/svg">
<path d="M6.57329 0.00375006C8.36635 0.00375006 10.1557 0.00747009 11.9487 3.00327e-05C12.477 -0.00369 12.9494 0.338553 13.0871 0.818437C13.1168 0.918877 13.1354 1.02676 13.1354 1.1272C13.1391 3.22902 13.1391 5.33083 13.1354 7.43265C13.1354 8.06133 12.6258 8.57098 11.9934 8.57098C9.67952 8.57098 7.36938 8.57098 5.05552 8.57098C4.98484 8.57098 4.91416 8.5747 4.84348 8.57098C4.77652 8.56726 4.75792 8.59702 4.75792 8.66026C4.75792 9.38567 4.75792 10.1111 4.76164 10.8365C4.76164 11.0894 4.92532 11.242 5.182 11.242C7.88646 11.242 10.5946 11.242 13.2991 11.242C14.1733 11.242 15.0475 11.2382 15.9217 11.2457C16.197 11.2494 16.383 11.0671 16.3793 10.7844C16.3719 9.80231 16.3756 8.82022 16.3756 7.83813C16.3756 7.71537 16.3756 7.71537 16.2528 7.71537C15.386 7.71537 14.5156 7.71537 13.6488 7.71537C13.5149 7.71537 13.5149 7.71537 13.5149 7.57773C13.5149 7.42149 13.5149 7.26897 13.5149 7.11273C13.5149 6.95277 13.5149 6.95277 13.6711 6.95277C14.4337 6.95277 15.1963 6.95277 15.9589 6.95277C16.0631 6.95277 16.171 6.94905 16.2751 6.95277C16.3495 6.95649 16.3793 6.93045 16.3793 6.85232C16.3756 6.60308 16.3756 6.35756 16.3793 6.10832C16.383 6.01904 16.3495 6.00044 16.2677 6.00044C15.3972 6.00416 14.5267 6.00044 13.6562 6.00044C13.5186 6.00044 13.5186 6.00044 13.5186 5.8628C13.5186 5.69912 13.5186 5.53543 13.5186 5.37175C13.5186 5.23783 13.5186 5.23783 13.6525 5.23783C14.497 5.23783 15.3451 5.23783 16.1896 5.23783C16.2156 5.23783 16.2454 5.23411 16.2714 5.23783C16.3533 5.24527 16.3793 5.21551 16.3793 5.12995C16.3756 4.95511 16.3793 4.77655 16.3756 4.60171C16.3719 4.35246 16.2119 4.18878 15.9589 4.18878C15.1926 4.18878 14.4263 4.18878 13.6637 4.18878C13.5149 4.18878 13.5149 4.18878 13.5149 4.0437C13.5149 3.86886 13.5186 3.69774 13.5149 3.5229C13.5149 3.45222 13.5409 3.43362 13.6079 3.43362C14.4188 3.43362 15.2335 3.42618 16.0445 3.43734C16.6546 3.44478 17.1345 3.96186 17.1382 4.59427C17.1382 5.52799 17.1382 6.46172 17.1382 7.39173C17.1382 8.53378 17.1345 9.67211 17.1382 10.8142C17.1382 11.1229 17.0526 11.3945 16.8406 11.6214C16.6099 11.8744 16.3198 12.0008 15.9738 11.9971C14.8243 11.9934 13.6748 11.9971 12.5253 11.9971C10.0924 11.9971 7.65954 11.9934 5.22664 12.0008C4.82116 12.0008 4.48636 11.8706 4.23339 11.5507C4.07343 11.3498 3.99531 11.1192 3.99531 10.8625C3.99159 10.1408 3.99531 9.41915 3.99531 8.69746C3.99531 8.5747 3.99531 8.5747 3.86883 8.5747C2.9723 8.5747 2.07578 8.5747 1.18297 8.5747C0.665885 8.5747 0.256682 8.30686 0.0744006 7.82697C0.0260402 7.70049 0.00372139 7.55541 0.00372139 7.41777C1.36226e-06 5.34199 0.00372003 3.2625 0 1.18672C0 0.617555 0.353404 0.208352 0.758887 0.0744306C0.903968 0.0260702 1.06765 0.00747009 1.22389 0.00747009C2.75282 0.00375006 4.28176 0.00375006 5.80697 0.00375006C6.05621 0.00375006 6.31661 0.00375006 6.57329 0.00375006ZM6.57329 0.762636C4.77652 0.762636 2.97602 0.762636 1.17925 0.762636C0.918848 0.762636 0.751447 0.922597 0.751447 1.17184C0.751447 3.24018 0.751447 5.30851 0.751447 7.37313C0.751447 7.65585 0.903967 7.80837 1.19041 7.80837C1.53265 7.80837 1.87118 7.80837 2.21342 7.80837C4.74676 7.80837 7.2801 7.80837 9.80972 7.80837C10.5202 7.80837 11.2308 7.80837 11.9376 7.80837C12.1124 7.80837 12.2575 7.74885 12.3282 7.58145C12.3579 7.51449 12.3654 7.43265 12.3654 7.35453C12.3691 6.4766 12.3654 5.59867 12.3654 4.72447C12.3654 3.5601 12.3654 2.39201 12.3654 1.22764C12.3654 1.14952 12.3617 1.06396 12.3319 0.993278C12.2612 0.825877 12.1236 0.758916 11.945 0.758916C10.1594 0.762636 8.36635 0.762636 6.57329 0.762636Z" fill="black"/>
<path d="M3.22522 4.1888C2.90902 4.1888 2.59282 4.19252 2.27661 4.1888C1.87485 4.18508 1.54749 3.89864 1.52517 3.50059C1.50657 3.12487 1.51029 2.74543 1.52889 2.36598C1.54749 2.0349 1.87113 1.73358 2.20593 1.72614C2.67838 1.71498 3.15454 1.72242 3.62698 1.7187C3.80927 1.7187 3.99155 1.72614 4.17383 1.7187C4.54955 1.70382 4.92899 2.02374 4.94016 2.47015C4.94759 2.79379 4.94759 3.12115 4.94016 3.44479C4.92899 3.85772 4.59791 4.18136 4.18499 4.1888C3.87251 4.19252 3.54886 4.1888 3.22522 4.1888ZM3.23638 2.47387C2.94994 2.47387 2.65978 2.47387 2.37333 2.47387C2.30637 2.47387 2.28033 2.49247 2.28033 2.56315C2.28405 2.82355 2.28405 3.08395 2.28033 3.34435C2.28033 3.41503 2.30637 3.43363 2.37333 3.43363C2.9425 3.42991 3.51538 3.42991 4.08455 3.43363C4.16267 3.43363 4.18499 3.40387 4.18499 3.32947C4.18127 3.08023 4.18127 2.82727 4.18499 2.57803C4.18499 2.49247 4.15523 2.47387 4.07711 2.47387C3.79439 2.47759 3.51538 2.47387 3.23638 2.47387Z" fill="black"/>
</svg>
