<svg width="11" height="16" viewBox="0 0 11 16" fill="none" xmlns="http://www.w3.org/2000/svg">
<path d="M5.40523 15.6091L5.40522 15.6091C5.30859 15.5168 4.03643 14.288 2.79085 12.4803C1.53909 10.6636 0.35 8.31323 0.35 5.96884C0.35 2.84338 2.68697 0.35 5.5 0.35C8.31303 0.35 10.65 2.84338 10.65 5.96884C10.65 8.31326 9.46089 10.6636 8.20914 12.4803C6.96356 14.288 5.69141 15.5168 5.5948 15.6091C5.56327 15.6392 5.52952 15.65 5.5 15.65C5.47056 15.65 5.43678 15.6392 5.40523 15.6091ZM7.37779 5.96884C7.37779 4.88271 6.56546 3.94321 5.5 3.94321C4.43454 3.94321 3.62221 4.88271 3.62221 5.96884C3.62221 7.05497 4.43454 7.99447 5.5 7.99447C6.56546 7.99447 7.37779 7.05497 7.37779 5.96884Z" stroke="black" stroke-width="0.7"/>
</svg>
