<svg width="18" height="12" viewBox="0 0 18 12" fill="none" xmlns="http://www.w3.org/2000/svg">
<path d="M8.56723 0.00279002C11.0262 0.00279002 13.4851 0.00279002 15.9403 0.00279002C16.4016 0.00279002 16.7513 0.188792 16.9894 0.583115C17.1047 0.776556 17.1382 0.984879 17.1382 1.20808C17.1382 2.90813 17.1382 4.60447 17.1382 6.30452C17.1382 7.49493 17.1382 8.68534 17.1382 9.87575C17.1382 10.3854 16.8778 10.7872 16.409 10.9657C16.264 11.0215 16.0966 11.0476 15.9366 11.0476C13.9948 11.0513 12.0566 11.0513 10.1148 11.0513C7.13874 11.0513 4.16271 11.0513 1.18669 11.0513C0.695646 11.0513 0.334804 10.8318 0.107882 10.3966C0.0223211 10.2292 0 10.0506 0 9.86459C0 8.58862 0 7.30893 0 6.03296C0 4.42591 0.00372003 2.81513 0 1.20808C0 0.880718 0.0930012 0.594275 0.323643 0.356193C0.558005 0.114391 0.848166 0.00651028 1.18297 0.00651028C2.29526 0.0102303 3.40755 0.00651028 4.51984 0.00651028C5.87021 -0.00092978 7.22058 -0.000930007 8.56723 0.00279002C8.56723 -0.000930007 8.56723 -0.000930007 8.56723 0.00279002ZM8.57467 5.33359C7.11642 5.33359 5.66189 5.33359 4.20363 5.33359C3.09506 5.33359 1.98278 5.33359 0.874207 5.32987C0.784926 5.32987 0.755167 5.35219 0.758887 5.44519C0.766327 5.63863 0.762606 5.8358 0.762606 6.02924C0.762606 7.30893 0.762606 8.58862 0.762606 9.86831C0.762606 10.0394 0.833286 10.1734 0.989527 10.2403C1.06021 10.2701 1.14577 10.2775 1.22389 10.2775C6.13433 10.2775 11.0448 10.2775 15.9552 10.2812C16.2082 10.2812 16.3867 10.0841 16.3867 9.84599C16.3793 8.38774 16.383 6.92577 16.383 5.46751C16.383 5.33359 16.383 5.33359 16.2454 5.33359C13.6897 5.33359 11.1303 5.33359 8.57467 5.33359ZM8.57095 2.47289C11.1378 2.47289 13.7046 2.47289 16.2677 2.47289C16.357 2.47289 16.383 2.44685 16.383 2.35757C16.3793 1.97813 16.383 1.59496 16.383 1.21552C16.383 0.906758 16.2342 0.757957 15.9254 0.757957C14.735 0.757957 13.5446 0.757957 12.3542 0.757957C9.06943 0.757957 5.78465 0.757957 2.49986 0.757957C2.05346 0.757957 1.60705 0.757957 1.16065 0.757957C0.948608 0.757957 0.766326 0.914198 0.762606 1.11136C0.755166 1.54288 0.758886 1.97441 0.762606 2.40221C0.762606 2.42453 0.799807 2.45429 0.825847 2.46545C0.848167 2.47661 0.881648 2.46917 0.907688 2.46917C3.46335 2.47289 6.01901 2.47289 8.57095 2.47289ZM8.58211 3.23922C8.08362 3.23922 7.58514 3.23922 7.08666 3.23922C5.01832 3.23922 2.94998 3.23922 0.885367 3.2355C0.792366 3.2355 0.762606 3.25782 0.762606 3.35454C0.770046 3.71538 0.766325 4.0725 0.766325 4.43335C0.766325 4.56727 0.766327 4.56727 0.900248 4.56727C1.96046 4.56727 3.02066 4.56727 4.08087 4.56727C6.71465 4.56727 9.35216 4.56727 11.9859 4.56727C13.4107 4.56727 14.8392 4.56727 16.264 4.56727C16.3867 4.56727 16.3867 4.56727 16.3867 4.44451C16.3867 4.09854 16.3867 3.74886 16.3867 3.4029C16.3867 3.2355 16.4165 3.23922 16.223 3.23922C13.6711 3.23922 11.1266 3.23922 8.58211 3.23922Z" fill="black"/>
<path d="M12.5662 8.94948C11.785 8.94948 11.0037 8.94948 10.2225 8.94948C10.0923 8.94948 10.0923 8.94948 10.0923 8.823C10.0923 8.20175 10.0923 7.58423 10.0886 6.96298C10.0886 6.87742 10.1147 6.8551 10.2002 6.8551C11.7812 6.85882 13.3585 6.85882 14.9395 6.8551C15.0251 6.8551 15.0437 6.88114 15.0437 6.96298C15.04 7.58423 15.04 8.20919 15.0437 8.83044C15.0437 8.92344 15.0177 8.94948 14.9247 8.94948C14.1397 8.94576 13.3548 8.94948 12.5662 8.94948ZM12.5699 8.19431C12.5699 8.19431 12.5699 8.19059 12.5699 8.19431C13.1018 8.19431 13.6375 8.19059 14.1695 8.19431C14.2588 8.19431 14.2923 8.16455 14.2848 8.07527C14.2811 7.96739 14.2848 7.85951 14.2848 7.75163C14.2848 7.62515 14.2811 7.61771 14.1546 7.61771C13.8124 7.61771 13.4664 7.61771 13.1242 7.61771C12.4099 7.61771 11.692 7.61771 10.9777 7.61771C10.8661 7.61771 10.8587 7.62515 10.8587 7.74047C10.8587 7.84835 10.8587 7.95623 10.8587 8.06411C10.8587 8.18687 10.8624 8.19059 10.9814 8.19059C11.5097 8.19431 12.0416 8.19431 12.5699 8.19431Z" fill="black"/>
</svg>
