<svg width="608" height="296" viewBox="0 0 608 296" fill="none" xmlns="http://www.w3.org/2000/svg">
<path fill-rule="evenodd" clip-rule="evenodd" d="M285.73 71.0164L285.746 71H287.347C293.234 71 299.161 71.4298 304.971 72.4451L304.979 72.4532H304.991C310.449 73.4398 315.773 74.9872 320.912 77.0873H320.916C331.347 81.361 340.394 87.9395 348.228 96.0695C364.868 113.328 373 134.21 373 158.309C373 169.186 370.657 179.654 366.403 189.63C362.063 199.868 356.009 209.001 348.293 216.943L348.277 216.959L348.261 216.976C331.694 233.624 311.629 242 288.29 242C282.893 242 277.5 241.46 272.201 240.42C266.759 239.355 261.44 237.673 256.308 235.54L256.3 235.536L256.284 235.532C245.922 231.156 236.708 224.991 228.752 216.976C212.157 200.47 204 180.206 204 156.676C204 145.382 206.282 134.435 210.495 123.992V123.984C214.794 113.394 220.905 103.962 228.878 95.8444L228.882 95.8403C236.447 88.1811 245.151 81.9341 254.977 77.6072C264.759 73.3088 275.108 71.2088 285.73 71.0164ZM287.188 90.4858C269.486 90.5554 254.618 97.1953 242.203 109.98C229.609 122.957 223.253 138.357 223.253 156.561C223.257 174.786 229.621 190.281 242.375 203.147L242.383 203.159C255.112 216.079 270.38 222.514 288.404 222.514C306.477 222.514 321.798 215.968 334.65 203.135L334.662 203.123L334.674 203.11C340.753 197.138 345.399 190.174 348.73 182.278C351.988 174.569 353.76 166.468 353.76 158.068C353.76 139.335 347.787 123.12 334.637 109.849L334.625 109.841C328.53 103.635 321.472 98.6976 313.474 95.3572C305.195 91.9022 296.389 90.4858 287.465 90.4858H287.188Z" fill="black"/>
<path d="M161.75 180H162.75V179H161.75V180ZM126.75 180H125.75V181H126.75V180ZM126.75 139.5H127.75V138.5H126.75V139.5ZM109.25 139.5V138.5H108.25V139.5H109.25ZM109.25 180V181H110.25V180H109.25ZM33.25 180L32.4661 179.379L31.1823 181H33.25V180ZM122.75 67L123.534 67.6209L124.818 66H122.75V67ZM102.75 67V66H102.269L101.969 66.3755L102.75 67ZM10 183L9.21897 182.376L9 182.649V183H10ZM10 196H9V197H10V196ZM108.75 196H109.75V195H108.75V196ZM108.75 242H107.75V243H108.75V242ZM126.75 242V243H127.75V242H126.75ZM126.75 196V195H125.75V196H126.75ZM161.75 196V197H162.75V196H161.75ZM161.75 179H126.75V181H161.75V179ZM127.75 180V139.5H125.75V180H127.75ZM126.75 138.5H109.25V140.5H126.75V138.5ZM108.25 139.5V180H110.25V139.5H108.25ZM109.25 179H33.25V181H109.25V179ZM34.0339 180.621L123.534 67.6209L121.966 66.3791L32.4661 179.379L34.0339 180.621ZM122.75 66H102.75V68H122.75V66ZM101.969 66.3755L9.21897 182.376L10.781 183.624L103.531 67.6245L101.969 66.3755ZM9 183V196H11V183H9ZM10 197H108.75V195H10V197ZM107.75 196V242H109.75V196H107.75ZM108.75 243H126.75V241H108.75V243ZM127.75 242V196H125.75V242H127.75ZM126.75 197H161.75V195H126.75V197ZM162.75 196V180H160.75V196H162.75ZM563.752 180H564.752V179H563.752V180ZM528.752 180H527.752V181H528.752V180ZM528.752 139.5H529.752V138.5H528.752V139.5ZM511.252 139.5V138.5H510.252V139.5H511.252ZM511.252 180V181H512.252V180H511.252ZM435.252 180L434.468 179.379L433.184 181H435.252V180ZM524.752 67L525.536 67.6209L526.82 66H524.752V67ZM504.752 67V66H504.271L503.971 66.3755L504.752 67ZM412.002 183L411.221 182.376L411.002 182.649V183H412.002ZM412.002 196H411.002V197H412.002V196ZM510.752 196H511.752V195H510.752V196ZM510.752 242H509.752V243H510.752V242ZM528.752 242V243H529.752V242H528.752ZM528.752 196V195H527.752V196H528.752ZM563.752 196V197H564.752V196H563.752ZM563.752 179H528.752V181H563.752V179ZM529.752 180V139.5H527.752V180H529.752ZM528.752 138.5H511.252V140.5H528.752V138.5ZM510.252 139.5V180H512.252V139.5H510.252ZM511.252 179H435.252V181H511.252V179ZM436.036 180.621L525.536 67.6209L523.968 66.3791L434.468 179.379L436.036 180.621ZM524.752 66H504.752V68H524.752V66ZM503.971 66.3755L411.221 182.376L412.783 183.624L505.533 67.6245L503.971 66.3755ZM411.002 183V196H413.002V183H411.002ZM412.002 197H510.752V195H412.002V197ZM509.752 196V242H511.752V196H509.752ZM510.752 243H528.752V241H510.752V243ZM529.752 242V196H527.752V242H529.752ZM528.752 197H563.752V195H528.752V197ZM564.752 196V180H562.752V196H564.752Z" fill="black" fill-opacity="0.2"/>
</svg>
