<svg width="69" height="21" viewBox="0 0 69 21" fill="none" xmlns="http://www.w3.org/2000/svg">
<path fill-rule="evenodd" clip-rule="evenodd" d="M17.3968 16.116C17.2009 16.8399 16.9214 17.2161 16.0197 17.4242C14.0227 17.8053 12.0256 17.9034 10.0284 17.9033C8.03146 17.9034 6.03437 17.8053 4.03729 17.4242C3.13582 17.2161 2.85618 16.8399 2.66022 16.1161C2.2652 14.0889 2.16412 12.0615 2.16455 10.0342C2.16402 8.00692 2.2652 5.97963 2.66032 3.95234C2.85618 3.22837 3.13582 2.85225 4.0374 2.64412C6.03448 2.26308 8.03146 2.16499 10.0285 2.16499C12.0257 2.16488 14.0228 2.26308 16.0198 2.64412C16.9215 2.85225 17.2009 3.22859 17.3969 3.95234C17.7921 5.97963 17.8931 8.00692 17.8926 10.0342C17.8932 12.0615 17.7921 14.0889 17.3968 16.116ZM20.0571 10.0251H20.0568C20.0558 7.87436 19.8647 5.72337 19.4783 3.57259C19.2355 2.15101 18.1165 0.911623 16.5733 0.595266C14.3965 0.198753 12.2197 0.00215 10.0428 0.00044227V0.00012207C10.0379 0.00012207 10.0332 0.000228803 10.0284 0.000228803C10.0237 0.000228803 10.019 0.00012207 10.0143 0.00012207V0.00044227C7.83763 0.00215 5.66059 0.198646 3.48377 0.595266C1.94062 0.911623 0.821632 2.15112 0.578814 3.57259C0.192333 5.72337 0.0012808 7.87436 0.000320199 10.0251H0C0 10.0281 0.000106733 10.0312 0.000106733 10.0342C0.000106733 10.0372 0 10.0404 0 10.0433H0.000320199C0.0012808 12.1941 0.192333 14.3451 0.578814 16.4958C0.821632 17.9172 1.94062 19.1568 3.48377 19.4733C5.66059 19.8696 7.83742 20.0663 10.0143 20.0681V20.0682C10.019 20.0682 10.0237 20.0682 10.0284 20.0682C10.0333 20.0681 10.038 20.0683 10.0428 20.0683V20.0678C12.2197 20.0663 14.3965 19.8697 16.5733 19.4732C18.1165 19.1566 19.2356 17.9171 19.4783 16.4957C19.8647 14.3447 20.0558 12.194 20.0568 10.0432H20.0571C20.0571 10.0401 20.057 10.0371 20.057 10.0341C20.0571 10.0311 20.0571 10.0281 20.0571 10.0251Z" fill="#C5BDBD"/>
<path fill-rule="evenodd" clip-rule="evenodd" d="M15.1258 13.3818L11.8113 10.0427L13.298 8.54479C13.4104 8.46367 13.5091 8.36537 13.5887 8.25181L14.8277 7.00367C15.1395 6.70482 15.3869 6.40383 15.3869 5.97177C15.3869 5.2906 14.8347 4.73858 14.1538 4.73858C13.7662 4.73858 13.4505 4.9323 13.1899 5.17256L13.1824 5.1844L11.6135 6.76469L11.6078 6.75893L10.0799 8.29834L8.5521 6.75904L8.54612 6.7648L6.97767 5.18451L6.96999 5.17747C6.66516 4.88811 6.39374 4.73858 6.00608 4.73858C5.32513 4.73858 4.7731 5.2906 4.7731 5.97177C4.7731 6.40383 5.04506 6.69489 5.33217 7.00367L6.57113 8.25181C6.65075 8.36527 6.74948 8.46367 6.86198 8.54479L8.34856 10.0427L5.03417 13.3818L5.03182 13.3749C4.86062 13.5867 4.77246 13.8757 4.77246 14.1692C4.77246 14.8502 5.32448 15.4024 6.00555 15.4024C6.4407 15.4022 6.75812 15.1568 7.04171 14.8361L8.22848 13.6404C8.38367 13.5437 8.51719 13.4153 8.61624 13.2616L10.0799 11.787L11.5436 13.2616C11.6428 13.4155 11.7762 13.5437 11.9314 13.6407L13.1182 14.8362C13.3919 15.1076 13.7193 15.4025 14.1544 15.4025C14.8354 15.4023 15.3875 14.8504 15.3875 14.1693C15.3875 13.8758 15.3041 13.5966 15.1328 13.3849L15.1258 13.3818ZM68.9771 14.6735C68.9616 14.5528 68.9383 14.4556 68.9074 14.3811C68.8765 14.307 68.8378 14.2529 68.7912 14.2187C68.7448 14.1847 68.6941 14.1676 68.6381 14.1676H63.5249V10.7791H67.9421C67.9979 10.7791 68.0488 10.7638 68.0952 10.7327C68.1418 10.7019 68.1803 10.6508 68.2113 10.5796C68.2424 10.5084 68.2656 10.414 68.2809 10.2963C68.2964 10.1788 68.3043 10.0303 68.3043 9.85067C68.3043 9.67744 68.2965 9.53047 68.2809 9.40976C68.2656 9.28893 68.2422 9.19319 68.2113 9.122C68.1805 9.05081 68.1415 8.99819 68.0952 8.96404C68.0488 8.92999 67.9979 8.91313 67.9421 8.91313H63.5249V5.97967H68.601C68.6569 5.97967 68.7061 5.9627 68.7498 5.92876C68.7929 5.89471 68.8299 5.84049 68.8609 5.76621C68.892 5.69192 68.9151 5.59447 68.9305 5.47376C68.946 5.35304 68.9539 5.20618 68.9539 5.03284C68.9539 4.84713 68.9461 4.69396 68.9305 4.57325C68.9151 4.45243 68.892 4.3537 68.8609 4.2761C68.8301 4.19883 68.7929 4.14472 68.7498 4.11376C68.7061 4.0827 68.6569 4.06723 68.601 4.06723H61.8169C61.6129 4.06723 61.4408 4.12774 61.3015 4.24846C61.1623 4.36907 61.0927 4.56567 61.0927 4.83784V15.3095C61.0927 15.5819 61.1623 15.7783 61.3015 15.899C61.4408 16.0197 61.6128 16.08 61.8169 16.08H68.6381C68.694 16.08 68.7448 16.0632 68.7912 16.0289C68.8378 15.9951 68.8765 15.9407 68.9074 15.8664C68.9384 15.7923 68.9616 15.6947 68.9771 15.574C68.9926 15.4532 69.0002 15.3033 69.0002 15.1237C69.0003 14.9444 68.9926 14.7942 68.9771 14.6735ZM57.1388 4.99495C57.0575 4.91074 56.9149 4.81158 56.7103 4.69738C56.5056 4.58307 56.2486 4.47644 55.9388 4.37739C55.6293 4.27813 55.2672 4.19381 54.8524 4.12476C54.4372 4.0557 53.9777 4.02112 53.4724 4.02112C52.5523 4.02112 51.7185 4.16233 50.9699 4.44485C50.2214 4.72759 49.582 5.13477 49.0536 5.66684C48.5244 6.1989 48.1153 6.84528 47.8267 7.60586C47.538 8.36644 47.3937 9.22468 47.3937 10.1808C47.3938 11.1066 47.5292 11.9347 47.7996 12.6652C48.0706 13.3959 48.4608 14.0152 48.9723 14.5231C49.4832 15.0313 50.1068 15.4192 50.8433 15.6865C51.5798 15.9541 52.4142 16.0879 53.3464 16.0879C53.6649 16.0879 53.9821 16.0729 54.2979 16.0428C54.6135 16.0127 54.9259 15.9675 55.2356 15.9076C55.5453 15.8476 55.8444 15.7754 56.133 15.6911C56.4215 15.6069 56.6637 15.5258 56.859 15.4475C57.0541 15.3695 57.1835 15.2628 57.2471 15.1276C57.31 14.9921 57.3415 14.8344 57.3415 14.6541V9.85195C57.3415 9.73156 57.3261 9.62482 57.2962 9.53175C57.2664 9.43847 57.2227 9.35884 57.1656 9.29278C57.1083 9.2266 57.0425 9.17708 56.9672 9.14388C56.892 9.1108 56.8063 9.09436 56.7102 9.09436H52.7691C52.7149 9.09436 52.6667 9.11101 52.6247 9.14388C52.5827 9.17708 52.5461 9.2282 52.5162 9.29737C52.4865 9.36642 52.4637 9.45821 52.4488 9.57242C52.4339 9.68651 52.426 9.82794 52.426 9.99615C52.4262 10.3207 52.456 10.5508 52.5161 10.6861C52.5764 10.8213 52.6604 10.889 52.769 10.889H54.9784V13.752C54.7561 13.8724 54.5156 13.9627 54.2567 14.0227C53.9985 14.0826 53.737 14.1127 53.4721 14.1127C52.9314 14.1127 52.4365 14.0256 51.9887 13.8511C51.5409 13.6768 51.1576 13.4182 50.8386 13.0756C50.5201 12.7329 50.2718 12.3077 50.0949 11.7994C49.9175 11.2915 49.8285 10.7037 49.8285 10.0364C49.8285 9.42907 49.9158 8.87438 50.0899 8.37242C50.2646 7.87034 50.514 7.44053 50.8386 7.08265C51.1638 6.72499 51.554 6.44834 52.0113 6.25291C52.4682 6.05759 52.9789 5.95982 53.5446 5.95982C54.0733 5.95982 54.5381 6.01393 54.9379 6.12216C55.3377 6.23039 55.6816 6.34769 55.9701 6.47385C56.2588 6.60022 56.4904 6.71741 56.6646 6.82553C56.8394 6.93376 56.9654 6.98787 57.0439 6.98787C57.0976 6.98787 57.1441 6.97293 57.1833 6.94294C57.2226 6.91284 57.2556 6.86033 57.2827 6.78497C57.3098 6.70994 57.3309 6.60918 57.3457 6.48292C57.3607 6.35655 57.3684 6.20648 57.3684 6.03197C57.3684 5.73141 57.3503 5.50428 57.3142 5.35101C57.2787 5.19774 57.2201 5.07927 57.1388 4.99495ZM37.8065 11.4653L39.4922 6.39753H39.5016L41.188 11.4653H37.8065ZM41.2891 4.57304C41.2522 4.45648 41.2079 4.36427 41.1554 4.2967C41.1034 4.22903 41.0172 4.17834 40.8978 4.14472C40.7777 4.11088 40.6101 4.08943 40.3952 4.08014C40.1801 4.07086 39.8915 4.06637 39.5293 4.06637C39.2158 4.06627 38.9642 4.07096 38.7735 4.08014C38.5832 4.08943 38.434 4.11088 38.3267 4.14472C38.2195 4.17844 38.141 4.22765 38.0918 4.29201C38.0426 4.35647 37.9995 4.44101 37.963 4.54539L34.2862 15.1234C34.2126 15.3386 34.1666 15.5105 34.1478 15.6395C34.1296 15.7685 34.1512 15.8685 34.2125 15.9389C34.2739 16.0096 34.3844 16.0541 34.5443 16.0725C34.7042 16.0909 34.9253 16.1002 35.2077 16.1002C35.4715 16.1001 35.6855 16.0939 35.8479 16.0818C36.0106 16.0694 36.1366 16.0463 36.2257 16.0126C36.3147 15.9789 36.3794 15.9329 36.4192 15.8744C36.4595 15.8161 36.4915 15.7439 36.5159 15.6578L37.2717 13.3266H41.7496L42.5513 15.7224C42.5757 15.8023 42.6066 15.8669 42.6436 15.9159C42.6808 15.9651 42.7449 16.0034 42.8372 16.0311C42.9291 16.0586 43.0628 16.0772 43.2381 16.0862C43.4129 16.0955 43.6573 16.1002 43.9707 16.1002C44.2715 16.1001 44.5082 16.0924 44.6801 16.0772C44.852 16.0617 44.9715 16.0219 45.0395 15.9573C45.107 15.8929 45.1318 15.796 45.113 15.667C45.0949 15.5381 45.0484 15.3629 44.9748 15.1418L41.2891 4.57304ZM30.0762 8.75078C29.9893 9.01399 29.8628 9.23973 29.6952 9.42843C29.5283 9.61735 29.3133 9.76422 29.0505 9.86946C28.7873 9.97459 28.4606 10.0271 28.0708 10.0271H26.4242V5.95171H28.0149C28.2688 5.95171 28.5147 5.96889 28.7531 6.00294C28.9914 6.03699 29.2185 6.11896 29.4353 6.24885C29.6521 6.37875 29.8345 6.58005 29.9833 6.85222C30.132 7.1246 30.2061 7.47137 30.2061 7.89201C30.2062 8.20154 30.1631 8.48779 30.0762 8.75078ZM31.9606 5.36233C31.7007 5.06849 31.3867 4.82546 31.0184 4.63366C30.6502 4.44186 30.2863 4.31037 29.9275 4.23896C29.5688 4.16798 29.2607 4.12155 29.0042 4.09978C28.747 4.07811 28.4762 4.06712 28.1919 4.06712H24.8093C24.5616 4.06712 24.3619 4.14002 24.2106 4.28539C24.0586 4.43065 23.9827 4.64903 23.9827 4.93988V15.7458C23.9827 15.8076 24.0015 15.8633 24.0387 15.9128C24.0757 15.9623 24.1409 16.0026 24.2338 16.0335C24.3267 16.0646 24.4516 16.0891 24.6098 16.1078C24.7673 16.1263 24.9637 16.1357 25.1991 16.1357C25.4403 16.1355 25.6387 16.1263 25.7936 16.1078C25.9478 16.0891 26.0716 16.0646 26.1646 16.0335C26.2575 16.0027 26.3238 15.9623 26.364 15.9128C26.4045 15.8633 26.4244 15.8077 26.4244 15.7458V11.9117H27.978C28.7702 11.9117 29.4586 11.8187 30.0437 11.6331C30.6286 11.4473 31.1218 11.1767 31.5243 10.8208C31.9269 10.465 32.2332 10.0269 32.4431 9.5071C32.6539 8.98741 32.759 8.39003 32.759 7.71558C32.759 7.22674 32.691 6.78572 32.5549 6.39262C32.4184 5.99984 32.2205 5.65627 31.9606 5.36233Z" fill="#C5BDBD"/>
</svg>
