<svg width="23" height="21" viewBox="0 0 23 21" fill="none" xmlns="http://www.w3.org/2000/svg">
<path d="M11.2251 20.9072C10.9497 20.9072 10.7019 20.8247 10.4816 20.6597C4.03745 16.0658 0.622621 11.6371 0.0443031 7.15329C-0.286164 4.23745 1.25602 1.54168 3.87222 0.468877C5.9101 -0.383867 8.85677 -0.273838 11.0874 2.50446C11.1425 2.58698 11.2251 2.58698 11.2527 2.58698C11.2802 2.58698 11.3628 2.58698 11.4179 2.50446C13.6485 -0.273838 16.5952 -0.383867 18.6331 0.468877C21.2493 1.54168 22.7915 4.23745 22.461 7.15329C21.8827 11.6646 18.4679 16.0658 12.0237 20.6872C11.7484 20.8247 11.5005 20.9072 11.2251 20.9072Z" fill="white"/>
</svg>
