<svg width="6" height="14" viewBox="0 0 6 14" fill="none" xmlns="http://www.w3.org/2000/svg">
<path d="M6 0.00012207V2.44421H4.4C4.28107 2.4305 4.16249 2.4749 4.06755 2.56868C3.97261 2.66247 3.90819 2.79886 3.88696 2.95105C3.87959 3.02583 3.87959 3.10152 3.88696 3.17631C3.88696 3.7282 3.88696 4.30262 3.88696 4.86577H6V7.11838H3.86087V14.0001H1.83478V7.16344H0V4.91082H1.82609C1.82609 4.85451 1.82609 4.80945 1.82609 4.7644C1.82609 4.22377 1.82609 3.63809 1.82609 3.14252C1.84866 2.56971 1.98343 2.01378 2.21771 1.52707C2.45199 1.04037 2.77806 0.638923 3.16522 0.36054C3.43269 0.165651 3.7291 0.0466351 4.03478 0.0113851H4.11304L6 0.00012207Z" fill="#C5BDBD"/>
</svg>
