<svg width="23" height="21" viewBox="0 0 23 21" fill="none" xmlns="http://www.w3.org/2000/svg">
<path d="M11.2251 21C10.9497 21 10.7019 20.9175 10.4816 20.7524C4.03745 16.1586 0.622621 11.7298 0.0443031 7.24606C-0.286164 4.33023 1.25602 1.63446 3.87222 0.56165C5.9101 -0.291094 8.85677 -0.181064 11.0874 2.59723C11.1425 2.67976 11.2251 2.67976 11.2527 2.67976C11.2802 2.67976 11.3628 2.67976 11.4179 2.59723C13.6485 -0.181064 16.5952 -0.291094 18.6331 0.56165C21.2493 1.63446 22.7915 4.33023 22.461 7.24606C21.8827 11.7574 18.4679 16.1586 12.0237 20.7799C11.7484 20.9175 11.5005 21 11.2251 21ZM6.15794 1.16682C5.46947 1.16682 4.83608 1.30436 4.25776 1.55193C2.05464 2.45969 0.815392 4.63281 1.11832 7.10852C1.64156 11.2622 4.9187 15.4434 11.0874 19.8722C11.1425 19.9272 11.2527 19.9272 11.3077 19.8722C17.504 15.4434 20.7536 11.2897 21.2768 7.10852C21.5522 4.66032 20.313 2.4872 18.1374 1.55193C16.4851 0.864234 14.0616 0.946757 12.2165 3.25742C11.9687 3.56001 11.5831 3.75256 11.1976 3.75256C10.812 3.75256 10.4265 3.56001 10.1786 3.25742C8.99446 1.74449 7.50735 1.16682 6.15794 1.16682Z" fill="black"/>
</svg>
