<svg width="19" height="19" viewBox="0 0 19 19" fill="none" xmlns="http://www.w3.org/2000/svg">
<path d="M7.42122 14.6992C3.39404 14.6992 0.126709 11.4356 0.126709 7.41295C0.126709 3.3903 3.39404 0.126648 7.42122 0.126648C11.4484 0.126648 14.7157 3.3903 14.7157 7.41295C14.7157 11.4356 11.4484 14.6992 7.42122 14.6992ZM7.42122 0.86034C3.79929 0.86034 0.886554 3.7951 0.886554 7.38764C0.886554 10.9802 3.82462 13.915 7.42122 13.915C11.0431 13.915 13.9559 10.9802 13.9559 7.38764C13.9559 3.7951 11.0431 0.86034 7.42122 0.86034Z" fill="black"/>
<path d="M7.42116 14.8256C3.31799 14.8256 0 11.486 0 7.41279C0 3.33955 3.34332 0 7.42116 0C11.499 0 14.8423 3.33955 14.8423 7.41279C14.8423 11.486 11.5243 14.8256 7.42116 14.8256ZM7.42116 0.227699C3.46996 0.227699 0.253282 3.44075 0.253282 7.38749C0.253282 11.3342 3.46996 14.5473 7.42116 14.5473C11.3724 14.5473 14.589 11.3342 14.589 7.38749C14.589 3.44075 11.3977 0.227699 7.42116 0.227699ZM7.42116 14.0666C3.74857 14.0666 0.759846 11.0812 0.759846 7.41279C0.759846 3.74434 3.74857 0.758989 7.42116 0.758989C11.0938 0.758989 14.0825 3.74434 14.0825 7.41279C14.0825 11.0812 11.1191 14.0666 7.42116 14.0666ZM7.42116 0.986688C3.87521 0.986688 1.01313 3.87084 1.01313 7.38749C1.01313 10.9041 3.90054 13.7883 7.42116 13.7883C10.9671 13.7883 13.8292 10.9041 13.8292 7.38749C13.8292 3.87084 10.9671 0.986688 7.42116 0.986688Z" fill="black"/>
<path d="M18.1349 18.747L12.0055 12.5992L12.5374 12.0679L18.6668 18.2158C18.8188 18.3676 18.8188 18.5953 18.6668 18.747C18.5148 18.8988 18.2869 18.8988 18.1349 18.747Z" fill="black"/>
<path d="M18.3881 19C18.2615 19 18.1348 18.9494 18.0335 18.8482L11.8281 12.6245L12.5373 11.9161L18.7427 18.1398C18.9453 18.3422 18.9453 18.6458 18.7427 18.8482C18.6667 18.9494 18.5401 19 18.3881 19ZM18.2108 18.6711C18.3121 18.7723 18.4641 18.7723 18.5654 18.6711C18.6667 18.5699 18.6667 18.4181 18.5654 18.3169L12.5373 12.2703L12.1827 12.6245L18.2108 18.6711Z" fill="black"/>
</svg>
