<svg width="19" height="21" viewBox="0 0 19 21" fill="none" xmlns="http://www.w3.org/2000/svg">
<path d="M9.28511 12.2219C5.912 12.2219 3.16162 9.47718 3.16162 6.11097C3.16162 2.74475 5.912 0 9.28511 0C12.6582 0 15.4086 2.74475 15.4086 6.11097C15.4086 9.47718 12.6582 12.2219 9.28511 12.2219ZM9.28511 1.03576C6.48283 1.03576 4.1995 3.31442 4.1995 6.11097C4.1995 8.90751 6.48283 11.1862 9.28511 11.1862C12.0874 11.1862 14.3707 8.90751 14.3707 6.11097C14.3707 3.31442 12.0874 1.03576 9.28511 1.03576Z" fill="black"/>
<path d="M9.10359 21C3.65473 21 0.46326 19.55 0.048109 16.8829C-0.392989 13.9569 2.27955 10.2281 4.77046 9.21826L5.15966 10.1763C2.61686 11.2121 0.748675 14.7078 1.06004 16.7275C1.3714 18.799 4.3034 19.9643 9.10359 19.9643C9.15548 19.9643 9.20738 19.9643 9.28522 19.9643V21C9.23332 21 9.15548 21 9.10359 21Z" fill="black"/>
<path d="M9.46679 21C9.41489 21 9.33705 21 9.28516 21V19.9643C14.1891 19.9901 17.1731 18.8249 17.4844 16.7275C17.7958 14.6819 15.9276 11.1862 13.3848 10.1763L13.774 9.21826C16.2909 10.2281 18.9634 13.9569 18.4964 16.8829C18.1071 19.5241 14.8897 21 9.46679 21Z" fill="black"/>
</svg>
