<svg width="16" height="16" viewBox="0 0 16 16" fill="none" xmlns="http://www.w3.org/2000/svg">
<path d="M13.7444 16H2.2556C1.01185 16 0 14.9881 0 13.7444V2.2556C0 1.01185 1.01185 0 2.2556 0H13.7444C14.9881 0 16 1.01185 16 2.2556V13.7444C16 14.9881 14.9881 16 13.7444 16ZM2.23452 0.822133C1.45455 0.822133 0.822133 1.45455 0.822133 2.23452V13.7233C0.822133 14.5033 1.45455 15.1357 2.23452 15.1357H13.7233C14.5033 15.1357 15.1357 14.5033 15.1357 13.7233V2.23452C15.1357 1.45455 14.5033 0.822133 13.7233 0.822133H2.23452Z" fill="black"/>
<path d="M5.83931 0.400635H4.99609V15.5574H5.83931V0.400635Z" fill="black"/>
<path d="M10.8989 0.400635H10.0557V15.5574H10.8989V0.400635Z" fill="black"/>
<path d="M15.5572 10.3506H0.400391V11.1938H15.5572V10.3506Z" fill="black"/>
<path d="M15.5572 5.29126H0.400391V6.13447H15.5572V5.29126Z" fill="black"/>
</svg>
