<svg width="15" height="16" viewBox="0 0 15 16" fill="none" xmlns="http://www.w3.org/2000/svg">
<path d="M14.9994 7.50066C14.9994 8.58393 14.9994 9.66719 14.9994 10.7505C14.9919 11.5991 14.7277 12.4256 14.2415 13.1212C13.7553 13.8168 13.0699 14.3489 12.2755 14.6475C11.5997 14.8998 10.8817 15.0196 10.1607 15.0004C8.28181 15.0004 6.40295 15.0004 4.52409 15.0004C3.61488 15.0212 2.72074 14.7657 1.95977 14.2677C1.04031 13.6984 0.379158 12.793 0.116867 11.7438C0.0414992 11.4233 0.00229875 11.0954 0 10.7662C0 8.63112 0 6.49606 0 4.34975C0 3.24851 0.307899 2.25963 1.09226 1.46179C1.83322 0.662017 2.83963 0.158816 3.92403 0.0459068C4.59826 -0.014774 5.27249 0.00320548 5.93324 0.000958039C7.3671 0.000958039 8.80322 0.000958039 10.2393 0.000958039C11.2125 0.000958039 12.1474 0.158279 12.979 0.697664C13.9012 1.24844 14.5751 2.13411 14.8601 3.16985C14.9461 3.52305 14.9906 3.88509 14.9927 4.24862C15.0084 5.33188 14.9927 6.41515 14.9927 7.49841L14.9994 7.50066ZM1.12372 7.50066C1.12372 8.59516 1.12372 9.68742 1.12372 10.7819C1.12372 12.0517 1.79795 12.9125 2.87672 13.5013C3.40124 13.7659 3.98419 13.8935 4.57129 13.8722C6.50634 13.8722 8.44138 13.8722 10.3764 13.8722C11.0488 13.8837 11.7119 13.7137 12.2957 13.38C13.3116 12.7911 13.8689 11.9236 13.8689 10.7437C13.8824 8.55246 13.8869 6.36121 13.8689 4.16771C13.8689 2.87094 13.134 2.01466 12.026 1.44606C11.5276 1.20959 10.9794 1.09702 10.4281 1.11794C8.50431 1.11794 6.5805 1.11794 4.65445 1.11794C4.03791 1.10178 3.4268 1.23681 2.87447 1.51124C1.79795 2.07085 1.14844 2.94286 1.12372 4.19018C1.09675 5.29368 1.12372 6.39717 1.12372 7.50066Z" fill="#C5BDBD"/>
<path d="M7.50639 10.7055C6.82075 10.6953 6.15344 10.4826 5.58838 10.0941C5.02333 9.70565 4.58576 9.15876 4.33072 8.52224C4.07569 7.88572 4.01456 7.18799 4.15504 6.51683C4.29552 5.84566 4.63134 5.23102 5.12024 4.75021C5.60914 4.2694 6.22931 3.9439 6.90273 3.81465C7.57615 3.68539 8.27275 3.75816 8.90493 4.02379C9.5371 4.28942 10.0766 4.73606 10.4556 5.30752C10.8346 5.87898 11.0361 6.54975 11.0349 7.23547C11.0242 8.1626 10.6472 9.04787 9.98609 9.698C9.32501 10.3481 8.43358 10.7103 7.50639 10.7055ZM5.10837 7.22872C5.09945 7.70615 5.23286 8.17543 5.49162 8.57676C5.75037 8.97809 6.12275 9.2933 6.5613 9.48222C6.99985 9.67114 7.48472 9.72522 7.95412 9.63757C8.42352 9.54993 8.8562 9.32451 9.19702 8.99006C9.53784 8.65561 9.77138 8.22726 9.86787 7.7596C9.96436 7.29193 9.91943 6.80613 9.73882 6.3641C9.5582 5.92206 9.25008 5.5438 8.8537 5.27752C8.45732 5.01124 7.99065 4.869 7.51313 4.86891C6.88236 4.86648 6.27608 5.1129 5.82587 5.55469C5.37565 5.99649 5.11784 6.59802 5.10837 7.22872Z" fill="#C5BDBD"/>
<path d="M12.1834 3.45987C12.1781 3.60503 12.1302 3.74542 12.0456 3.86351C11.961 3.98159 11.8435 4.07215 11.7077 4.12386C11.572 4.17557 11.424 4.18615 11.2823 4.15428C11.1405 4.12241 11.0113 4.0495 10.9108 3.94466C10.8103 3.83981 10.7428 3.70768 10.7169 3.56474C10.691 3.42181 10.7078 3.27441 10.7652 3.14095C10.8225 3.00749 10.9179 2.89388 11.0394 2.8143C11.161 2.73472 11.3032 2.69271 11.4485 2.69349C11.6464 2.70106 11.8337 2.78521 11.9708 2.92818C12.1079 3.07116 12.1841 3.26178 12.1834 3.45987Z" fill="#C5BDBD"/>
</svg>
