<svg width="23" height="21" viewBox="0 0 23 21" fill="none" xmlns="http://www.w3.org/2000/svg">
<path d="M11.2251 20.9072C10.9497 20.9072 10.7019 20.8247 10.4816 20.6597C4.03745 16.0658 0.622621 11.6371 0.0443031 7.15329C-0.286164 4.23745 1.25602 1.54168 3.87222 0.468877C5.9101 -0.383867 8.85677 -0.273838 11.0874 2.50446C11.1425 2.58698 11.2251 2.58698 11.2527 2.58698C11.2802 2.58698 11.3628 2.58698 11.4179 2.50446C13.6485 -0.273838 16.5952 -0.383867 18.6331 0.468877C21.2493 1.54168 22.7915 4.23745 22.461 7.15329C21.8827 11.6646 18.4679 16.0658 12.0237 20.6872C11.7484 20.8247 11.5005 20.9072 11.2251 20.9072ZM6.15794 1.07405C5.46947 1.07405 4.83608 1.21159 4.25776 1.45916C2.05464 2.36692 0.815392 4.54004 1.11832 7.01575C1.64156 11.1694 4.9187 15.3506 11.0874 19.7794C11.1425 19.8344 11.2527 19.8344 11.3077 19.7794C17.504 15.3506 20.7536 11.1969 21.2768 7.01575C21.5522 4.56755 20.313 2.39443 18.1374 1.45916C16.4851 0.771461 14.0616 0.853984 12.2165 3.16465C11.9687 3.46723 11.5831 3.65979 11.1976 3.65979C10.812 3.65979 10.4265 3.46723 10.1786 3.16465C8.99446 1.65171 7.50735 1.07405 6.15794 1.07405Z" fill="white"/>
</svg>
