<svg width="22" height="22" viewBox="0 0 22 22" fill="none" xmlns="http://www.w3.org/2000/svg">
<path d="M8.56473 16.9652C3.91648 16.9652 0.145264 13.1982 0.145264 8.55518C0.145264 3.91217 3.91648 0.145203 8.56473 0.145203C13.213 0.145203 16.9842 3.91217 16.9842 8.55518C16.9842 13.1982 13.213 16.9652 8.56473 16.9652ZM8.56473 0.992044C4.38423 0.992044 1.02229 4.37939 1.02229 8.52598C1.02229 12.6726 4.41346 16.0599 8.56473 16.0599C12.7452 16.0599 16.1072 12.6726 16.1072 8.52598C16.1072 4.37939 12.7452 0.992044 8.56473 0.992044Z" fill="white"/>
<path d="M8.56564 17.112C3.82969 17.112 0 13.2574 0 8.55598C0 3.85457 3.85892 0 8.56564 0C13.2724 0 17.1313 3.85457 17.1313 8.55598C17.1313 13.2574 13.3016 17.112 8.56564 17.112ZM8.56564 0.262814C4.00509 0.262814 0.292343 3.97138 0.292343 8.52678C0.292343 13.0822 4.00509 16.7908 8.56564 16.7908C13.1262 16.7908 16.839 13.0822 16.839 8.52678C16.839 3.97138 13.1554 0.262814 8.56564 0.262814ZM8.56564 16.2359C4.32667 16.2359 0.877029 12.7902 0.877029 8.55598C0.877029 4.32179 4.32667 0.876039 8.56564 0.876039C12.8046 0.876039 16.2543 4.32179 16.2543 8.55598C16.2543 12.7902 12.8338 16.2359 8.56564 16.2359ZM8.56564 1.13885C4.47284 1.13885 1.16937 4.4678 1.16937 8.52678C1.16937 12.5858 4.50208 15.9147 8.56564 15.9147C12.6584 15.9147 15.9619 12.5858 15.9619 8.52678C15.9619 4.4678 12.6584 1.13885 8.56564 1.13885Z" fill="white"/>
<path d="M20.9316 21.6382L13.8569 14.5422L14.4709 13.929L21.5455 21.025C21.7209 21.2002 21.7209 21.463 21.5455 21.6382C21.3701 21.8134 21.107 21.8134 20.9316 21.6382Z" fill="white"/>
<path d="M21.224 21.9302C21.0778 21.9302 20.9317 21.8718 20.8147 21.755L13.6523 14.5714L14.4709 13.7538L21.6333 20.9373C21.8672 21.1709 21.8672 21.5213 21.6333 21.755C21.5456 21.8718 21.3994 21.9302 21.224 21.9302ZM21.0194 21.5505C21.1363 21.6674 21.3117 21.6674 21.4287 21.5505C21.5456 21.4337 21.5456 21.2585 21.4287 21.1417L14.4709 14.1626L14.0616 14.5714L21.0194 21.5505Z" fill="white"/>
</svg>
