<svg width="17" height="16" viewBox="0 0 17 16" fill="none" xmlns="http://www.w3.org/2000/svg">
<path d="M8.63285 14C6.96026 13.9873 5.57307 13.5223 4.29207 12.7454C2.44027 11.6245 1.07963 10.0769 0.0641253 8.22994C-0.0155221 8.08983 -0.0221561 7.94335 0.050854 7.80324C1.10618 5.72704 2.59957 4.0266 4.75004 2.91845C6.08414 2.23699 7.50452 1.91218 9.01782 2.02045C10.4448 2.11598 11.7325 2.61274 12.9139 3.38336C14.3807 4.34503 15.5091 5.6124 16.4449 7.05173C16.6109 7.31285 16.7702 7.58033 16.9295 7.84782C17.0224 8.00067 17.0224 8.15989 16.9361 8.31911C15.967 9.96223 14.7524 11.4079 13.1263 12.5034C12.0046 13.2612 10.7833 13.7707 9.41606 13.949C9.1041 13.9809 8.79879 13.9873 8.63285 14ZM8.35409 10.5736C8.89171 10.5736 9.27003 10.4972 9.62845 10.3507C11.4272 9.63106 11.8718 7.47844 10.4913 6.19196C9.34968 5.12838 7.45142 5.17933 6.37618 6.3066C5.50669 7.21095 5.43368 8.53564 6.21025 9.50368C6.78105 10.2233 7.56426 10.5545 8.35409 10.5736Z" fill="#E9E3E3"/>
<rect x="1.76758" y="0.0612793" width="20.2736" height="2" transform="rotate(45 1.76758 0.0612793)" fill="#E9E3E3"/>
</svg>
