<svg width="14" height="8" viewBox="0 0 14 8" fill="none" xmlns="http://www.w3.org/2000/svg">
<path d="M8.23898 1.96726C8.23898 2.31811 8.22481 2.6488 8.22279 2.97546C8.2184 3.15364 8.23952 3.33153 8.28552 3.50377C8.31341 3.61371 8.3758 3.7119 8.4636 3.78405C8.4853 3.80104 8.51075 3.81265 8.53785 3.8179C8.56494 3.82316 8.5929 3.82193 8.61942 3.81429C8.71396 3.78421 8.80043 3.7332 8.87237 3.66508C9.04538 3.50617 9.20136 3.3298 9.33781 3.13879C9.8217 2.47127 10.2207 1.74656 10.5257 0.981229C10.5803 0.852178 10.6329 0.725144 10.6835 0.594077C10.7197 0.493904 10.7918 0.410596 10.8859 0.360173C10.9448 0.338565 11.0073 0.328301 11.07 0.329926C11.0984 0.329926 11.1287 0.329926 11.1591 0.329926H13.1827C13.3203 0.329926 13.4579 0.329926 13.5874 0.329926C13.657 0.33886 13.7251 0.357175 13.7898 0.38437C13.8422 0.399628 13.8881 0.431936 13.92 0.47615C13.9519 0.520364 13.968 0.573943 13.9658 0.628356C13.9658 0.76679 13.9383 0.903854 13.8849 1.03164C13.7492 1.35899 13.5782 1.67068 13.3749 1.96121C12.9965 2.5379 12.5655 3.07628 12.1608 3.62677C12.0252 3.81026 11.8977 3.9998 11.7763 4.19136C11.7044 4.29737 11.6715 4.42489 11.6832 4.5523C11.7004 4.67571 11.7572 4.79028 11.8451 4.87896C11.9928 5.03624 12.1425 5.19151 12.3004 5.3387C12.7233 5.71483 13.1201 6.11904 13.4883 6.54855C13.6599 6.75246 13.8079 6.975 13.9294 7.21195C13.9593 7.27591 13.9797 7.34382 13.9901 7.4136C14.0084 7.49075 14.0012 7.57173 13.9694 7.64443C13.9377 7.71712 13.8832 7.77762 13.8141 7.81688C13.6788 7.90203 13.5228 7.94875 13.3628 7.95198C12.7658 7.96811 12.1689 7.96408 11.5739 7.99836C11.1913 8.01692 10.816 7.88845 10.5257 7.63943C10.3064 7.45981 10.1032 7.26145 9.91859 7.04661C9.71622 6.82682 9.52803 6.60501 9.3115 6.39531C9.2195 6.3053 9.11528 6.2286 9.00188 6.16745C8.92917 6.1231 8.84297 6.10604 8.75877 6.11935C8.67457 6.13265 8.59789 6.17545 8.54252 6.24004C8.4423 6.36039 8.37224 6.50277 8.33814 6.65542C8.27322 6.88809 8.2372 7.12782 8.23088 7.36924C8.22782 7.42932 8.22174 7.48922 8.21267 7.5487C8.20129 7.62496 8.16873 7.69654 8.11866 7.75533C8.0686 7.81413 8.00303 7.8578 7.92936 7.8814C7.83128 7.9223 7.72607 7.94354 7.61975 7.94391C7.35263 7.94391 7.08551 7.94391 6.8103 7.94391C6.3388 7.93849 5.87208 7.84903 5.43221 7.67976C4.63791 7.3816 3.9272 6.8975 3.36002 6.26827C2.79718 5.65128 2.29568 4.98139 1.86254 4.26799C1.17649 3.1597 0.567961 2.00559 0.0412767 0.813866C0.00690089 0.735258 -0.00634977 0.649088 0.00282788 0.563831C0.00477103 0.531954 0.0154097 0.501211 0.0335968 0.474916C0.0517838 0.448621 0.0768293 0.427772 0.106033 0.414616C0.205816 0.36441 0.316006 0.338169 0.427789 0.337992H2.43927C2.55855 0.346043 2.67292 0.388439 2.76848 0.460031C2.86404 0.531623 2.93667 0.629329 2.97756 0.741275C3.1513 1.19897 3.36036 1.64256 3.60286 2.06808C3.86539 2.54178 4.16089 2.99658 4.48718 3.42916C4.59786 3.58917 4.73466 3.72957 4.8919 3.84454C4.94198 3.88625 5.00348 3.91201 5.06843 3.91848C5.13338 3.92495 5.19878 3.91184 5.25616 3.88083C5.3189 3.84342 5.36786 3.78686 5.39579 3.71952C5.46928 3.55128 5.51441 3.3721 5.52935 3.1892C5.57352 2.76317 5.58232 2.33424 5.55565 1.90676C5.55072 1.65161 5.52432 1.39733 5.47673 1.14657C5.46459 1.08407 5.44233 1.02357 5.43019 0.961065C5.41559 0.902934 5.38848 0.84866 5.35075 0.802005C5.31301 0.755349 5.26554 0.717427 5.21164 0.690865C5.07274 0.60483 4.91527 0.55299 4.75227 0.539634C4.70573 0.539634 4.68954 0.515437 4.70978 0.475108C4.72711 0.434966 4.75029 0.397595 4.77858 0.364206C4.92658 0.203829 5.1264 0.100345 5.34317 0.0718252C5.65722 0.0181217 5.97571 -0.00551084 6.29428 0.00125064C6.64841 0.00125064 7.00457 0.00125064 7.36073 0.0234312C7.51527 0.0331951 7.66846 0.0581862 7.81806 0.0980386C7.93719 0.12163 8.04482 0.184676 8.12344 0.276928C8.20206 0.36918 8.24706 0.485215 8.25112 0.606175C8.26834 0.800592 8.27442 0.995829 8.26933 1.19094C8.26528 1.45509 8.2491 1.72125 8.23898 1.96726Z" fill="#C5BDBD"/>
</svg>
