<svg width="20" height="23" viewBox="0 0 20 23" fill="none" xmlns="http://www.w3.org/2000/svg">
<path d="M17.5035 7.29828H1.89195C1.45156 7.29828 1.0292 7.47322 0.717795 7.78463C0.40639 8.09603 0.231445 8.51839 0.231445 8.95878V21.0224C0.231445 21.4628 0.40639 21.8851 0.717795 22.1965C1.0292 22.5079 1.45156 22.6829 1.89195 22.6829H17.5035C17.9439 22.6829 18.3662 22.5079 18.6776 22.1965C18.989 21.8851 19.164 21.4628 19.164 21.0224V8.96986C19.1654 8.75087 19.1236 8.53375 19.0408 8.33101C18.958 8.12827 18.8359 7.94391 18.6816 7.78854C18.5272 7.63317 18.3437 7.50987 18.1415 7.42573C17.9393 7.34159 17.7225 7.29827 17.5035 7.29828ZM1.3855 20.3056V8.95878C1.38623 8.82494 1.43991 8.69684 1.53481 8.60246C1.62971 8.50808 1.75811 8.45509 1.89195 8.4551H17.5035C17.6368 8.45582 17.7645 8.50913 17.8588 8.60343C17.9531 8.69773 18.0064 8.82542 18.0072 8.95878V20.3056V21.0251C18.0072 21.159 17.9542 21.2874 17.8598 21.3823C17.7654 21.4772 17.6373 21.5308 17.5035 21.5316H1.89195C1.75763 21.5316 1.62881 21.4782 1.53383 21.3832C1.43886 21.2883 1.3855 21.1595 1.3855 21.0251V20.3056Z" fill="black"/>
<path d="M13.9547 11.6508C13.837 11.65 13.7244 11.6028 13.6414 11.5193C13.5584 11.4358 13.5119 11.3229 13.5119 11.2052V5.82239C13.522 4.83003 13.1526 3.8713 12.4792 3.14233C11.8058 2.41336 10.8793 1.96924 9.88921 1.90083C9.3724 1.87535 8.8558 1.95508 8.37072 2.13519C7.88563 2.31529 7.44217 2.59202 7.06721 2.94861C6.69226 3.30519 6.39361 3.7342 6.18938 4.20963C5.98515 4.68506 5.87959 5.19701 5.8791 5.71445V11.208C5.8791 11.2665 5.86757 11.3244 5.84518 11.3785C5.82279 11.4325 5.78996 11.4816 5.74859 11.523C5.70721 11.5644 5.6581 11.5972 5.60404 11.6196C5.54998 11.642 5.49204 11.6535 5.43353 11.6535C5.31583 11.6528 5.20321 11.6055 5.12025 11.5221C5.03728 11.4386 4.99072 11.3257 4.99072 11.208V5.8473C4.99072 3.31503 6.92798 1.14253 9.46025 1.00969C10.0978 0.977391 10.7353 1.07519 11.3339 1.29712C11.9324 1.51906 12.4796 1.86048 12.942 2.30062C13.4044 2.74076 13.7724 3.2704 14.0235 3.8573C14.2747 4.44419 14.4038 5.07607 14.403 5.71445V11.208C14.4027 11.2665 14.3908 11.3243 14.368 11.3783C14.3453 11.4322 14.3122 11.4811 14.2706 11.5222C14.2289 11.5633 14.1796 11.5958 14.1254 11.6179C14.0712 11.64 14.0132 11.6511 13.9547 11.6508Z" fill="black"/>
<path d="M13.9555 11.7899C13.8011 11.7892 13.6532 11.7274 13.5443 11.6179C13.4354 11.5085 13.3743 11.3604 13.3743 11.206V5.82042C13.389 4.86159 13.0342 3.93386 12.3835 3.22952C11.7327 2.52518 10.8359 2.09825 9.87891 2.03723C9.37996 2.01093 8.88088 2.08649 8.41207 2.25931C7.94327 2.43213 7.51455 2.69859 7.15205 3.04245C6.78955 3.3863 6.50085 3.80037 6.30354 4.2594C6.10624 4.71844 6.00446 5.21284 6.0044 5.71248V11.206C6.00991 11.2859 5.99893 11.366 5.97215 11.4415C5.94537 11.5169 5.90335 11.5861 5.84872 11.6446C5.79408 11.7032 5.72799 11.7498 5.65456 11.7817C5.58112 11.8137 5.5019 11.8301 5.42183 11.8301C5.34176 11.8301 5.26255 11.8137 5.18912 11.7817C5.11568 11.7498 5.04959 11.7032 4.99496 11.6446C4.94032 11.5861 4.89831 11.5169 4.87152 11.4415C4.84474 11.366 4.83377 11.2859 4.83927 11.206V5.8481C4.81894 4.58578 5.28539 3.3641 6.14183 2.43655C6.99827 1.50899 8.17895 0.946786 9.43888 0.866578C10.0949 0.833962 10.7507 0.934963 11.3665 1.16346C11.9822 1.39196 12.5452 1.74319 13.0211 2.19584C13.4971 2.64849 13.8761 3.19311 14.1352 3.79667C14.3943 4.40023 14.528 5.05013 14.5283 5.70695V11.2005C14.5298 11.3544 14.4705 11.5027 14.3632 11.6131C14.2559 11.7235 14.1094 11.787 13.9555 11.7899ZM9.69349 1.75495H9.89552C10.9235 1.81953 11.8872 2.27717 12.5869 3.03303C13.2866 3.78889 13.6686 4.785 13.6538 5.81489V11.2005C13.6497 11.2431 13.6546 11.286 13.6681 11.3266C13.6817 11.3673 13.7035 11.4046 13.7323 11.4362C13.7611 11.4679 13.7962 11.4932 13.8353 11.5105C13.8745 11.5278 13.9168 11.5368 13.9596 11.5368C14.0024 11.5368 14.0447 11.5278 14.0839 11.5105C14.123 11.4932 14.1581 11.4679 14.1869 11.4362C14.2157 11.4046 14.2375 11.3673 14.2511 11.3266C14.2646 11.286 14.2695 11.2431 14.2654 11.2005V5.71248C14.2654 5.09309 14.1395 4.48016 13.8954 3.91093C13.6512 3.3417 13.2938 2.82806 12.845 2.40123C12.3961 1.97439 11.8652 1.64327 11.2844 1.42798C10.7036 1.21269 10.0852 1.11772 9.46655 1.14886C8.27735 1.22484 7.16316 1.75614 6.35553 2.63232C5.54789 3.5085 5.10893 4.66219 5.12986 5.85363V11.2115C5.12581 11.2541 5.13069 11.2971 5.14422 11.3377C5.15774 11.3783 5.1796 11.4157 5.20839 11.4473C5.23718 11.479 5.27227 11.5043 5.31141 11.5216C5.35055 11.5389 5.39288 11.5478 5.43567 11.5478C5.47847 11.5478 5.5208 11.5389 5.55994 11.5216C5.59907 11.5043 5.63416 11.479 5.66296 11.4473C5.69175 11.4157 5.7136 11.3783 5.72713 11.3377C5.74065 11.2971 5.74554 11.2541 5.74149 11.2115V5.71248C5.74222 4.66406 6.15864 3.65871 6.89947 2.91685C7.6403 2.17498 8.64507 1.75714 9.69349 1.75495Z" fill="black"/>
</svg>
