<svg width="70" height="243" viewBox="0 0 70 243" fill="none" xmlns="http://www.w3.org/2000/svg">
<g clip-path="url(#clip0)">
<mask id="path-1-inside-1" fill="white">
<path fill-rule="evenodd" clip-rule="evenodd" d="M1.38209 59.7067L1.37558 59.7002L1.37558 59.0652C1.37558 56.7292 1.54651 54.3769 1.95023 52.0717L1.95349 52.0684L1.95349 52.0636C2.34581 49.8976 2.96116 47.7851 3.79628 45.7456L3.79628 45.7439C5.49581 41.6048 8.11186 38.0149 11.3449 34.9061C18.2081 28.303 26.5121 25.076 36.0956 25.076C40.4209 25.076 44.5835 26.0059 48.5507 27.6939C52.6221 29.416 56.254 31.8184 59.4121 34.8802L59.4186 34.8867L59.4251 34.8932C66.0458 41.4671 69.3765 49.4294 69.3765 58.691C69.3765 60.8326 69.1616 62.9726 68.7481 65.0754C68.3249 67.2349 67.6558 69.3457 66.8077 71.3821L66.8061 71.3853L66.8044 71.3918C65.0642 75.5033 62.6126 79.1597 59.4251 82.3171C52.8614 88.9024 44.8033 92.1391 35.446 92.1391C30.9547 92.1391 26.6016 91.2335 22.4488 89.5617L22.4456 89.5617C18.2342 87.8558 14.4835 85.4307 11.2553 82.2668L11.2537 82.2652C8.20791 79.2634 5.72372 75.8095 4.00302 71.9102C2.29372 68.0287 1.4586 63.922 1.38209 59.7067ZM67.2668 216.631C66.8923 218.535 66.303 220.391 65.5363 222.178C63.3077 227.816 59.7198 232.485 54.8735 236.196L54.8654 236.199L54.8605 236.204C48.8926 240.68 42.1498 243 34.6484 243C25.9472 243 18.3693 240.082 12.0481 234.181C8.85419 231.203 6.22349 227.759 4.46861 223.772C3.5814 221.789 2.87652 219.729 2.38652 217.615C1.82163 215.261 1.50745 212.849 1.50745 210.428L1.50745 208.893L9.11303 208.893L9.11303 210.428C9.11303 211.446 9.17326 212.46 9.30512 213.469C9.48419 214.802 9.88303 216.207 10.2786 217.491L10.2819 217.5C10.8516 219.388 11.7747 221.222 12.7823 222.917C14.9865 226.508 17.8565 229.489 21.4737 231.707C25.5272 234.126 29.9095 235.362 34.6468 235.362C41.3407 235.362 47.0954 233.108 51.9547 228.567L51.9579 228.566C54.4161 226.282 56.49 223.643 57.9112 220.613C58.5998 219.04 59.1321 217.407 59.5212 215.739C59.9298 213.996 60.13 212.218 60.13 210.428L60.13 208.893L67.83 208.893L67.83 210.428C67.8333 212.499 67.6802 214.598 67.2668 216.631ZM4.48 197.357C1.86233 195.082 0.62512 192.143 0.62512 188.715C0.62512 184.925 2.04628 181.711 5.21093 179.475L5.22559 179.464L5.24186 179.454C6.38791 178.683 7.62675 178.137 8.97628 177.813L8.98279 177.811L8.99093 177.81C10.6823 177.421 12.67 177.366 14.4037 177.366L67.8349 177.366L67.8349 185.002L24.7149 185.002L24.7149 192.433L67.8316 192.433L67.8316 200.07L24.7149 200.07L24.7149 202.058L16.9661 204.588L16.9661 200.07L14.7798 200.07C12.8328 200.07 10.4512 200.026 8.56117 199.54C7.02605 199.156 5.6521 198.4 4.48 197.357ZM45.2688 142.539C48.3309 144.815 50.8802 147.6 52.6563 150.963L52.6579 150.968L52.6595 150.971C54.2907 154.106 55.2186 157.586 55.7037 161.075L67.83 161.075L67.83 168.712L1.50907 168.712L1.50907 163.063C1.50907 157.289 3.28512 152.05 6.8193 147.441L6.82256 147.439L6.82419 147.436C9.63396 143.817 13.2154 141.108 17.4186 139.213L17.4251 139.21L17.4333 139.208C20.9544 137.659 24.6758 136.832 28.5323 136.832C34.7607 136.832 40.3509 138.771 45.2688 142.539ZM68.5381 122.72L68.5381 130.358L2.21395 130.358L2.21395 122.72L68.5381 122.72ZM9.96116 108.291L9.96116 115.691L2.21395 115.691L2.21395 93.3914L9.96279 93.3914L9.96279 100.652L68.5381 100.652L68.5381 108.291L9.96116 108.291ZM60.7893 11.6397L60.7893 -2.62986e-06L68.5381 -2.96857e-06L68.5381 19.2747L2.21395 19.2747L2.21395 11.6397L60.7893 11.6397ZM9.12442 59.1284C9.15209 66.1527 11.7926 72.0527 16.8765 76.9792C22.037 81.9769 28.1612 84.4992 35.4005 84.4992C42.6479 84.4976 48.8095 81.972 53.9261 76.9111L53.9309 76.9079C59.0686 71.8567 61.6277 65.7979 61.6277 58.6456C61.6277 51.4739 59.0247 45.394 53.9212 40.2943L53.9163 40.2894L53.9114 40.2845C51.5363 37.8724 48.7672 36.0288 45.627 34.7069C42.5616 33.4141 39.34 32.711 35.9995 32.711C28.5502 32.711 22.1021 35.0811 16.8244 40.2991L16.8212 40.304C14.3533 42.7226 12.39 45.5236 11.0616 48.6972C9.68767 51.9826 9.12442 55.4769 9.12442 59.0182L9.12442 59.1284ZM16.9677 185.001L12.7872 185.001C11.6086 185.001 10.3861 185.231 9.45326 185.986C8.67838 186.63 8.37233 187.442 8.37233 188.437C8.37233 189.561 8.70442 190.517 9.53466 191.299L9.53954 191.303L9.5428 191.306C10.4365 192.161 11.62 192.43 12.8361 192.43L16.9677 192.43L16.9677 185.001ZM47.9142 161.077C47.8051 160.027 47.5854 158.992 47.25 157.982C46.7258 156.429 46.0307 154.958 45.1386 153.576C43.2144 150.607 40.6716 148.29 37.5314 146.61C34.707 145.146 31.6726 144.47 28.4835 144.47C22.006 144.47 16.8895 147.051 12.9679 152.121L12.9679 152.123C12.4063 152.847 11.8951 153.605 11.4588 154.409C11.034 155.193 10.6433 155.993 10.3095 156.818C9.83256 158.12 9.52489 159.623 9.29698 161.077L47.9142 161.077Z"/>
</mask>
<path fill-rule="evenodd" clip-rule="evenodd" d="M1.38209 59.7067L1.37558 59.7002L1.37558 59.0652C1.37558 56.7292 1.54651 54.3769 1.95023 52.0717L1.95349 52.0684L1.95349 52.0636C2.34581 49.8976 2.96116 47.7851 3.79628 45.7456L3.79628 45.7439C5.49581 41.6048 8.11186 38.0149 11.3449 34.9061C18.2081 28.303 26.5121 25.076 36.0956 25.076C40.4209 25.076 44.5835 26.0059 48.5507 27.6939C52.6221 29.416 56.254 31.8184 59.4121 34.8802L59.4186 34.8867L59.4251 34.8932C66.0458 41.4671 69.3765 49.4294 69.3765 58.691C69.3765 60.8326 69.1616 62.9726 68.7481 65.0754C68.3249 67.2349 67.6558 69.3457 66.8077 71.3821L66.8061 71.3853L66.8044 71.3918C65.0642 75.5033 62.6126 79.1597 59.4251 82.3171C52.8614 88.9024 44.8033 92.1391 35.446 92.1391C30.9547 92.1391 26.6016 91.2335 22.4488 89.5617L22.4456 89.5617C18.2342 87.8558 14.4835 85.4307 11.2553 82.2668L11.2537 82.2652C8.20791 79.2634 5.72372 75.8095 4.00302 71.9102C2.29372 68.0287 1.4586 63.922 1.38209 59.7067ZM67.2668 216.631C66.8923 218.535 66.303 220.391 65.5363 222.178C63.3077 227.816 59.7198 232.485 54.8735 236.196L54.8654 236.199L54.8605 236.204C48.8926 240.68 42.1498 243 34.6484 243C25.9472 243 18.3693 240.082 12.0481 234.181C8.85419 231.203 6.22349 227.759 4.46861 223.772C3.5814 221.789 2.87652 219.729 2.38652 217.615C1.82163 215.261 1.50745 212.849 1.50745 210.428L1.50745 208.893L9.11303 208.893L9.11303 210.428C9.11303 211.446 9.17326 212.46 9.30512 213.469C9.48419 214.802 9.88303 216.207 10.2786 217.491L10.2819 217.5C10.8516 219.388 11.7747 221.222 12.7823 222.917C14.9865 226.508 17.8565 229.489 21.4737 231.707C25.5272 234.126 29.9095 235.362 34.6468 235.362C41.3407 235.362 47.0954 233.108 51.9547 228.567L51.9579 228.566C54.4161 226.282 56.49 223.643 57.9112 220.613C58.5998 219.04 59.1321 217.407 59.5212 215.739C59.9298 213.996 60.13 212.218 60.13 210.428L60.13 208.893L67.83 208.893L67.83 210.428C67.8333 212.499 67.6802 214.598 67.2668 216.631ZM4.48 197.357C1.86233 195.082 0.62512 192.143 0.62512 188.715C0.62512 184.925 2.04628 181.711 5.21093 179.475L5.22559 179.464L5.24186 179.454C6.38791 178.683 7.62675 178.137 8.97628 177.813L8.98279 177.811L8.99093 177.81C10.6823 177.421 12.67 177.366 14.4037 177.366L67.8349 177.366L67.8349 185.002L24.7149 185.002L24.7149 192.433L67.8316 192.433L67.8316 200.07L24.7149 200.07L24.7149 202.058L16.9661 204.588L16.9661 200.07L14.7798 200.07C12.8328 200.07 10.4512 200.026 8.56117 199.54C7.02605 199.156 5.6521 198.4 4.48 197.357ZM45.2688 142.539C48.3309 144.815 50.8802 147.6 52.6563 150.963L52.6579 150.968L52.6595 150.971C54.2907 154.106 55.2186 157.586 55.7037 161.075L67.83 161.075L67.83 168.712L1.50907 168.712L1.50907 163.063C1.50907 157.289 3.28512 152.05 6.8193 147.441L6.82256 147.439L6.82419 147.436C9.63396 143.817 13.2154 141.108 17.4186 139.213L17.4251 139.21L17.4333 139.208C20.9544 137.659 24.6758 136.832 28.5323 136.832C34.7607 136.832 40.3509 138.771 45.2688 142.539ZM68.5381 122.72L68.5381 130.358L2.21395 130.358L2.21395 122.72L68.5381 122.72ZM9.96116 108.291L9.96116 115.691L2.21395 115.691L2.21395 93.3914L9.96279 93.3914L9.96279 100.652L68.5381 100.652L68.5381 108.291L9.96116 108.291ZM60.7893 11.6397L60.7893 -2.62986e-06L68.5381 -2.96857e-06L68.5381 19.2747L2.21395 19.2747L2.21395 11.6397L60.7893 11.6397ZM9.12442 59.1284C9.15209 66.1527 11.7926 72.0527 16.8765 76.9792C22.037 81.9769 28.1612 84.4992 35.4005 84.4992C42.6479 84.4976 48.8095 81.972 53.9261 76.9111L53.9309 76.9079C59.0686 71.8567 61.6277 65.7979 61.6277 58.6456C61.6277 51.4739 59.0247 45.394 53.9212 40.2943L53.9163 40.2894L53.9114 40.2845C51.5363 37.8724 48.7672 36.0288 45.627 34.7069C42.5616 33.4141 39.34 32.711 35.9995 32.711C28.5502 32.711 22.1021 35.0811 16.8244 40.2991L16.8212 40.304C14.3533 42.7226 12.39 45.5236 11.0616 48.6972C9.68767 51.9826 9.12442 55.4769 9.12442 59.0182L9.12442 59.1284ZM16.9677 185.001L12.7872 185.001C11.6086 185.001 10.3861 185.231 9.45326 185.986C8.67838 186.63 8.37233 187.442 8.37233 188.437C8.37233 189.561 8.70442 190.517 9.53466 191.299L9.53954 191.303L9.5428 191.306C10.4365 192.161 11.62 192.43 12.8361 192.43L16.9677 192.43L16.9677 185.001ZM47.9142 161.077C47.8051 160.027 47.5854 158.992 47.25 157.982C46.7258 156.429 46.0307 154.958 45.1386 153.576C43.2144 150.607 40.6716 148.29 37.5314 146.61C34.707 145.146 31.6726 144.47 28.4835 144.47C22.006 144.47 16.8895 147.051 12.9679 152.121L12.9679 152.123C12.4063 152.847 11.8951 153.605 11.4588 154.409C11.034 155.193 10.6433 155.993 10.3095 156.818C9.83256 158.12 9.52489 159.623 9.29698 161.077L47.9142 161.077Z" fill="white" stroke="white" stroke-opacity="0.3" stroke-width="2" mask="url(#path-1-inside-1)"/>
</g>
<defs>
<clipPath id="clip0">
<rect width="243" height="70" fill="white" transform="translate(0 243) rotate(-90)"/>
</clipPath>
</defs>
</svg>
