<svg width="129" height="37" viewBox="0 0 129 37" fill="none" xmlns="http://www.w3.org/2000/svg">
<path fill-rule="evenodd" clip-rule="evenodd" d="M97.3038 0.730561L97.3073 0.727119H97.6444C98.8845 0.727119 100.133 0.817467 101.357 1.03086L101.359 1.03258H101.361C102.511 1.23996 103.633 1.56521 104.715 2.00663H104.716C106.913 2.90496 108.819 4.28772 110.47 5.99661C113.975 9.62433 115.688 14.0136 115.688 19.0791C115.688 21.3654 115.194 23.5656 114.298 25.6625C113.384 27.8146 112.109 29.7343 110.483 31.4036L110.48 31.407L110.476 31.4104C106.987 34.91 102.76 36.6705 97.8431 36.6705C96.7061 36.6705 95.5701 36.5569 94.4538 36.3383C93.3074 36.1146 92.1868 35.761 91.1058 35.3127L91.1041 35.3118L91.1007 35.3109C88.918 34.3911 86.977 33.0952 85.3008 31.4104C81.8049 27.941 80.0866 23.6817 80.0866 18.7358C80.0866 16.3618 80.5674 14.0609 81.4549 11.8658V11.8641C82.3605 9.63809 83.6479 7.65558 85.3275 5.94928L85.3283 5.94842C86.9219 4.33849 88.7554 3.02542 90.8255 2.11591C92.886 1.21242 95.0661 0.771002 97.3038 0.730561ZM13.9982 35.5553C12.9877 35.3574 12.0022 35.0459 11.0536 34.6406C8.06078 33.4627 5.58226 31.5662 3.612 29.0046L3.61028 29.0003L3.6077 28.9977C1.23152 25.8432 0 22.2792 0 18.3142C0 13.715 1.54886 9.70951 4.68184 6.36833C6.26252 4.6801 8.09088 3.28958 10.2073 2.362C11.26 1.89305 12.3539 1.52047 13.4762 1.26147C14.7258 0.962886 16.0063 0.796816 17.2912 0.796816H18.1064V4.81691H17.2912C16.7511 4.81691 16.2127 4.84875 15.6769 4.91844C14.9692 5.01309 14.2235 5.22391 13.5416 5.433L13.5373 5.43472C12.5345 5.73589 11.561 6.22377 10.6614 6.7564C8.7548 7.92147 7.1724 9.43847 5.99506 11.3504C4.71108 13.493 4.0549 15.8093 4.0549 18.3133C4.0549 21.8515 5.25116 24.8933 7.66174 27.4618L7.6626 27.4635C8.8752 28.7628 10.2761 29.859 11.8843 30.6102C12.7194 30.9742 13.5863 31.2556 14.4721 31.4612C15.3974 31.6772 16.3409 31.783 17.2912 31.783H18.1064V35.853H17.2912C16.1921 35.8547 15.0775 35.7739 13.9982 35.5553ZM24.2305 2.36803C25.4379 0.984398 26.998 0.330444 28.8177 0.330444C30.8301 0.330444 32.5364 1.08163 33.7232 2.75437L33.7292 2.76212L33.7344 2.77072C34.1437 3.37649 34.4335 4.0313 34.6055 4.74463L34.6064 4.74807L34.6073 4.75237C34.8137 5.6464 34.8429 6.69702 34.8429 7.61342V35.8556H30.7889V13.0636H26.844V35.8539H22.79V13.0636H21.7348L20.3915 8.96779H22.79V7.81219C22.79 6.78307 22.8132 5.52421 23.0712 4.52521C23.275 3.71379 23.6767 2.98756 24.2305 2.36803ZM53.3312 23.9278C52.1229 25.5464 50.6445 26.8939 48.8592 27.8326L48.8566 27.8335L48.8549 27.8343C47.1908 28.6965 45.3435 29.187 43.4911 29.4434V35.853H39.437V0.797677H42.4358C45.5009 0.797677 48.2821 1.73644 50.7288 3.60451L50.7297 3.60623L50.7314 3.6071C52.6526 5.09226 54.0906 6.98528 55.0968 9.207L55.0985 9.21044L55.0993 9.21475C55.9215 11.0759 56.361 13.043 56.361 15.0814C56.361 18.3735 55.3315 21.3284 53.3312 23.9278ZM63.8524 36.2273H59.7975V1.17026H63.8524V36.2273ZM71.5124 5.26521H67.584V1.17026H79.4219V5.26607H75.5673V36.2273H71.5124V5.26521ZM122.821 32.1315H129V36.2273H118.768V1.17026H122.821V32.1315ZM97.6109 4.82293C93.8819 4.83756 90.7498 6.23323 88.1345 8.92047C85.4814 11.6481 84.1424 14.8852 84.1424 18.7117C84.1433 22.5425 85.484 25.7993 88.1706 28.5038L88.1724 28.5064C90.8538 31.222 94.0702 32.5746 97.8671 32.5746C101.674 32.5746 104.902 31.1988 107.609 28.5012L107.612 28.4986L107.614 28.496C108.895 27.2406 109.874 25.777 110.575 24.1171C111.262 22.4969 111.635 20.794 111.635 19.0283C111.635 15.0909 110.377 11.6826 107.607 8.89293L107.604 8.89121C106.32 7.58675 104.833 6.54903 103.148 5.84689C101.404 5.12065 99.5493 4.82293 97.6693 4.82293H97.6109ZM30.7897 8.96865V6.75898C30.7897 6.136 30.6676 5.48979 30.2668 4.99675C29.9246 4.58716 29.4937 4.4254 28.9657 4.4254C28.3688 4.4254 27.8614 4.60093 27.446 5.03977L27.4443 5.04235L27.4426 5.04407C26.9885 5.51647 26.8458 6.14203 26.8458 6.78479V8.96865H30.7897ZM43.4902 25.3261C44.0475 25.2684 44.597 25.1523 45.1328 24.975C45.9575 24.698 46.7384 24.3305 47.472 23.859C49.0484 22.8419 50.2782 21.4979 51.17 19.838C51.9474 18.3451 52.3061 16.7412 52.3061 15.0556C52.3061 11.6318 50.9361 8.92735 48.2443 6.85449H48.2434C47.859 6.55763 47.4565 6.28744 47.03 6.05684C46.6137 5.83226 46.1889 5.62575 45.7511 5.44935C45.0597 5.19723 44.2616 5.03461 43.4902 4.91414V25.3261Z" fill="black"/>
</svg>
