<svg width="181" height="52" viewBox="0 0 181 52" fill="none" xmlns="http://www.w3.org/2000/svg">
<path fill-rule="evenodd" clip-rule="evenodd" d="M136.527 1.02671L136.532 1.02187H137.005C138.745 1.02187 140.497 1.14885 142.214 1.44876L142.217 1.45118H142.22C143.833 1.74262 145.407 2.19973 146.926 2.82011H146.927C150.01 4.08262 152.684 6.02597 155 8.42764C159.918 13.5261 162.322 19.6947 162.322 26.8139C162.322 30.027 161.629 33.1192 160.372 36.0662C159.089 39.0907 157.3 41.7887 155.019 44.1347L155.014 44.1395L155.01 44.1444C150.113 49.0626 144.182 51.5369 137.284 51.5369C135.688 51.5369 134.094 51.3772 132.528 51.0701C130.92 50.7556 129.347 50.2586 127.831 49.6286L127.828 49.6274L127.823 49.6262C124.761 48.3334 122.037 46.5122 119.686 44.1444C114.781 39.2685 112.37 33.2824 112.37 26.3314C112.37 22.9949 113.044 19.7612 114.289 16.6763V16.6739C115.56 13.5454 117.366 10.7592 119.723 8.36113L119.724 8.35992C121.96 6.09732 124.533 4.25192 127.437 2.97369C130.328 1.70392 133.387 1.08355 136.527 1.02671ZM19.6409 49.9696C18.2231 49.6915 16.8402 49.2537 15.5093 48.6841C11.3101 47.0286 7.83247 44.3633 5.068 40.7632L5.06559 40.7571L5.06197 40.7535C1.72795 36.3202 0 31.3113 0 25.7388C0 19.2751 2.17321 13.6458 6.56909 8.95006C8.78695 6.57741 11.3523 4.62318 14.3219 3.31955C15.7989 2.66048 17.3338 2.13685 18.9085 1.77285C20.6618 1.35322 22.4585 1.11983 24.2612 1.11983H25.4052V6.76969H24.2612C23.5035 6.76969 22.7481 6.81443 21.9963 6.91239C21.0032 7.04541 19.9571 7.34169 19.0002 7.63555L18.9941 7.63797C17.5872 8.06122 16.2212 8.7469 14.959 9.49546C12.2839 11.1329 10.0636 13.2649 8.41167 15.9519C6.61012 18.9631 5.68943 22.2185 5.68943 25.7376C5.68943 30.7102 7.36791 34.9851 10.7502 38.5949L10.7514 38.5973C12.4528 40.4234 14.4185 41.964 16.6749 43.0197C17.8466 43.5313 19.0629 43.9267 20.3058 44.2157C21.6042 44.5193 22.9279 44.668 24.2612 44.668H25.4052V50.388H24.2612C22.7191 50.3904 21.1553 50.2768 19.6409 49.9696ZM33.9978 3.32801C35.692 1.38346 37.8809 0.464386 40.4342 0.464386C43.2578 0.464386 45.6518 1.52011 47.317 3.87099L47.3255 3.88187L47.3327 3.89397C47.9071 4.74532 48.3137 5.6656 48.5551 6.66811L48.5563 6.67294L48.5575 6.67899C48.8471 7.93546 48.8881 9.41201 48.8881 10.6999V50.3916H43.1999V18.3596H37.6649V50.3892H31.9767V18.3596H30.4961L28.6113 12.6034H31.9767V10.9793C31.9767 9.53294 32.0092 7.76373 32.3712 6.35973C32.6572 5.21936 33.2207 4.19871 33.9978 3.32801ZM74.829 33.6283C73.1337 35.903 71.0594 37.7968 68.5544 39.1161L68.5507 39.1173L68.5483 39.1185C66.2134 40.3302 63.6215 41.0195 61.0223 41.3799V50.388H55.3341V1.12104H59.5418C63.8423 1.12104 67.7447 2.44039 71.1777 5.06578L71.1789 5.0682L71.1813 5.06941C73.877 7.15666 75.8945 9.81713 77.3063 12.9395L77.3087 12.9444L77.3099 12.9504C78.4635 15.5662 79.0801 18.3306 79.0801 21.1955C79.0801 25.8222 77.6357 29.975 74.829 33.6283ZM89.5914 50.9141H83.9019V1.64467H89.5914V50.9141ZM100.339 7.39973H94.8271V1.64467H111.437V7.40094H106.029V50.9141H100.339V7.39973ZM172.33 45.1578H181V50.9141H166.643V1.64467H172.33V45.1578ZM136.958 6.77815C131.726 6.79871 127.331 8.7602 123.662 12.5369C119.939 16.3703 118.06 20.9197 118.06 26.2975C118.061 31.6813 119.943 36.2585 123.712 40.0594L123.715 40.063C127.477 43.8796 131.99 45.7806 137.317 45.7806C142.659 45.7806 147.188 43.8469 150.987 40.0557L150.99 40.0521L150.994 40.0485C152.791 38.2841 154.164 36.2271 155.148 33.8943C156.111 31.6172 156.635 29.224 156.635 26.7425C156.635 21.2088 154.87 16.4187 150.983 12.4982L150.979 12.4957C149.178 10.6624 147.091 9.20401 144.728 8.21722C142.28 7.19657 139.678 6.77815 137.04 6.77815H136.958ZM43.2011 12.6046V9.49908C43.2011 8.62355 43.0297 7.71536 42.4674 7.02243C41.9872 6.44681 41.3826 6.21946 40.6417 6.21946C39.8043 6.21946 39.0924 6.46615 38.5096 7.0829L38.5071 7.08653L38.5047 7.08894C37.8676 7.75285 37.6673 8.63201 37.6673 9.53536V12.6046H43.2011ZM61.0211 35.5934C61.8031 35.5124 62.5741 35.3491 63.3259 35.1C64.4831 34.7106 65.5787 34.1942 66.608 33.5315C68.8198 32.1022 70.5454 30.2132 71.7967 27.8805C72.8875 25.7823 73.3907 23.5282 73.3907 21.1592C73.3907 16.3474 71.4685 12.5465 67.6916 9.63332H67.6904C67.151 9.21611 66.5863 8.83639 65.9878 8.51229C65.4037 8.19667 64.8077 7.90643 64.1935 7.65853C63.2233 7.3042 62.1035 7.07564 61.0211 6.90634V35.5934Z" fill="white"/>
</svg>
